<svg xmlns="http://www.w3.org/2000/svg" xmlns:xlink="http://www.w3.org/1999/xlink" width="1281.339" height="945.285" viewBox="0 0 1281.339 945.285"><defs><style>.a{fill:none;}.b,.c,.d,.e,.f,.g,.h,.i,.j,.k,.l{fill:#f8fcff;}.aa,.ae,.ag,.ah,.c{opacity:0.3;}.ab,.af,.ai,.d{opacity:0.2;}.ac,.e{opacity:0.42;}.ad,.f{opacity:0.4;}.al,.am,.aq,.g,.z{opacity:0.25;}.aj,.h{opacity:0.23;}.ak,.i{opacity:0.22;}.an,.ao,.j{opacity:0.15;}.ap,.k{opacity:0.75;}.ar,.l{opacity:0.5;}.m{fill:url(#a);}.aa,.ab,.am,.ap,.ar,.n{fill:#fff;}.o{fill:#d94b8e;}.p{fill:#fffcd9;}.q{fill:#9cbde5;}.r{fill:#f2f7ff;}.s{fill:#ffb94d;}.t{fill:#ffd47d;}.u{fill:#94504a;}.v{fill:#bf5f56;}.w{fill:#6a9325;}.x{fill:#547718;}.y{fill:#00bfff;}.z{fill:#8bba39;}.ac,.ad{fill:#f08400;}.ae{fill:#87b735;}.af,.ah,.ao,.aq{fill:#0047ff;}.ag,.aj,.ak,.al{fill:#a32141;}.ai{fill:#4c3131;}.an{fill:#946a6a;}.as{fill:#a6d2ff;}.at{fill:#2a3d6b;}</style><linearGradient id="a" x1="0.839" y1="0.113" x2="0.438" y2="0.735" gradientUnits="objectBoundingBox"><stop offset="0" stop-color="#66c9d8"/><stop offset="1" stop-color="#d94b8e"/></linearGradient></defs><g transform="translate(5944 4002.285)"><rect class="a" width="1281" height="945" transform="translate(-5944 -4002)"/><g transform="translate(-6026.535 -4002)"><path class="b" d="M-8247.465-2616.415v-705.871h-559.546l-120.4,298.719s-91.014,213.877,90.713,398.053,429.91,104.8,429.91,104.8S-8282.877-2560.858-8247.465-2616.415Z" transform="translate(9611 3322)"/><g transform="matrix(0.951, -0.309, 0.309, 0.951, 735.661, 261.751)"><g transform="translate(0 -0.24)"><path class="b" d="M483.52,476.23a150.59,150.59,0,0,1-98.61,21.58l6.5-26.57h0a43.369,43.369,0,0,0,7.88.67c22.55-.39,36.54-18.32,35.27-34.19C436.87,463.89,459.14,488.46,483.52,476.23Z" transform="translate(-220.52 -71.95)"/><path class="b" d="M434.09,160.29c15.2,9,20.17,23.37,15.92,48.64h0c.87-14.24-5.3-21.23-11.34-25.25A32.33,32.33,0,0,0,423,178.81h0a36.4,36.4,0,0,0,6.25-16.14,3.22,3.22,0,0,1,4.84-2.38Z" transform="translate(-220.52 -71.95)"/><path class="b" d="M421.35,251c-.62.3-1.25.58-1.91.85C420.07,251.54,420.71,251.26,421.35,251Z" transform="translate(-220.52 -71.95)"/><path class="b" d="M410.78,220.69a32.081,32.081,0,0,0-10.66,6.79,38.436,38.436,0,0,0-3.18,3.39,7.66,7.66,0,0,0,1.84,11.31,7.74,7.74,0,0,0,4.21,1.23,7.55,7.55,0,0,0,6.81-4.15c.31-.62.63-1.22,1-1.81a32.639,32.639,0,0,1,5.8-7.36c6.6-6.26,15.18-9.15,22.06-8C430,218.39,420,217.15,410.78,220.69Z" transform="translate(-220.52 -71.95)"/><path class="b" d="M394.91,292.35c4.75-1.94,11-1.47,15.75,0-3.14,3.63-6.07,7.37-8.86,11.14l-.88-.65c-7.76-5.29-11.25-12.68-12.88-21l-.14-.27q.93-.5,1.89-1a48.089,48.089,0,0,1,13.31-4.15,37.49,37.49,0,0,1-8.19,15.93Z" transform="translate(-220.52 -71.95)"/><path class="b" d="M406.07,346.46c-.66-1.09-1.3-2.21-1.91-3.34a2,2,0,0,0-3.35-.26,20.9,20.9,0,0,0-3,5.87A62.873,62.873,0,0,1,390.54,338a29.4,29.4,0,0,0-7.08,17.91,50.88,50.88,0,0,0,13.66,1.77,35.42,35.42,0,0,0,14.52-3.38,63.149,63.149,0,0,1-5.57-7.84Z" transform="translate(-220.52 -71.95)"/><path class="b" d="M374,475.05a6.22,6.22,0,1,1-6.22,6.22,6.22,6.22,0,0,1,6.22-6.22Z" transform="translate(-220.52 -71.95)"/><path class="b" d="M377.19,496.64l-.63,3a6.224,6.224,0,1,1-12.21-2.42l.66-3.33Q371,495.53,377.19,496.64Z" transform="translate(-220.52 -71.95)"/><path class="b" d="M289.31,267.84c6.2,6.91,15.07,11.29,25.14,10.44a17.54,17.54,0,1,1-25.14-10.44Z" transform="translate(-220.52 -71.95)"/><path class="b" d="M317.26,436.45c-3.11-2.22-6.19-4.63-9.2-7.18a27.36,27.36,0,0,0,6.74-14.43,16.88,16.88,0,0,0-6.93-16.68,82.1,82.1,0,0,1-25.24-105.81,17.54,17.54,0,0,1,6.68-24.51,36.39,36.39,0,0,1-6.77-11A157.85,157.85,0,0,0,235,320.6q-.62,1.52-1.2,3.06a155.092,155.092,0,0,0-8.09,29.75c-.46,2.68-.84,5.37-1.15,8.1a158.074,158.074,0,0,0-1,18.18q0,1.11,0,2.22a156.63,156.63,0,0,0,27.91,87.32,35.48,35.48,0,0,0,33.76,15.18h.22a142.708,142.708,0,0,0,14.89,11.36,23.15,23.15,0,0,0,35.1-13.18A21.782,21.782,0,0,0,336,480c.12-.8.22-1.61.31-2.43C338,461.45,330.42,445.87,317.26,436.45Z" transform="translate(-220.52 -71.95)"/><path class="b" d="M391.41,471.24l-6.5,26.57q-3.9-.48-7.72-1.17Q371,495.53,365,493.92q-4.28-1.14-8.45-2.53h0l7.07-28.88C371.46,466.67,379.93,469.27,391.41,471.24Zm-11.21,10a6.2,6.2,0,1,0,0,.03Z" transform="translate(-220.52 -71.95)"/><path class="b" d="M508.22,308.09v.49a62.34,62.34,0,0,1-3,19.18h0a14.07,14.07,0,0,1-8.54,2.86,14.23,14.23,0,1,1,11.54-22.53Z" transform="translate(-220.52 -71.95)"/><path class="b" d="M481.48,347.36a21.46,21.46,0,0,1-3,14.45,59.16,59.16,0,0,1-6.27,3.39,61.59,61.59,0,0,1-19.42,5.49,21.5,21.5,0,0,1-6.28-36.75,3.12,3.12,0,0,1,2.61-.65l1.85.38a2.47,2.47,0,0,0,2.93-1.91,3,3,0,0,1,2.39-2.39,21.49,21.49,0,0,1,25.18,18Z" transform="translate(-220.52 -71.95)"/><path class="b" d="M470.46,267a9.19,9.19,0,1,1-9.19,9.19,9.19,9.19,0,0,1,9.19-9.19Z" transform="translate(-220.52 -71.95)"/><path class="b" d="M459.51,304.72a8.15,8.15,0,1,1-8.14,8.15A8.15,8.15,0,0,1,459.51,304.72Z" transform="translate(-220.52 -71.95)"/><path class="b" d="M434.66,254.15a5.08,5.08,0,1,1-3.6,1.488,5.09,5.09,0,0,1,3.6-1.488Z" transform="translate(-220.52 -71.95)"/><path class="b" d="M419.29,327.12a20.74,20.74,0,0,1-13.21,19.33h0c-.66-1.09-1.3-2.21-1.91-3.34a2,2,0,0,0-3.35-.26,20.91,20.91,0,0,0-3,5.87A62.881,62.881,0,0,1,390.54,338a61.851,61.851,0,0,1-4.77-11.61c4.58-6.5,9.07-13.28,13.89-20A20.74,20.74,0,0,1,419.29,327.12Z" transform="translate(-220.52 -71.95)"/><path class="b" d="M411.64,354.29a63.148,63.148,0,0,1-5.57-7.83h0a20.74,20.74,0,0,0-6.42-40c.7-1,1.41-1.95,2.14-2.92,2.79-3.77,5.72-7.51,8.86-11.14-4.76-1.47-11-1.94-15.75,0a37.49,37.49,0,0,0,8.19-15.87,48.09,48.09,0,0,0-13.31,4.15,62.7,62.7,0,0,1,29.65-28.79c.66-.27,1.29-.55,1.91-.85a62.74,62.74,0,0,1,44.84-1.5,6.37,6.37,0,1,0,11.53,5.38,62.8,62.8,0,0,1,20.59,19.91c-15.54,6.65-7.37,25.74,8.17,19.09a61.721,61.721,0,0,1,1.74,14.22,14.23,14.23,0,1,0-3,19.67,62.55,62.55,0,0,1-26.73,34.05,21.49,21.49,0,0,0-22.19-32.44,3,3,0,0,0-2.39,2.39,2.47,2.47,0,0,1-2.93,1.91l-1.85-.38a3.12,3.12,0,0,0-2.61.65,21.5,21.5,0,0,0,6.28,36.75,61.316,61.316,0,0,1-7.08.4h0C431.44,371.09,420.08,364.39,411.64,354.29Zm68-78.12a3.811,3.811,0,1,0,.02,0Zm-12,36.7a3.378,3.378,0,1,0,.02,0Zm-27.92-53.63a2.108,2.108,0,1,0,.02,0Z" transform="translate(-220.52 -71.95)"/><path class="b" d="M383.45,355.9h0a29.4,29.4,0,0,1,7.09-17.9,61.849,61.849,0,0,1-4.77-11.61c-16.39,23.27-34.07,43.05-73.17,43.05a25.688,25.688,0,1,1,0-51.375c43.89.005,53.46-24.865,75.3-36.465a29.87,29.87,0,0,1-11.24-9.16c-4.09,7.08-12.5,5.33-16.29-.75,5.79,27.5-35.38,30.49-31.21,1.75a35.22,35.22,0,0,1-14.71,4.86,17.54,17.54,0,0,1-31.82,14.06,82.1,82.1,0,0,0,25.24,105.81,16.88,16.88,0,0,1,6.93,16.68,27.36,27.36,0,0,1-6.74,14.43c3,2.55,6.09,5,9.2,7.18,13.16,9.42,20.73,25,19,41.08-.09.82-.19,1.63-.31,2.43a21.772,21.772,0,0,1-.54,2.6h.09a148.2,148.2,0,0,0,21,8.81h0l7.07-28.88c-1.72-.92-3.41-1.9-5.09-3a71,71,0,0,1-20.22-19.08c-11.88-17.09-11.36-32.87-8.49-42,5.51-17.57,30-27.32,63.69-19.83h0C386.32,372.17,383.14,364,383.45,355.9Z" transform="translate(-220.52 -71.95)"/><path class="b" d="M400.92,302.84l.88.65c-.73,1-1.44,1.94-2.14,2.92-4.82,6.69-9.31,13.47-13.89,20-16.39,23.27-34.07,43.05-73.17,43.05a25.687,25.687,0,1,1,0-51.375c43.89,0,53.46-24.865,75.3-36.465l.14.27C389.67,290.16,393.16,297.55,400.92,302.84Z" transform="translate(-220.52 -71.95)"/><path class="b" d="M472.22,365.2h0c0,34.93-28.12,49.29-59.57,49.94,14.38,3.52,21.14,12.64,21.93,22.57,1.08,13.54-9,28.59-25.93,32.95a40.428,40.428,0,0,1-9.34,1.24,43.371,43.371,0,0,1-7.88-.67h0a108.648,108.648,0,0,1-18-4.46,69.478,69.478,0,0,1-9.79-4.28c-1.72-.92-3.41-1.9-5.09-3a71,71,0,0,1-20.22-19.08c-11.88-17.09-11.36-32.87-8.49-42,5.51-17.57,30-27.32,63.69-19.83h0c-7.21-6.4-10.39-14.62-10.08-22.67h0a50.879,50.879,0,0,0,13.66,1.77,35.42,35.42,0,0,0,14.52-3.38c8.44,10.1,19.8,16.8,34.07,16.8h0a62.45,62.45,0,0,0,26.5-5.89Z" transform="translate(-220.52 -71.95)"/><path class="b" d="M596,286.72C557.5,331,561.63,368.4,537.45,416.85c-2.31,4.64-4.89,9.39-7.79,14.26a151.26,151.26,0,0,1-46.14,45.12c-24.38,12.23-46.65-12.34-48.94-38.51-.79-9.93-7.55-19.05-21.93-22.57,31.45-.65,59.57-15,59.57-49.94h0a59.162,59.162,0,0,0,6.27-3.39,62.42,62.42,0,0,0,11.43-9l1.8-1.8c37.44-37.29,66.11-60.87,99.26-71.77a4.67,4.67,0,0,1,5.02,7.47Z" transform="translate(-220.52 -71.95)"/><path class="b" d="M450,208.93a55,55,0,0,1-1.11,8.07,82.4,82.4,0,0,1-2.2,8.27,72.418,72.418,0,0,0-8-3.18c-8.67-3.7-18.65-4.94-27.86-1.4a32.08,32.08,0,0,0-10.66,6.79,38.436,38.436,0,0,0-3.18,3.39,7.66,7.66,0,0,0,1.84,11.31,7.74,7.74,0,0,0,4.21,1.23,7.55,7.55,0,0,0,6.81-4.15c.31-.62.63-1.22,1-1.81a32.64,32.64,0,0,1,5.8-7.36c6.6-6.26,15.18-9.15,22.06-8,.74,11.88-3.58,22.47-17.29,28.9-.64.27-1.28.55-1.91.85a62.7,62.7,0,0,0-29.65,28.79q-1,.47-1.89,1a29.87,29.87,0,0,1-11.24-9.16c-4.09,7.08-12.5,5.33-16.29-.75,5.79,27.5-35.38,30.49-31.21,1.75a35.22,35.22,0,0,1-14.71,4.86h0c-10.07.85-18.94-3.53-25.14-10.44a36.39,36.39,0,0,1-6.77-11c-4-10.08-3.41-21.9,4-31.23h0c-15.52,0-21.6-9.64-21.62-19.59a24.33,24.33,0,0,1,7.71-17.61,23.416,23.416,0,0,1,2.41-2A131.679,131.679,0,0,1,302.3,170.6a94.55,94.55,0,0,1,36.81-7.84l-1,.59c-5.5,6.27-4.41,15-1.28,19.09,2.6,3.45,10.11,7.8,17.9,4.07-7,8.63-10.51,17.79-9.68,27.59,2.59,10.42,8.26,18.43,21.89,20.21,15.12-1.91,25-8.38,22.8-25.4-4.58-10-3.89-16.77,0-21.56a72.9,72.9,0,0,1,13.88-6A52.54,52.54,0,0,1,423,178.81a32.33,32.33,0,0,1,15.68,4.87C444.7,187.7,450.87,194.69,450,208.93Z" transform="translate(-220.52 -71.95)"/><circle class="b" cx="13.06" cy="13.06" r="13.06" transform="translate(93.98 166.83)"/><circle class="b" cx="9.47" cy="9.47" r="9.47" transform="translate(110.62 202.79)"/><circle class="b" cx="6.09" cy="6.09" r="6.09" transform="translate(95.67 150.18)"/><circle class="b" cx="4.94" cy="4.94" r="4.94" transform="translate(134.53 176.1)"/><circle class="b" cx="9.05" cy="9.05" r="9.05" transform="translate(83.02 273.29)"/><circle class="b" cx="6.09" cy="6.09" r="6.09" transform="translate(112.42 259.95)"/><circle class="b" cx="4.94" cy="4.94" r="4.94" transform="translate(108.63 277.4)"/><circle class="b" cx="3.35" cy="3.35" r="3.35" transform="translate(136.1 266.76)"/><circle class="b" cx="18.42" cy="18.42" r="18.42" transform="translate(235.29 359.42)"/><path class="b" d="M537.45,416.85c-2.31,4.64-4.89,9.39-7.79,14.26a150.672,150.672,0,0,1-18.57,23,22.83,22.83,0,0,1,26.36-37.25Z" transform="translate(-220.52 -71.95)"/><circle class="b" cx="9.08" cy="9.08" r="9.08" transform="translate(236.72 336.48)"/><circle class="b" cx="5.93" cy="5.93" r="5.93" transform="translate(267.94 339.63)"/><circle class="b" cx="3.35" cy="3.35" r="3.35" transform="translate(259.72 325.42)"/><circle class="b" cx="9.05" cy="9.05" r="9.05" transform="translate(165.7 349.98)"/><path class="b" d="M410,463.76a18.22,18.22,0,0,1-1.35,6.91,40.432,40.432,0,0,1-9.34,1.24,43.371,43.371,0,0,1-7.88-.67h0a108.651,108.651,0,0,1-18-4.46,17.681,17.681,0,0,1-.25-3,18.42,18.42,0,1,1,36.83,0Z" transform="translate(-220.52 -71.95)"/><circle class="b" cx="6.09" cy="6.09" r="6.09" transform="translate(190.31 368.08)"/><circle class="b" cx="4.94" cy="4.94" r="4.94" transform="translate(142.28 367.96)"/><path class="b" d="M354.78,186.51c-7.79,3.74-15.3-.61-17.91-4.07-3.13-4.14-4.22-12.82,1.28-19.09l6.71-4.14a45.07,45.07,0,0,0,18.92-17.93l4.63.3c.72,8.77,1.13,17.09,0,23a43.35,43.35,0,0,0,19.72-12.76l4.11.73c.41,10.45-1.65,20.15-7.35,28.76a46,46,0,0,0-17.26-11,30.71,30.71,0,0,1-12.85,16.2Z" transform="translate(-220.52 -71.95)"/><path class="b" d="M389.83,187.35c-3.93,4.79-4.62,11.57,0,21.56,2.22,17-7.68,23.49-22.8,25.4-13.63-1.78-19.3-9.79-21.89-20.21-.84-9.8,2.64-19,9.68-27.59,5.58-4.27,10.3-9.28,12.83-16.18C376.46,173.76,384.18,178.93,389.83,187.35Z" transform="translate(-220.52 -71.95)"/><path class="b" d="M367.61,170.33a30.66,30.66,0,0,1-12.83,16.18C360.37,182.24,365.09,177.23,367.61,170.33Z" transform="translate(-220.52 -71.95)"/><path class="b" d="M378.89,211.05a11,11,0,1,1-21.43-3.45h20.88a10.889,10.889,0,0,1,.55,3.45Z" transform="translate(-220.52 -71.95)"/></g><g transform="translate(0 -0.24)"><path class="c" d="M291.77,220.3c-17.28,16.28-39.95-15.89-16.78-34A107.5,107.5,0,0,1,337,163a13.49,13.49,0,0,0-3.3,11.62c-20.56,2.08-33.78,8.74-49.4,20C269.49,205,275.11,224.76,291.77,220.3Z" transform="translate(-220.52 -71.95)"/><ellipse class="c" cx="13.75" cy="11.11" rx="13.75" ry="11.11" transform="translate(61.654 167.527) rotate(-45)"/><path class="d" d="M443.31,292.19c-11.08,7.09-24.69,5.58-30.42-3.36s-1.39-21.94,9.68-29a28.6,28.6,0,0,1,8-3.55,5.09,5.09,0,1,0,7.39-.9c6.27.17,11.88,2.84,15.06,7.81C458.72,272.11,454.38,285.1,443.31,292.19Z" transform="translate(-220.52 -71.95)"/><ellipse class="c" cx="14.95" cy="18.5" rx="14.95" ry="18.5" transform="translate(112.72 318.25)"/><circle class="c" cx="4.83" cy="4.83" r="4.83" transform="translate(77.11 183.3)"/><circle class="d" cx="7.76" cy="7.76" r="7.76" transform="translate(211.46 226.7)"/><circle class="c" cx="5.49" cy="5.49" r="5.49" transform="translate(137.13 309.96)"/><path class="e" d="M286.92,268.27c1.62,8.05,10.74,21.82,25.13,23.2l3.69-12.25c-10.22-.93-20.54-3.85-25.38-13.36Z" transform="translate(-220.52 -71.95)"/><path class="f" d="M360.09,476.94l7.93,2.52c2.11-7.52,14.09-4.16,12,3.36-2.67,4.24-6.67,5.1-11.51,3.84l8.91,8.91,8.21,2.24,5.63-25.9-28-8Z" transform="translate(-220.52 -71.95)"/><path class="c" d="M312.59,369.43c-20.33,2.4-24.43-32.37-4.11-34.77,25.36-4.27,48.25-13.74,67.08-31.82A183.552,183.552,0,0,1,389.79,290l-2.48-8.07-31.5,24.14c-13.39,9-28.4,8.61-43.53,9.07-10.65.57-19.14,5.8-23.65,13.42C281.26,349.13,288.63,365.26,312.59,369.43Z" transform="translate(-220.52 -71.95)"/><path class="g" d="M489.91,349.85c38,6,68.92-5.57,89.92-41.28-12.23,21.51-21.73,47.11-29.15,75.84-11.47,44.74-38.66,74.83-76.45,95-22.67-.59-34.41-15.4-39.6-38.75.38-12.13-7.14-19.82-19.38-24.84,34.42-3.52,56.21-17.93,57-50.51C479.75,362.82,486.09,358.36,489.91,349.85Z" transform="translate(-220.52 -71.95)"/><path class="d" d="M410.65,354.29c5.4,12.65,13.11,23.55,25.11,29.28a9.74,9.74,0,0,1,2,16.4c-13.1,10.48-29.56,12.46-46.54,13.13,39.23,2.29,76.38,1.48,81-47.74C446.29,376.38,426.1,371.77,410.65,354.29Z" transform="translate(-220.52 -71.95)"/><path class="d" d="M411.64,415.18l-35-4.83c17.73,5.56,32.62,12.79,37,26.23a10.169,10.169,0,0,1,.39,2.37c.88,12.88-10.19,23.35-23.06,22.37-22-1.67-43.63-13.77-57.72-29.54,14,24.39,35.36,38.34,65.24,40.29,1.43.13,2.85.2,4.26.2h.09c13,0,24.52-5.71,31.84-27C436.92,428.36,427.3,419.68,411.64,415.18Z" transform="translate(-220.52 -71.95)"/><path class="c" d="M449.7,471.47l.76-.42C442,465.31,437.75,456.6,436,446.12c-7.68,17.58-20.93,28-43.85,25.79l-3.67,11.5c14.14,1,28,.31,41.43-3.54a5.12,5.12,0,0,1,3.86.37q14.74,8,34.61,4.28l5.85-5.06C463.74,480.57,455.94,477.28,449.7,471.47Z" transform="translate(-220.52 -71.95)"/><path class="c" d="M437.22,220.69c-12.41,1.79-22.32,7-27.22,19.22-4,3.49-7.85,3.88-11.58.5-1.45,12.27-8.5,23-21.76,32-5,6.25-10.26,6-15.77,0,1.21,27.4-31.29,28.83-32.51,1.44l-13.87,3.92-1.91,15.9c2.92.17,5.82.15,8.23-1.33,9.33,22.06,30.27,21.36,49.9,2.27l16.58-12.71c10.14-16,22.67-27.15,38.08-32.46C436.54,241.62,439.87,231.89,437.22,220.69Z" transform="translate(-220.52 -71.95)"/><path class="c" d="M514.57,329c23.78-16.38,48.19-28.88,74-33.14l8.61-10.52c.92-5.9-3.19-6.42-8.9-5.21C560.11,291.13,536,308.08,514.57,329Z" transform="translate(-220.52 -71.95)"/><path class="d" d="M507,292.92l-4.43.87v2c-.19,58.2-86.87,61.31-92.23,3.36q-.31-3.35-.45-6.82l-23.24,32,11.57,22.1,6.13-5.77a68.19,68.19,0,0,0,18.56,23.14l3.28-.18c22.84,13.42,46.44,4.15,70.48-18.58C507.79,326.51,510.38,309.24,507,292.92Z" transform="translate(-220.52 -71.95)"/><path class="c" d="M406.15,371.09c-3.5-7.54-3.54-14.63,2.43-20.93l-5.35-8.1C391.68,354.1,397.73,362.82,406.15,371.09Z" transform="translate(-220.52 -71.95)"/><path class="c" d="M401.53,384c-6.95-6.84-10.79-18-4.68-28l.7-7.26L389.74,339C377.56,360.21,384.78,374,401.53,384Z" transform="translate(-220.52 -71.95)"/><path class="h" d="M285.43,480.87c17.87,16.56,63.8-7,19.8-49.88,33.25,18.92,35,43.83,28.25,56.5S305.88,510.07,285.43,480.87Z" transform="translate(-220.52 -71.95)"/><path class="i" d="M244.09,453.41c9,18,20.9,13.25,12.65,0,14.18,16.38,25.2,29.25,25.2,29.25C268,487.66,250.2,473.41,244.09,453.41Z" transform="translate(-220.52 -71.95)"/><path class="g" d="M272.3,389c-15-29.81-13-74,7-96.68-6.67,20.06-17.51,70.82,30.16,107.1,13.67,14.12-1.42,29.82-1.42,29.82C293.49,419.24,277.8,396.85,272.3,389Z" transform="translate(-220.52 -71.95)"/><ellipse class="g" cx="8.33" cy="32.78" rx="8.33" ry="32.78" transform="translate(27.02 349.744) rotate(-34.52)"/><ellipse class="g" cx="5.83" cy="15.69" rx="5.83" ry="15.69" transform="matrix(0.976, -0.219, 0.219, 0.976, 15.118, 298.913)"/><path class="j" d="M438.36,180c3.35,1.86,5.38-8.56-3.12-15.75,16.75,6.63,16.58,21.13,14.85,34.88C443.59,187.56,438.36,180,438.36,180Z" transform="translate(-220.52 -71.95)"/><ellipse class="c" cx="12.302" cy="6.949" rx="12.302" ry="6.949" transform="translate(177.231 118.201) rotate(-15.005)"/><path class="j" d="M429.57,216.29c6.56,1.91,20.08-16.11,5.08-31.91,17,5.37,17.84,23.55,12,41.37C443,223.67,429.57,216.29,429.57,216.29Z" transform="translate(-220.52 -71.95)"/><ellipse class="k" cx="5.39" cy="7.5" rx="5.39" ry="7.5" transform="translate(57.54 203.82)"/><circle class="k" cx="2.94" cy="2.94" r="2.94" transform="translate(68.32 218.59)"/><path class="c" d="M301.33,369.92c22.41,16.74,44.81,8.3,44.81,8.3L390.95,376c-14.71-16.87-1.21-37.06-1.21-37.06l-4-12.6c-9.53,19.28-49.73,44.36-61.23,45.36S306.41,372.17,301.33,369.92Z" transform="translate(-220.52 -71.95)"/><path class="g" d="M333.25,453.41c4.59,8,11.87,1,3.41-12.1,17.83,16.6,26.62,22.61,26.62,22.61l-6.72,27.46-21.45-7.71C336.64,474.88,333.25,453.41,333.25,453.41Z" transform="translate(-220.52 -71.95)"/><circle class="l" cx="6.37" cy="6.37" r="6.37" transform="translate(148.12 402.95)"/><path class="b" d="M333.72,174.6c15.71-4.09,28.39-12.29,31.56-33.32-6.58,10.14-15.11,17.12-25.68,20.82C336,164.58,333.94,168.66,333.72,174.6Z" transform="translate(-220.52 -71.95)"/><path class="j" d="M368.42,167.92c13,3.14,19.81-3.57,24.57-13.63a63.77,63.77,0,0,1-8.12,27c-4.16-4.42-9.88-8.1-17.26-11Z" transform="translate(-220.52 -71.95)"/><path class="j" d="M368.42,153.34c-3.68,25.35-26.3,31-32,28.58,11,9,20.29,9.15,26.83-4.74C366.86,168.57,371.11,153.62,368.42,153.34Z" transform="translate(-220.52 -71.95)"/><path class="i" d="M354.78,187.16c12.13,2.56,20.5,8.47,23,19.62,1.05,11.43-4.51,14.53-12.47,14.63,7,2.5,2.9,13.91-4.09,11.41,16.5,2.39,28.3-2,28.74-22.65-2.48-5.2-5.06-17.51-.69-24.76a53,53,0,0,0-21.63-15.08,30.66,30.66,0,0,1-12.86,16.83Z" transform="translate(-220.52 -71.95)"/><path class="g" d="M356.72,195h0a5.66,5.66,0,0,1,2.35,6.53c-1.89,5.61-2.26,10.47-.37,14.24a6.19,6.19,0,0,1-.8,6.94h0a6.09,6.09,0,0,1-9.89-1.12c-4.34-7.93-4.26-16.18.82-24.79a5.63,5.63,0,0,1,7.89-1.8Z" transform="translate(-220.52 -71.95)"/></g><g transform="translate(0 -0.24)"><path class="b" d="M683,162.65a3,3,0,0,1-2.12-5.12l12.34-12.34a3,3,0,0,1,4.24,4.24l-12.34,12.34a3,3,0,0,1-2.12.88Z" transform="translate(-220.52 -71.95)"/><path class="b" d="M489.91,355.78a3,3,0,0,1-2.12-5.12L604.87,233.59a3,3,0,0,1,4.24,4.24L492,354.9a3,3,0,0,1-2.09.88Z" transform="translate(-220.52 -71.95)"/><path class="b" d="M614.06,231.64a3,3,0,0,1-2.12-5.12l54.83-54.84a3,3,0,0,1,4.24,4.24l-54.83,54.84a3,3,0,0,1-2.12.88Z" transform="translate(-220.52 -71.95)"/><path class="b" d="M448.88,220a3,3,0,0,1-2.12-5.12l76.1-76.1a3,3,0,0,1,4.24,4.24L451,219.12a3,3,0,0,1-2.12.88Z" transform="translate(-220.52 -71.95)"/><path class="b" d="M539.13,129.76a3,3,0,0,1-2.12-5.12l51.8-51.81A3,3,0,0,1,593,77.07l-51.8,51.81A3,3,0,0,1,539.13,129.76Z" transform="translate(-220.52 -71.95)"/><path class="b" d="M502.69,214.18a3,3,0,0,1-2.12-5.12L600.8,108.83a3,3,0,0,1,4.24,4.24L504.81,213.3a3,3,0,0,1-2.12.88Z" transform="translate(-220.52 -71.95)"/><path class="b" d="M478.32,238.55a3,3,0,0,1-2.12-5.12l17.3-17.3a3,3,0,0,1,4.24,4.24l-17.3,17.3a3,3,0,0,1-2.12.88Z" transform="translate(-220.52 -71.95)"/><path class="b" d="M559.39,196.22a3,3,0,0,1-2.12-5.12l79.89-79.88a3,3,0,0,1,4.24,4.24l-79.89,79.88a3,3,0,0,1-2.12.88Z" transform="translate(-220.52 -71.95)"/><path class="b" d="M646.35,109.26a3,3,0,0,1-2.12-5.12L671.67,76.7a3,3,0,0,1,4.24,4.24l-27.44,27.44a3,3,0,0,1-2.12.88Z" transform="translate(-220.52 -71.95)"/><path class="b" d="M505,250.64a3,3,0,0,1-2.12-5.12l40.27-40.28a3,3,0,1,1,4.24,4.24l-40.27,40.28a3,3,0,0,1-2.12.88Z" transform="translate(-220.52 -71.95)"/><path class="b" d="M520.51,287.33a3,3,0,0,1-2.12-5.12L615,185.61a3,3,0,0,1,4.24,4.24l-96.61,96.59A3,3,0,0,1,520.51,287.33Z" transform="translate(-220.52 -71.95)"/><path class="b" d="M624.18,183.66a3,3,0,0,1-2.12-5.12l39-39a3,3,0,1,1,4.24,4.24l-39,39A3,3,0,0,1,624.18,183.66Z" transform="translate(-220.52 -71.95)"/><path class="b" d="M532.07,136.83a3,3,0,0,1,0-6h0a3,3,0,0,1,0,6Z" transform="translate(-220.52 -71.95)"/><path class="b" d="M676,169.73a3,3,0,1,1,0-6h0a3,3,0,0,1,0,6Z" transform="translate(-220.52 -71.95)"/><path class="b" d="M552.34,203.29a3,3,0,1,1,0-6h0a3,3,0,0,1,0,6Z" transform="translate(-220.52 -71.95)"/><path class="b" d="M459.51,322.51a9.65,9.65,0,1,0-9.65-9.65,9.65,9.65,0,0,0,9.65,9.65Zm0-16.29a6.65,6.65,0,1,1-6.65,6.64,6.65,6.65,0,0,1,6.65-6.64Z" transform="translate(-220.52 -71.95)"/><path class="b" d="M470.46,286.86a10.69,10.69,0,1,0-10.69-10.69A10.69,10.69,0,0,0,470.46,286.86Zm0-18.38a7.69,7.69,0,1,1-7.69,7.69,7.69,7.69,0,0,1,7.69-7.69Z" transform="translate(-220.52 -71.95)"/><path class="b" d="M434.65,265.83a6.59,6.59,0,1,0-6.59-6.59,6.59,6.59,0,0,0,6.59,6.59Zm0-10.18a3.59,3.59,0,1,1-3.59,3.59A3.59,3.59,0,0,1,434.65,255.65Z" transform="translate(-220.52 -71.95)"/><path class="b" d="M374,472a9.22,9.22,0,1,0,9.22,9.22A9.22,9.22,0,0,0,374,472Zm0,12.45a1.338,1.338,0,1,1,0,.05Z" transform="translate(-220.52 -71.95)"/><path class="b" d="M312.59,366.43a22.69,22.69,0,0,1-19.65-34,3,3,0,0,0-5.19-3,28.69,28.69,0,0,0,24.84,43,3,3,0,0,0,0-6Z" transform="translate(-220.52 -71.95)"/><path class="b" d="M598.83,279.4a7.59,7.59,0,0,0-8.79-3c-22.26,7.31-44.81,19.85-83.26,55.89a65.51,65.51,0,0,0,3.36-35.59,6,6,0,0,0-2.65-3.95,5.92,5.92,0,0,0-4.6-.79c-5.21,1.26-8.31-1.25-9.4-3.79s-.76-6.52,3.75-9.42a5.93,5.93,0,0,0,2.6-3.88,6,6,0,0,0-1-4.64A65.55,65.55,0,0,0,481.9,254a6,6,0,0,0-7.76,1,3.33,3.33,0,0,1-5.69-2.65,6,6,0,0,0-4.25-6.55,65.56,65.56,0,0,0-18.49-2.65,66.553,66.553,0,0,0-10.15.79,29.67,29.67,0,0,0,6.09-17.47l.83.33a5.985,5.985,0,0,0,8.08-3.95,65.511,65.511,0,0,0,2.38-13.27v-.05c4.39-26.1-1-42.05-17.35-51.73a6.23,6.23,0,0,0-9.37,4.57,33,33,0,0,1-4.84,13.45c-9.56-.25-20.3,2.37-30.7,7.76q-1.06-1.37-2.22-2.67c4.7-7,7-16.56,6.73-28.44a4.94,4.94,0,0,0-3.28-4.58,5,5,0,0,0-5.51,1.44A38.94,38.94,0,0,1,371.91,160a76.619,76.619,0,0,0-1.21-19,5,5,0,0,0-9.19-1.73c-5.27,8.55-11.89,14.55-20.24,18.35a18.18,18.18,0,0,0-4.34,2.78c-8.06.36-22.46,1.82-35.78,7.42a134.881,134.881,0,0,0-27.94,16.11,26.189,26.189,0,0,0-2.69,2.27,27.41,27.41,0,0,0-8.65,19.8,22.45,22.45,0,0,0,5.82,15.57,23,23,0,0,0,13.46,6.6,32.609,32.609,0,0,0-4,13.75A36.86,36.86,0,0,0,279,255.85a160.67,160.67,0,0,0-48,66.74,158.591,158.591,0,0,0-8.25,30.31c-.46,2.68-.86,5.47-1.17,8.26a161.882,161.882,0,0,0-1.06,18.52c0,.75,0,1.51,0,2.26a159.42,159.42,0,0,0,28.44,89,37.74,37.74,0,0,0,35.47,16.56,146.729,146.729,0,0,0,14.21,10.74,26,26,0,0,0,14.4,4.36,26.3,26.3,0,0,0,10.73-2.3,25.89,25.89,0,0,0,13.37-13.57,152.277,152.277,0,0,0,24.36,9.34l-.12.58a9.224,9.224,0,0,0,18.09,3.62v-.2A155.189,155.189,0,0,0,403.92,502a153,153,0,0,0,128.25-69.25l.07-.11c14.62-24.53,21.08-45.87,27.32-66.51,7.86-26,15.28-50.51,38.66-77.45A7.61,7.61,0,0,0,598.83,279.4Zm-93.61,29.19A59.231,59.231,0,0,1,502,328a12.73,12.73,0,1,1,3.22-21c-.02.5,0,1,0,1.58ZM462.5,251.53A9.33,9.33,0,0,0,478.58,259,61.22,61.22,0,0,1,494,273.67c-7.16,4.6-8.18,11.76-6,16.82s8.06,9.27,16.26,7.26c.32,1.74.57,3.51.73,5.3a15.71,15.71,0,1,0-4.39,28.59,59.821,59.821,0,0,1-17.83,23.48A23,23,0,0,0,456,327.9a4.52,4.52,0,0,0-3.58,3.55,1,1,0,0,1-1.16.76l-1.85-.38a4.6,4.6,0,0,0-3.87,1,23,23,0,0,0-.15,35.31c-9-.06-20.91-3.09-31.27-15.43a3,3,0,0,0-.5-.6,60.848,60.848,0,0,1-4.05-5.62A22.25,22.25,0,0,0,404,305.56c2.82-3.82,5.77-7.6,8.92-11.24a3,3,0,0,0-1.38-4.83,31.841,31.841,0,0,0-9.87-1.42A40.421,40.421,0,0,0,406,277.15a3,3,0,0,0-3.4-3.63,52.823,52.823,0,0,0-5.95,1.32,59.08,59.08,0,0,1,23.71-20.16l.21-.07c.87-.36,1.7-.74,2.52-1.13a59.73,59.73,0,0,1,22.61-4.41,57.42,57.42,0,0,1,16.8,2.46ZM412.79,412.16a3,3,0,0,0-.36,0,118.341,118.341,0,0,1-34.95-4.71,3,3,0,1,0-1.66,5.77,124.64,124.64,0,0,0,34.23,4.94h2.09c11.56,2.89,18.52,10,19.41,19.4h0a1.783,1.783,0,0,0,.06.56,23.591,23.591,0,0,1-.1,4.18c-1.41,12.64-13.2,26.26-32.26,26.59a38.61,38.61,0,0,1-7.32-.63c-13.7-2.34-22.9-5.61-31.78-11.28a67.7,67.7,0,0,1-19.37-18.27c-12.72-18.29-9.9-33.66-8.09-39.42,5.34-17,29.77-24.36,59.52-17.93,7.66,6.47,18.64,10.62,32,11.81h.27a3,3,0,1,0,.26-6c-18.37-1.64-31.64-9.25-36.43-20.88a24.391,24.391,0,0,1-1.69-6.65,51.336,51.336,0,0,0,8.16,1,24.84,24.84,0,0,0,9.65,12.88,3,3,0,1,0,3.52-4.86,19.78,19.78,0,0,1-6.89-8.28,38.309,38.309,0,0,0,9.8-2.47c9.5,10.53,21.51,16.18,34.89,16.18h0a65.16,65.16,0,0,0,23.31-4.3c-1,12.94-6.42,23.18-16.12,30.49C443,407.72,428.74,411.77,412.79,412.16ZM378,493.75h-.41q-5.86-1.06-11.61-2.59a3,3,0,0,0-.34-.1h-.11c-1.8-.49-3.59-1-5.36-1.57l5.52-22.55a92.192,92.192,0,0,0,22.09,6.76l-5.11,20.88C381.06,494.27,379.51,494,378,493.75Zm18.78-198.87a19.45,19.45,0,0,1,8.42-.64q-2,2.51-4,5.07a25.189,25.189,0,0,1-4.46-4.43Zm1.94-14.38a34.26,34.26,0,0,1-5.19,8.9,35.447,35.447,0,0,1-2.08-6.21,44.569,44.569,0,0,1,7.22-2.69Zm3.38,27.72a19.23,19.23,0,0,1,6,35.65c-.41-.7-.82-1.42-1.22-2.17a5,5,0,0,0-8.41-.62q-.67.91-1.24,1.87a59.3,59.3,0,0,1-3.91-6.25l-.07-.14a58.843,58.843,0,0,1-4.09-9.69q2.44-3.49,4.88-7.06c2.55-3.81,5.23-7.72,8.01-11.59Zm-2.18,46.28a16.86,16.86,0,0,1,2.45-8.51,71.127,71.127,0,0,0,4.51,7,31.669,31.669,0,0,1-7.01,1.51Zm-5.37-5.09a22.169,22.169,0,0,0-.64,5.18,49.751,49.751,0,0,1-7.17-1,26.419,26.419,0,0,1,3.59-10.08,66.256,66.256,0,0,0,4.17,5.9Zm55.84,18.48a20,20,0,0,1-2.86-32.8,1.58,1.58,0,0,1,1.35-.33l1.85.38a4,4,0,0,0,4.71-3.08,1.55,1.55,0,0,1,1.19-1.22,20,20,0,0,1,22.14,27.23,59.13,59.13,0,0,1-28.43,9.82ZM432.2,163.06a.24.24,0,0,1,.13-.2.23.23,0,0,1,.23,0c9.9,5.84,15,14,15.8,26.32a28,28,0,0,0-8-8A32.62,32.62,0,0,0,428,176.37a39.329,39.329,0,0,0,4.2-13.31Zm-85.94-1.2a49.284,49.284,0,0,0,6.39-4,10.43,10.43,0,0,0,5.75,6.16,9.82,9.82,0,0,0,3.86.8,9.48,9.48,0,0,0,3.16-.55,33.861,33.861,0,0,1-3.5,10.36,12,12,0,0,1-12.76-1.92,10.52,10.52,0,0,1-2.9-10.86Zm14.7,24a34.86,34.86,0,0,0,8-12.1,47.42,47.42,0,0,1,17.16,13.57q-3.9,6-.94,15.53l.06.17c3.71,9.8,2.67,17.51-3.09,22.91a19.86,19.86,0,0,1-16.33,4.86c-8.19-1.09-14.3-5.87-16.77-13.11-3.19-9.37.47-20.59,9.8-30A17.577,17.577,0,0,0,361,185.8Zm28.27-30.75a55.639,55.639,0,0,1-1.32,11.8,6.68,6.68,0,0,1-5-.71,5.37,5.37,0,0,1-2.64-3.75,45.878,45.878,0,0,0,8.95-7.39Zm-11.6,8.88a8.29,8.29,0,0,0,3.79,4.79,9.67,9.67,0,0,0,4.91,1.36h.69a30.424,30.424,0,0,1-2.91,6.47,58.44,58.44,0,0,0-13.39-8.6c.09-.4.19-.8.27-1.2a42.61,42.61,0,0,0,6.64-2.88Zm-12.42-19.32a66.42,66.42,0,0,1,.67,16.15,6.6,6.6,0,0,1-6.31.54,7.58,7.58,0,0,1-4.39-5.41,53.849,53.849,0,0,0,10.03-11.34ZM342.9,163.6a13.31,13.31,0,0,0,4.22,11.4,14.13,14.13,0,0,0,9.68,3.73,15.931,15.931,0,0,0,2.65-.23,29.18,29.18,0,0,1-2.7,3.07,11.87,11.87,0,0,1-10.29,3.26,11.35,11.35,0,0,1-8.41-6q-.21-.4-.4-.82a11.4,11.4,0,0,1,5.24-14.47ZM290.36,284.77a1.5,1.5,0,0,0,1.5-1.5,5.78,5.78,0,0,1,5-5.71,32.921,32.921,0,0,0,5.49,2.35,5.77,5.77,0,0,1-9.17,7,1.5,1.5,0,1,0-2.33,1.89,8.77,8.77,0,0,0,15.25-7.92,31.219,31.219,0,0,0,6,.55,14.74,14.74,0,0,1,.12,1.85,14.54,14.54,0,1,1-23.31-11.58,36.138,36.138,0,0,0,4.67,3.83,8.78,8.78,0,0,0-4.67,7.75,1.5,1.5,0,0,0,1.45,1.49Zm31,210.06A20.07,20.07,0,0,1,302,493.25a143.21,143.21,0,0,1-41.93-43.12c-2.12-3.34-4.13-6.82-6-10.35a3,3,0,1,0-5.3,2.8c1.94,3.66,4,7.28,6.23,10.75a152.293,152.293,0,0,0,23,28.27,32.57,32.57,0,0,1-24-14.09,153.44,153.44,0,0,1-27.37-85.66v-2.18a155.8,155.8,0,0,1,1-17.84c.31-2.73.68-5.32,1.13-7.94a152.472,152.472,0,0,1,7.93-29.18,154.65,154.65,0,0,1,44.83-63.09,39.619,39.619,0,0,0,3.48,5.52,20.44,20.44,0,0,0-5.67,25.2,85.07,85.07,0,0,0,26.9,108.25,13.93,13.93,0,0,1,5.7,13.71,26,26,0,0,1-4.25,10.7c-13-11.46-23.76-25-29.81-37.83a3,3,0,1,0-5.43,2.55C279.17,404,291.34,419,306,431.44h0c3.07,2.6,6.25,5.09,9.51,7.43,12.52,9,19.34,23.65,17.77,38.32q-.12,1.17-.29,2.31a19.85,19.85,0,0,1-11.64,15.33ZM319,434q-3.44-2.46-6.74-5.14a31.62,31.62,0,0,0,5.49-13.52,20,20,0,0,0-8.16-19.64,79.1,79.1,0,0,1-26.37-97.82,20.505,20.505,0,0,0,34.79-17.04,37.61,37.61,0,0,0,7.88-2.42c.29,6.83,3.23,12.34,8.44,15.54a19,19,0,0,0,9.92,2.74,20.26,20.26,0,0,0,11.63-3.7,18.84,18.84,0,0,0,8-14.27,12.36,12.36,0,0,0,5.61,1.28,11.48,11.48,0,0,0,9.8-6.11,3,3,0,1,0-5.2-3,5.49,5.49,0,0,1-4.7,3.1,7.73,7.73,0,0,1-6.44-3.94,3,3,0,0,0-5.48,2.2c1.45,6.91-.33,12.53-5,15.83a14,14,0,0,1-15,.73c-4.45-2.73-6.35-8.05-5.34-15a3,3,0,0,0-4.47-3c-10.14,5.88-20.64,6.07-29.55.54a30.51,30.51,0,0,1-6.47-5.42l-.09-.1a32.57,32.57,0,0,1-8.37-23.53c.71-10.77,7.36-19.52,18.73-24.65a3,3,0,0,0-2.47-5.47,41.05,41.05,0,0,0-14.33,10.35c-5.41-.31-17.19-2.6-17.22-16.55a21.41,21.41,0,0,1,6.8-15.46,20.411,20.411,0,0,1,2.1-1.78,128.82,128.82,0,0,1,26.69-15.4,96.747,96.747,0,0,1,28.78-6.63,16.78,16.78,0,0,0-.07,13.71q.25.57.55,1.13a17.29,17.29,0,0,0,12.79,9.14,18,18,0,0,0,2.82.22h0c-6.21,9.34-8.12,19.58-5,28.63,3.18,9.33,11.27,15.74,21.65,17.12a28.529,28.529,0,0,0,3.78.25,25.35,25.35,0,0,0,17.45-6.68c5.29-5,10.39-14.06,4.64-29.32-2-6.58-.58-9.54.87-11.19,11.95-6.61,22.64-8.57,31.08-8H423a29.49,29.49,0,0,1,14,4.38c8.37,5.57,10.47,13.73,10.14,21.72a3.381,3.381,0,0,1-.09.54,3,3,0,0,0,0,.9,63,63,0,0,1-2.25,11.84c-1.81-.75-3.53-1.39-5.12-1.9-17.12-7.26-34-3.64-45,9.68a10.53,10.53,0,0,0-2.3,8.35A10.77,10.77,0,0,0,403,246.41a10.51,10.51,0,0,0,9.5-5.81c5.15-10.36,15.31-15.78,23.22-15.73-.09,10.62-5,18.21-15,23.11a65.19,65.19,0,0,0-33.14,30.43c-7.42,3.73-13.3,8.78-19.48,14.12-12.82,11.08-26.08,22.53-55.49,22.53a3,3,0,0,0,0,6c31.64,0,46.4-12.75,59.41-24a116.527,116.527,0,0,1,14-10.9c2.13,7.75,5.9,13.56,11.63,18-3,4.1-5.81,8.23-8.59,12.29-1.9,2.77-3.79,5.53-5.7,8.23-13.83,19.64-28.77,37.56-59.15,41.13a3.005,3.005,0,1,0,.35,6h.35c30.23-3.55,46.59-20.64,60-38.93q1,2.46,2.15,4.82a32.44,32.44,0,0,0-6.51,17.86,3,3,0,0,0,0,.45,30.52,30.52,0,0,0,2.27,12.66,31.65,31.65,0,0,0,3,5.5c-29.35-4.19-52.91,4.9-58.71,23.4-2.07,6.6-5.35,24.17,8.89,44.64a73.69,73.69,0,0,0,21.07,19.9c1.07.69,2.15,1.34,3.24,2l-5.75,23.48a147.521,147.521,0,0,1-15.57-6.61,2.7,2.7,0,0,1,.09-.48q.18-1.26.32-2.54A48.634,48.634,0,0,0,319,434Zm80.23-201.22c.66-.79,1.33-1.51,2-2.2l6.51,6.1c-.22.41-.44.82-.65,1.24a4.55,4.55,0,0,1-4.12,2.49,4.77,4.77,0,0,1-4.72-4,4.47,4.47,0,0,1,.99-3.62Zm10.1,1.27-5.91-5.53a28.931,28.931,0,0,1,7.53-4.68l2.89,4.68a35.338,35.338,0,0,0-4.5,5.54Zm6.76-7.59-2.26-3.66a29.609,29.609,0,0,1,8.47-1.21h1.38a34,34,0,0,0-7.58,4.87ZM373.62,499.09a3.226,3.226,0,0,1-6.33-1.25v-.2q3.13.77,6.3,1.39Zm15-3.87,5-20.63a42.552,42.552,0,0,0,5,.33h.64c17.8-.31,30.24-10.62,35.49-22.43,4.09,11.21,11.51,20.82,20.57,25.9a31.521,31.521,0,0,0,10.93,3.8A147.28,147.28,0,0,1,403.92,496a150.6,150.6,0,0,1-15.291-.779ZM593.69,284.76c-24.22,27.9-31.83,53-39.88,79.64-6.13,20.28-12.48,41.24-26.7,65.12a147.59,147.59,0,0,1-44.84,44h0c-8,4-16.26,3.92-23.89-.36-11.23-6.31-19.6-20.79-20.82-36v-.11a26.19,26.19,0,0,0-12.42-19.9c12.29-1.8,23.2-5.84,31.42-12,11.78-8.87,18.19-22,18.66-38a65.831,65.831,0,0,0,16.53-11.89,3,3,0,0,0,.34-.27c36.8-36.8,66.35-61.82,99.88-72.84a1.58,1.58,0,0,1,1.92.66A1.6,1.6,0,0,1,593.69,284.76Z" transform="translate(-220.52 -71.95)"/><path class="b" d="M429.58,321.68a3,3,0,0,0,0-6h0a3,3,0,0,0,0,6Z" transform="translate(-220.52 -71.95)"/><path class="b" d="M412.92,268.68h0a1.537,1.537,0,1,1-.01,0Z" transform="translate(-220.52 -71.95)"/><path class="b" d="M426.17,348a1.5,1.5,0,0,0,0-3h0a1.5,1.5,0,0,0,0,3Z" transform="translate(-220.52 -71.95)"/><path class="b" d="M476.92,297.93h0a1.537,1.537,0,1,1-.01,0Z" transform="translate(-220.52 -71.95)"/><path class="b" d="M488.71,343.43a3,3,0,1,0,0-6h0a3,3,0,0,0,0,6Z" transform="translate(-220.52 -71.95)"/><path class="b" d="M274.8,380.31a3,3,0,0,0-3-3h0a3,3,0,1,0,3,3Z" transform="translate(-220.52 -71.95)"/><path class="b" d="M426.18,192.53a9.65,9.65,0,0,1,3.86,2,3,3,0,1,0,4.09-4.39,15.41,15.41,0,0,0-6.22-3.35,3,3,0,0,0-1.74,5.74Z" transform="translate(-220.52 -71.95)"/><path class="b" d="M367.91,224.41a13.63,13.63,0,0,0,12.62-18.76,3,3,0,0,0-2.78-1.87H358.06a3,3,0,0,0-2.77,1.85,13.38,13.38,0,0,0-1,5.15,13.65,13.65,0,0,0,13.62,13.63Zm-7.57-14.63h8.2a4.77,4.77,0,0,0,3.55,7.37,7.56,7.56,0,0,1-4.18,1.26,7.64,7.64,0,0,1-7.63-7.63,7.545,7.545,0,0,1,.06-.99Z" transform="translate(-220.52 -71.95)"/></g></g></g><path class="m" d="M437.157,919.481a6,6,0,0,1-3.179-7.868l65.657-154.679a456.62,456.62,0,0,1-71.358,5.7c-79.173,0-178.955-21.647-263.418-107.465-38.232-38.845-62.914-79.135-78.2-118.255L13.415,687.091a6,6,0,1,1-10.786-5.26L80.987,521.175C38.357,392.356,93.336,280.248,93.336,280.248L205.19,0H717.517V639.61c-33.214,52.24-149.4,100.6-149.4,100.6s-6.73,2.548-18.734,5.925L489.6,886.955a8.5,8.5,0,1,1-15.648-6.642l54.737-128.953c-4.649,1.051-9.651,2.1-14.977,3.117L445.024,916.3a6,6,0,0,1-7.867,3.179Z" transform="translate(-5380.178 -4002.285)"/><rect class="n" width="272" height="12" rx="6" transform="translate(-5245.391 -3739.144) rotate(-68)"/><rect class="n" width="238" height="12" rx="6" transform="translate(-5372.544 -3392.149) rotate(-67)"/><rect class="n" width="242" height="17" rx="8.5" transform="translate(-4862.544 -3114.149) rotate(-67)"/><g transform="translate(705.18 -3369.428) rotate(-7)"><g transform="translate(-5804.001 -1080.732) rotate(-9)"><g transform="translate(2.403 54.494)"><path class="o" d="M462.879,468.094a119.308,119.308,0,0,1-77.969,17.021l5.139-20.957h0a34.367,34.367,0,0,0,6.231.529c17.83-.308,28.892-14.45,27.887-26.967C425.994,458.361,443.6,477.741,462.879,468.094Z" transform="translate(-257.333 -203.907)"/><path class="p" d="M431.769,160.195c12.018,7.1,15.948,18.433,12.588,38.364h0c.688-11.232-4.191-16.745-8.966-19.916A25.607,25.607,0,0,0,423,174.8h0a28.668,28.668,0,0,0,4.942-12.73,2.547,2.547,0,0,1,3.827-1.877Z" transform="translate(-265.306 -145.201)"/><path class="q" d="M420.95,251c-.49.237-.988.457-1.51.67C419.938,251.426,420.444,251.205,420.95,251Z" transform="translate(-264.561 -164.46)"/><path class="r" d="M407.523,220.246a25.375,25.375,0,0,0-8.429,5.356,30.349,30.349,0,0,0-2.514,2.674,6.033,6.033,0,0,0,1.455,8.921,6.131,6.131,0,0,0,3.329.97,5.972,5.972,0,0,0,5.385-3.273c.245-.489.5-.962.791-1.428a25.754,25.754,0,0,1,4.586-5.805c5.219-4.937,12-7.217,17.442-6.31C422.72,218.432,414.813,217.453,407.523,220.246Z" transform="translate(-259.49 -157.612)"/><path class="p" d="M393.443,288.985c3.756-1.53,8.7-1.159,12.453,0-2.483,2.863-4.8,5.813-7.005,8.787l-.7-.513c-6.136-4.172-8.9-10-10.184-16.564l-.111-.213q.735-.394,1.494-.789a38.093,38.093,0,0,1,10.524-3.273A29.543,29.543,0,0,1,393.443,288.985Z" transform="translate(-257.959 -169.83)"/><path class="p" d="M401.337,344.673c-.522-.86-1.028-1.743-1.51-2.634a1.583,1.583,0,0,0-2.649-.205,16.471,16.471,0,0,0-2.372,4.63A49.584,49.584,0,0,1,389.058,338a23.157,23.157,0,0,0-5.6,14.126,40.323,40.323,0,0,0,10.8,1.4,28.063,28.063,0,0,0,11.481-2.666,49.8,49.8,0,0,1-4.4-6.184Z" transform="translate(-257.029 -182.84)"/><path class="s" d="M372.7,475.05a4.906,4.906,0,1,1-4.918,4.906,4.912,4.912,0,0,1,4.918-4.906Z" transform="translate(-253.747 -211.793)"/><path class="s" d="M374.477,496.059l-.5,2.366a4.921,4.921,0,0,1-9.654-1.909l.522-2.627Q369.583,495.184,374.477,496.059Z" transform="translate(-253.004 -215.773)"/><path class="t" d="M287.381,267.84a23.881,23.881,0,0,0,19.878,8.234,13.863,13.863,0,1,1-19.878-8.234Z" transform="translate(-235.393 -168.017)"/><path class="o" d="M297.647,398.505c-2.459-1.751-4.894-3.652-7.274-5.663a21.557,21.557,0,0,0,5.329-11.381,13.3,13.3,0,0,0-5.479-13.156,64.657,64.657,0,0,1-19.957-83.456,13.817,13.817,0,0,1,5.282-19.332,28.691,28.691,0,0,1-5.353-8.676,124.528,124.528,0,0,0-37.589,50.29q-.49,1.2-.949,2.414a122.09,122.09,0,0,0-6.4,23.465c-.364,2.114-.664,4.236-.909,6.389a124.38,124.38,0,0,0-.791,14.339q0,.876,0,1.751a123.332,123.332,0,0,0,22.068,68.873,28.081,28.081,0,0,0,26.693,11.973h.174a112.808,112.808,0,0,0,11.773,8.96,18.319,18.319,0,0,0,27.753-10.4,17.144,17.144,0,0,0,.443-2.043c.095-.631.174-1.27.245-1.917A35.521,35.521,0,0,0,297.647,398.505Z" transform="translate(-223.559 -165.694)"/><path class="t" d="M384.113,469.4l-5.139,20.957q-3.084-.379-6.1-.923-4.894-.876-9.638-2.145-3.384-.9-6.681-2h0l5.59-22.779C368.339,465.791,375.036,467.842,384.113,469.4Zm-8.864,7.887a4.888,4.888,0,1,0,0,.024Z" transform="translate(-251.397 -209.144)"/><path class="u" d="M502.822,306.837v.386a49.055,49.055,0,0,1-2.372,15.128h0a11.234,11.234,0,1,1-11.31-19.236A11.268,11.268,0,0,1,502.822,306.837Z" transform="translate(-277.745 -175.268)"/><path class="u" d="M472.527,343.483a16.892,16.892,0,0,1-2.372,11.4,46.8,46.8,0,0,1-4.958,2.674,48.791,48.791,0,0,1-15.355,4.33,16.94,16.94,0,0,1-4.966-28.986,2.471,2.471,0,0,1,2.064-.513l1.463.3a1.953,1.953,0,0,0,2.317-1.507,2.369,2.369,0,0,1,1.89-1.885,16.987,16.987,0,0,1,19.909,14.2Z" transform="translate(-268.594 -180.94)"/><path class="u" d="M468.536,267a7.249,7.249,0,1,1-7.266,7.249A7.257,7.257,0,0,1,468.536,267Z" transform="translate(-273.316 -167.84)"/><path class="u" d="M457.806,304.72a6.428,6.428,0,1,1-6.436,6.428A6.436,6.436,0,0,1,457.806,304.72Z" transform="translate(-271.244 -175.809)"/><path class="u" d="M433.595,254.15a4.012,4.012,0,1,1-2.848,1.174A4.02,4.02,0,0,1,433.595,254.15Z" transform="translate(-266.681 -165.125)"/><path class="u" d="M412.274,322.741a16.359,16.359,0,0,1-10.445,15.246h0c-.522-.86-1.028-1.743-1.51-2.634a1.583,1.583,0,0,0-2.649-.205,16.478,16.478,0,0,0-2.372,4.63,49.592,49.592,0,0,1-5.756-8.455,48.714,48.714,0,0,1-3.772-9.157c3.621-5.127,7.171-10.474,10.983-15.775A16.376,16.376,0,0,1,412.274,322.741Z" transform="translate(-257.513 -176.162)"/><path class="v" d="M407.064,331.436a49.812,49.812,0,0,1-4.4-6.176h0a16.351,16.351,0,0,0-5.076-31.55c.554-.789,1.115-1.538,1.692-2.3,2.206-2.974,4.523-5.923,7.005-8.787-3.764-1.159-8.7-1.53-12.453,0A29.544,29.544,0,0,0,400.3,270.1a38.092,38.092,0,0,0-10.524,3.273,49.521,49.521,0,0,1,23.444-22.708c.522-.213,1.02-.434,1.51-.67a49.721,49.721,0,0,1,35.454-1.183,5.034,5.034,0,1,0,9.117,4.243,49.6,49.6,0,0,1,16.28,15.7c-12.287,5.245-5.827,20.3,6.46,15.057a48.564,48.564,0,0,1,1.376,11.216,11.237,11.237,0,1,0-2.372,15.514,49.356,49.356,0,0,1-21.135,26.857,16.957,16.957,0,0,0-17.545-25.587,2.369,2.369,0,0,0-1.89,1.885,1.953,1.953,0,0,1-2.317,1.506l-1.463-.3a2.472,2.472,0,0,0-2.064.513A16.94,16.94,0,0,0,439.6,344.41a48.613,48.613,0,0,1-5.6.315h0C422.72,344.686,413.738,339.4,407.064,331.436Zm53.766-61.616a3.008,3.008,0,1,0,.016,0Zm-9.488,28.947a2.665,2.665,0,1,0,.016,0Zm-22.076-42.3a1.666,1.666,0,1,0,.016,0Z" transform="translate(-258.352 -163.427)"/><path class="w" d="M360.323,338.11h0a23.157,23.157,0,0,1,5.606-14.118,48.716,48.716,0,0,1-3.772-9.157c-12.959,18.354-26.939,33.955-57.854,33.955a20.261,20.261,0,1,1,0-40.521c34.7,0,42.27-19.612,59.538-28.761a23.605,23.605,0,0,1-8.887-7.225c-3.234,5.584-9.884,4.2-12.88-.592,4.578,21.69-27.974,24.049-24.677,1.38a27.894,27.894,0,0,1-11.631,3.833,13.866,13.866,0,0,1-25.16,11.09,64.658,64.658,0,0,0,19.957,83.456,13.3,13.3,0,0,1,5.479,13.156,21.557,21.557,0,0,1-5.329,11.381c2.372,2.011,4.815,3.944,7.274,5.663,10.405,7.43,16.391,19.718,15.023,32.4-.071.647-.15,1.286-.245,1.917a17.14,17.14,0,0,1-.427,2.051h.071a117.332,117.332,0,0,0,16.6,6.949h0l5.59-22.779c-1.36-.726-2.7-1.5-4.025-2.366a56.082,56.082,0,0,1-15.988-15.049c-9.393-13.479-8.982-25.926-6.713-33.127,4.357-13.858,23.72-21.548,50.359-15.641h0A22.621,22.621,0,0,1,360.323,338.11Z" transform="translate(-233.9 -168.831)"/><path class="w" d="M377.056,298.357l.7.513c-.577.789-1.139,1.53-1.692,2.3-3.811,5.277-7.361,10.624-10.983,15.775C352.118,335.3,338.138,350.9,307.223,350.9a20.261,20.261,0,1,1,0-40.521c34.7,0,42.27-19.612,59.538-28.761l.111.213C368.161,288.356,370.92,294.185,377.056,298.357Z" transform="translate(-236.82 -170.929)"/><path class="w" d="M442.058,362.9h0c0,27.551-22.234,38.877-47.1,39.39,11.37,2.776,16.715,9.97,17.34,17.8.854,10.68-7.116,22.55-20.5,25.989a32.041,32.041,0,0,1-7.385.978,34.377,34.377,0,0,1-6.231-.528h0a86.091,86.091,0,0,1-14.232-3.518,55,55,0,0,1-7.741-3.376c-1.36-.726-2.7-1.5-4.025-2.366a56.081,56.081,0,0,1-15.988-15.049c-9.393-13.48-8.982-25.926-6.713-33.127,4.357-13.858,23.72-21.548,50.359-15.641h0a22.506,22.506,0,0,1-7.97-17.881h0a40.322,40.322,0,0,0,10.8,1.4A28.063,28.063,0,0,0,394.15,354.3c6.673,7.966,15.656,13.251,26.939,13.251h0a49.48,49.48,0,0,0,20.953-4.646Z" transform="translate(-245.446 -186.283)"/><path class="w" d="M557.622,285.091c-30.441,34.925-27.176,64.424-46.295,102.638-1.826,3.66-3.866,7.406-6.159,11.247a119.462,119.462,0,0,1-36.482,35.588c-19.277,9.646-36.885-9.733-38.7-30.374-.625-7.832-5.97-15.025-17.34-17.8,24.867-.513,47.1-11.831,47.1-39.39h0a46.809,46.809,0,0,0,4.958-2.674,49.339,49.339,0,0,0,9.038-7.1l1.423-1.42c29.6-29.412,52.272-48.01,78.483-56.608a3.685,3.685,0,0,1,3.969,5.892Z" transform="translate(-263.139 -170.377)"/><path class="w" d="M411.274,199.176a43.279,43.279,0,0,1-.878,6.365,64.852,64.852,0,0,1-1.74,6.523,57.343,57.343,0,0,0-6.325-2.508c-6.855-2.918-14.746-3.9-22.028-1.1a25.374,25.374,0,0,0-8.429,5.356,30.344,30.344,0,0,0-2.514,2.674,6.033,6.033,0,0,0,1.455,8.921,6.131,6.131,0,0,0,3.329.97,5.971,5.971,0,0,0,5.385-3.273c.245-.489.5-.962.791-1.428a25.755,25.755,0,0,1,4.586-5.805c5.219-4.937,12-7.217,17.442-6.31.585,9.37-2.831,17.723-13.671,22.794-.506.213-1.012.434-1.51.67a49.52,49.52,0,0,0-23.444,22.708q-.791.371-1.494.789a23.605,23.605,0,0,1-8.887-7.225c-3.234,5.584-9.884,4.2-12.88-.592,4.578,21.69-27.974,24.049-24.677,1.38a27.9,27.9,0,0,1-11.631,3.833h0a23.881,23.881,0,0,1-19.878-8.234A28.691,28.691,0,0,1,278.922,237c-3.163-7.95-2.7-17.273,3.163-24.632h0c-12.271,0-17.079-7.6-17.095-15.451a19.168,19.168,0,0,1,6.1-13.89,18.5,18.5,0,0,1,1.905-1.577,104.178,104.178,0,0,1,21.5-12.509A74.916,74.916,0,0,1,323.6,162.76l-.791.465c-4.349,4.945-3.487,11.831-1.012,15.057a11.948,11.948,0,0,0,14.153,3.21c-5.535,6.807-8.31,14.032-7.654,21.761,2.048,8.219,6.531,14.536,17.308,15.94,11.955-1.507,19.767-6.61,18.028-20.034-3.621-7.887-3.076-13.227,0-17.005a57.711,57.711,0,0,1,10.975-4.732,41.637,41.637,0,0,1,15.323-2,25.607,25.607,0,0,1,12.4,3.841C407.084,182.431,411.962,187.944,411.274,199.176Z" transform="translate(-232.232 -145.818)"/><ellipse class="x" cx="10.326" cy="10.301" rx="10.326" ry="10.301" transform="translate(71.905 76.902)"/><path class="x" d="M7.488,0A7.469,7.469,0,1,1,0,7.469,7.479,7.479,0,0,1,7.488,0Z" transform="translate(85.062 105.265)"/><ellipse class="x" cx="4.815" cy="4.803" rx="4.815" ry="4.803" transform="translate(73.241 63.769)"/><ellipse class="x" cx="3.906" cy="3.896" rx="3.906" ry="3.896" transform="translate(103.967 84.213)"/><ellipse class="x" cx="7.156" cy="7.138" rx="7.156" ry="7.138" transform="translate(63.239 160.871)"/><ellipse class="x" cx="4.815" cy="4.803" rx="4.815" ry="4.803" transform="translate(86.485 150.349)"/><ellipse class="x" cx="3.906" cy="3.896" rx="3.906" ry="3.896" transform="translate(83.489 164.113)"/><ellipse class="x" cx="2.649" cy="2.642" rx="2.649" ry="2.642" transform="translate(105.209 155.72)"/><ellipse class="x" cx="14.564" cy="14.529" rx="14.564" ry="14.529" transform="translate(183.637 228.805)"/><path class="x" d="M530.045,416.058c-1.826,3.66-3.866,7.406-6.159,11.247A118.894,118.894,0,0,1,509.2,445.447a18.021,18.021,0,0,1,20.842-29.38Z" transform="translate(-281.857 -198.706)"/><ellipse class="x" cx="7.179" cy="7.162" rx="7.179" ry="7.162" transform="translate(184.767 210.711)"/><ellipse class="x" cx="4.689" cy="4.677" rx="4.689" ry="4.677" transform="translate(209.452 213.196)"/><ellipse class="x" cx="2.649" cy="2.642" rx="2.649" ry="2.642" transform="translate(202.953 201.988)"/><ellipse class="x" cx="7.156" cy="7.138" rx="7.156" ry="7.138" transform="translate(128.613 221.359)"/><path class="x" d="M402.292,459.782a14.342,14.342,0,0,1-1.067,5.45,32.042,32.042,0,0,1-7.385.978,34.376,34.376,0,0,1-6.231-.528h0a86.082,86.082,0,0,1-14.232-3.518,13.917,13.917,0,0,1-.2-2.366,14.564,14.564,0,1,1,29.121,0Z" transform="translate(-254.876 -205.43)"/><ellipse class="x" cx="4.815" cy="4.803" rx="4.815" ry="4.803" transform="translate(148.072 235.635)"/><ellipse class="x" cx="3.906" cy="3.896" rx="3.906" ry="3.896" transform="translate(110.095 235.541)"/><path class="p" d="M350.488,176.955a11.941,11.941,0,0,1-14.161-3.21c-2.475-3.265-3.337-10.112,1.012-15.057l5.306-3.265A35.6,35.6,0,0,0,357.6,141.28l3.661.237c.569,6.917.893,13.48,0,18.141a34.285,34.285,0,0,0,15.592-10.064l3.25.576c.324,8.242-1.3,15.893-5.812,22.684a36.382,36.382,0,0,0-13.647-8.676,24.233,24.233,0,0,1-10.16,12.778Z" transform="translate(-246.734 -141.28)"/><path class="o" d="M380.45,183.754c-3.107,3.778-3.653,9.126,0,17.005,1.755,13.409-6.072,18.527-18.028,20.034-10.777-1.4-15.26-7.722-17.308-15.94-.664-7.73,2.087-14.986,7.654-21.761,4.412-3.368,8.144-7.319,10.144-12.762C369.878,173.035,375.982,177.113,380.45,183.754Z" transform="translate(-248.982 -147.417)"/><path class="y" d="M364.924,170.33a24.193,24.193,0,0,1-10.144,12.762C359.2,179.724,362.932,175.772,364.924,170.33Z" transform="translate(-251.026 -147.417)"/><path class="r" d="M374.285,210.321a8.695,8.695,0,1,1-16.944-2.721H373.85a8.571,8.571,0,0,1,.435,2.721Z" transform="translate(-251.468 -155.291)"/><path class="z" d="M474.282,341.129c30.046,4.732,54.494-4.393,71.1-32.559-9.67,16.966-17.182,37.157-23.048,59.818-9.069,35.288-30.568,59.021-60.448,74.93-17.925-.465-27.207-12.147-31.311-30.564.3-9.567-5.646-15.633-15.323-19.592,27.215-2.776,44.444-14.142,45.069-39.839C466.249,351.359,471.262,347.841,474.282,341.129Z" transform="translate(-263.683 -176.622)"/></g><g transform="translate(11.953 54.494)"><path class="aa" d="M286.194,208.195c-13.663,12.841-31.588-12.533-13.268-26.817A85.123,85.123,0,0,1,321.956,163a10.622,10.622,0,0,0-2.609,9.165c-16.256,1.641-26.709,6.894-39.06,15.775C268.577,196.127,273.021,211.712,286.194,208.195Z" transform="translate(-241.811 -145.869)"/><path class="aa" d="M10.866,0c6,0,10.868,3.936,10.869,8.787s-4.862,8.781-10.863,8.779S.005,13.634,0,8.783,4.865,0,10.866,0Z" transform="translate(36.795 77.452) rotate(-45)"/><path class="ab" d="M436.413,284.413c-8.761,5.592-19.522,4.4-24.053-2.65s-1.1-17.3,7.654-22.873a22.641,22.641,0,0,1,6.326-2.8,4.021,4.021,0,1,0,5.843-.71c4.958.134,9.393,2.24,11.908,6.16C448.6,268.576,445.166,278.821,436.413,284.413Z" transform="translate(-272.21 -165.385)"/><ellipse class="aa" cx="11.821" cy="14.592" rx="11.821" ry="14.592" transform="translate(77.172 196.332)"/><ellipse class="aa" cx="3.819" cy="3.81" rx="3.819" ry="3.81" transform="translate(49.016 89.892)"/><ellipse class="ab" cx="6.136" cy="6.121" rx="6.136" ry="6.121" transform="translate(155.245 124.124)"/><ellipse class="aa" cx="4.341" cy="4.33" rx="4.341" ry="4.33" transform="translate(96.473 189.794)"/><path class="ac" d="M286.92,267.761c1.281,6.349,8.492,17.21,19.87,18.3l2.918-9.662c-8.081-.733-16.241-3.037-20.068-10.538Z" transform="translate(-246.372 -167.599)"/><path class="ad" d="M360.09,474.187l6.27,1.988c1.668-5.931,11.141-3.281,9.488,2.65-2.111,3.344-5.274,4.023-9.1,3.029l7.045,7.028,6.492,1.767,4.452-20.428L362.6,463.91Z" transform="translate(-261.688 -209.44)"/><path class="ae" d="M307,350.945c-16.075,1.893-19.316-25.531-3.25-27.424,20.052-3.368,38.15-10.837,53.039-25.1A144.992,144.992,0,0,1,368.043,288.3l-1.961-6.365-24.907,19.04c-10.587,7.1-22.455,6.791-34.418,7.154-8.421.45-15.134,4.575-18.7,10.585C282.23,334.933,288.057,347.656,307,350.945Z" transform="translate(-246.157 -170.994)"/><path class="af" d="M406.583,354.29c4.27,9.978,10.366,18.575,19.854,23.094a7.673,7.673,0,0,1,1.581,12.935c-10.358,8.266-23.373,9.828-36.8,10.356,31.019,1.806,60.392,1.167,64.045-37.654C434.763,371.713,418.8,368.077,406.583,354.29Z" transform="translate(-268.204 -186.281)"/><path class="af" d="M395.232,414.16l-27.674-3.81c14.019,4.385,25.792,10.088,29.255,20.689a8,8,0,0,1,.308,1.869c.7,10.159-8.057,18.417-18.233,17.644-17.4-1.317-34.5-10.861-45.638-23.3,11.07,19.237,27.959,30.24,51.584,31.778,1.131.1,2.253.158,3.368.158h.071c10.279,0,19.388-4.5,25.175-21.3C415.22,424.555,407.614,417.709,395.232,414.16Z" transform="translate(-256.07 -198.124)"/><path class="ag" d="M436.886,466.115l.6-.331c-6.689-4.527-10.05-11.4-11.433-19.663-6.072,13.866-16.549,22.085-34.672,20.342l-2.9,9.07c11.18.789,22.139.245,32.758-2.792a4.057,4.057,0,0,1,3.052.292q11.655,6.31,27.366,3.376l4.625-3.991A23.361,23.361,0,0,1,436.886,466.115Z" transform="translate(-267.63 -205.681)"/><path class="ah" d="M411.135,220.69c-9.812,1.412-17.648,5.521-21.522,15.16-3.163,2.753-6.207,3.06-9.156.394-1.146,9.678-6.721,18.141-17.205,25.24-3.953,4.93-8.112,4.732-12.469,0,.957,21.611-24.741,22.739-25.705,1.136l-10.967,3.092-1.51,12.541c2.309.134,4.6.118,6.507-1.049,7.377,17.4,23.934,16.847,39.455,1.79l13.11-10.025c8.018-12.62,17.925-21.414,30.109-25.6C410.6,237.2,413.23,229.524,411.135,220.69Z" transform="translate(-251.747 -158.056)"/><path class="aa" d="M514.57,318.564c18.8-12.919,38.1-22.779,58.511-26.139l6.808-8.3c.727-4.654-2.522-5.064-7.037-4.109C550.578,288.694,531.514,302.063,514.57,318.564Z" transform="translate(-294.023 -170.502)"/><path class="ai" d="M481.809,292.8l-3.5.686v1.577c-.15,45.9-68.687,48.357-72.925,2.65q-.245-2.642-.356-5.379L386.65,317.57,395.8,335l4.847-4.551A53.806,53.806,0,0,0,415.32,348.7l2.593-.142c18.059,10.585,36.719,3.273,55.727-14.655C482.433,319.289,484.481,305.668,481.809,292.8Z" transform="translate(-267.247 -173.191)"/><path class="aa" d="M404.2,364.957c-2.767-5.947-2.8-11.539,1.921-16.508l-4.23-6.389C392.761,351.556,397.544,358.434,404.2,364.957Z" transform="translate(-269.381 -183.697)"/><path class="aa" d="M397.789,374.493c-5.5-5.395-8.531-14.2-3.7-22.085l.553-5.726L388.466,339C378.836,355.729,384.545,366.606,397.789,374.493Z" transform="translate(-266.62 -183.051)"/><path class="aj" d="M285.43,470.332c14.13,13.062,50.446-5.521,15.656-39.342,26.29,14.923,27.674,34.57,22.337,44.564S301.6,493.363,285.43,470.332Z" transform="translate(-246.06 -202.485)"/><path class="ak" d="M244.09,453.41c7.116,14.2,16.525,10.451,10,0,11.212,12.919,19.925,23.071,19.925,23.071C263,480.424,248.921,469.185,244.09,453.41Z" transform="translate(-237.407 -207.221)"/><path class="al" d="M270.24,368.575c-11.86-23.512-10.279-58.367,5.535-76.255-5.274,15.822-13.845,55.858,23.847,84.474,10.809,11.137-1.123,23.52-1.123,23.52C286.994,392.427,274.589,374.767,270.24,368.575Z" transform="translate(-241.252 -173.189)"/><path class="am" d="M6.6,0c3.646,0,6.606,11.589,6.611,25.883S10.266,51.765,6.62,51.763.014,40.174.009,25.881,2.956,0,6.6,0Z" transform="translate(9.411 221.173) rotate(-34.52)"/><ellipse class="am" cx="4.616" cy="12.379" rx="4.616" ry="12.379" transform="matrix(0.976, -0.219, 0.219, 0.976, 0, 181.081)"/><path class="an" d="M437.707,176.673c2.649,1.467,4.254-6.752-2.467-12.423,13.244,5.229,13.109,16.666,11.742,27.511C441.842,182.635,437.707,176.673,437.707,176.673Z" transform="translate(-277.418 -146.133)"/><ellipse class="aa" cx="9.729" cy="5.488" rx="9.729" ry="5.488" transform="translate(128.18 38.546) rotate(-15.005)"/><path class="ao" d="M429.57,209.549c5.187,1.507,15.877-12.707,4.017-25.169,13.442,4.236,14.106,18.575,9.488,32.63C440.189,215.37,429.57,209.549,429.57,209.549Z" transform="translate(-276.231 -150.385)"/><ellipse class="ap" cx="4.262" cy="5.916" rx="4.262" ry="5.916" transform="translate(33.543 106.077)"/><ellipse class="ap" cx="2.325" cy="2.319" rx="2.325" ry="2.319" transform="translate(42.066 117.727)"/><path class="ah" d="M301.33,360.713c17.719,13.2,35.431,6.546,35.431,6.546l35.431-1.751c-11.631-13.306-.957-29.231-.957-29.231l-3.163-9.938c-7.535,15.207-39.321,34.988-48.414,35.777S305.347,362.488,301.33,360.713Z" transform="translate(-249.388 -180.376)"/><path class="aq" d="M333.25,450.854c3.629,6.31,9.385.789,2.7-9.544,14.1,13.093,21.048,17.833,21.048,17.833L351.681,480.8l-16.96-6.081C335.93,467.788,333.25,450.854,333.25,450.854Z" transform="translate(-256.07 -204.665)"/><ellipse class="ar" cx="5.037" cy="5.024" rx="5.037" ry="5.024" transform="translate(105.163 263.139)"/><path class="n" d="M333.72,167.561c12.422-3.226,22.447-9.694,24.954-26.281-5.2,8-11.947,13.5-20.3,16.422C335.523,159.658,333.894,162.876,333.72,167.561Z" transform="translate(-256.168 -141.28)"/><path class="an" d="M368.25,165.04c10.279,2.477,15.663-2.816,19.427-10.75a50.208,50.208,0,0,1-6.42,21.3,36.935,36.935,0,0,0-13.647-8.676Z" transform="translate(-263.262 -144.029)"/><path class="an" d="M361.722,153.34c-2.91,19.995-20.795,24.451-25.3,22.542,8.7,7.1,16.043,7.217,21.214-3.739C360.488,165.352,363.849,153.561,361.722,153.34Z" transform="translate(-256.733 -143.828)"/><path class="ak" d="M354.78,183.6c9.591,2.019,16.209,6.681,18.186,15.475.83,9.015-3.566,11.46-9.86,11.539,5.535,1.972,2.293,10.971-3.234,9,13.046,1.885,22.376-1.577,22.724-17.865-1.961-4.1-4-13.811-.546-19.529a41.908,41.908,0,0,0-17.1-11.894A24.19,24.19,0,0,1,354.78,183.6Z" transform="translate(-260.576 -147.417)"/><path class="am" d="M354.242,194.807h0a4.459,4.459,0,0,1,1.858,5.15c-1.494,4.425-1.787,8.258-.293,11.232a4.873,4.873,0,0,1-.633,5.474h0a4.822,4.822,0,0,1-7.82-.883c-3.432-6.255-3.368-12.762.648-19.553a4.458,4.458,0,0,1,6.238-1.42Z" transform="translate(-258.504 -152.436)"/></g><path class="as" d="M682.373,158.791a2.365,2.365,0,0,1-1.676-4.038l9.757-9.733a2.369,2.369,0,0,1,3.353,3.344l-9.757,9.733a2.375,2.375,0,0,1-1.676.694Z" transform="translate(-316.697 -87.442)"/><path class="as" d="M489.283,329.8a2.365,2.365,0,0,1-1.676-4.038L580.18,233.42a2.369,2.369,0,0,1,3.352,3.344l-92.6,92.337A2.375,2.375,0,0,1,489.283,329.8Z" transform="translate(-276.28 -106.118)"/><path class="as" d="M613.433,218.8a2.365,2.365,0,0,1-1.676-4.038L655.11,171.51a2.369,2.369,0,0,1,3.352,3.344l-43.353,43.254A2.374,2.374,0,0,1,613.433,218.8Z" transform="translate(-302.267 -93.038)"/><path class="as" d="M448.253,202.671a2.365,2.365,0,0,1-1.676-4.038l60.171-60.023a2.369,2.369,0,0,1,3.353,3.344l-60.171,60.023a2.375,2.375,0,0,1-1.676.694Z" transform="translate(-267.692 -86.088)"/><path class="as" d="M538.5,117.6a2.365,2.365,0,0,1-1.676-4.038l40.957-40.865a2.369,2.369,0,0,1,3.313,3.344L540.139,116.9A2.375,2.375,0,0,1,538.5,117.6Z" transform="translate(-286.583 -72.19)"/><path class="as" d="M502.063,191.753a2.365,2.365,0,0,1-1.676-4.038l79.25-79.055A2.369,2.369,0,0,1,582.989,112l-79.25,79.055a2.375,2.375,0,0,1-1.676.694Z" transform="translate(-278.955 -79.761)"/><path class="as" d="M477.693,233.643a2.366,2.366,0,0,1-1.676-4.038L489.7,215.96a2.369,2.369,0,0,1,3.352,3.344l-13.679,13.645A2.375,2.375,0,0,1,477.693,233.643Z" transform="translate(-273.854 -102.429)"/><path class="as" d="M558.763,178.093a2.366,2.366,0,0,1-1.676-4.038l63.168-63a2.369,2.369,0,0,1,3.353,3.344l-63.168,63A2.375,2.375,0,0,1,558.763,178.093Z" transform="translate(-290.824 -80.265)"/><path class="as" d="M645.723,102.211a2.365,2.365,0,0,1-1.676-4.038l21.7-21.643a2.369,2.369,0,0,1,3.353,3.344l-21.7,21.643A2.375,2.375,0,0,1,645.723,102.211Z" transform="translate(-309.026 -72.973)"/><path class="as" d="M504.373,240.847a2.366,2.366,0,0,1-1.676-4.038l31.841-31.77a2.369,2.369,0,1,1,3.352,3.344l-31.841,31.77a2.375,2.375,0,0,1-1.676.694Z" transform="translate(-279.439 -100.097)"/><path class="as" d="M519.883,265.67a2.365,2.365,0,0,1-1.676-4.038l76.388-76.192a2.369,2.369,0,0,1,3.352,3.344l-76.388,76.184A2.375,2.375,0,0,1,519.883,265.67Z" transform="translate(-282.685 -95.981)"/><path class="as" d="M623.553,174.137a2.365,2.365,0,0,1-1.676-4.038l30.837-30.761a2.369,2.369,0,1,1,3.352,3.344l-30.837,30.761A2.375,2.375,0,0,1,623.553,174.137Z" transform="translate(-304.385 -86.217)"/><path class="as" d="M531.442,135.562a2.366,2.366,0,1,1,0-4.732h0a2.366,2.366,0,1,1,0,4.732Z" transform="translate(-285.105 -84.578)"/><path class="as" d="M675.372,168.462a2.366,2.366,0,1,1,0-4.732h0a2.366,2.366,0,1,1,0,4.732Z" transform="translate(-315.232 -91.529)"/><path class="as" d="M551.712,202.022a2.366,2.366,0,1,1,0-4.732h0a2.366,2.366,0,1,1,0,4.732Z" transform="translate(-289.348 -98.619)"/><path class="at" d="M457.49,318.433a7.611,7.611,0,1,0-7.63-7.611,7.621,7.621,0,0,0,7.63,7.611Zm0-12.849a5.245,5.245,0,1,1-5.258,5.237A5.252,5.252,0,0,1,457.49,305.584Z" transform="translate(-268.525 -120.996)"/><path class="at" d="M468.222,282.343a8.432,8.432,0,1,0-8.452-8.432A8.442,8.442,0,0,0,468.222,282.343Zm0-14.5a6.065,6.065,0,1,1-6.08,6.065,6.073,6.073,0,0,1,6.08-6.065Z" transform="translate(-270.599 -113.025)"/><path class="at" d="M433.271,263.046a5.2,5.2,0,1,0-5.211-5.2,5.2,5.2,0,0,0,5.211,5.2Zm0-8.029a2.832,2.832,0,1,1-2.839,2.832A2.835,2.835,0,0,1,433.271,255.016Z" transform="translate(-263.962 -110.314)"/><path class="at" d="M372.07,472a7.272,7.272,0,1,0,7.29,7.272A7.281,7.281,0,0,0,372.07,472Zm0,9.82a1.057,1.057,0,1,1,0,.039Z" transform="translate(-250.716 -156.655)"/><path class="at" d="M306.59,358.32A17.9,17.9,0,0,1,291.053,331.5a2.371,2.371,0,0,0-4.1-2.366,22.629,22.629,0,0,0,19.641,33.916,2.366,2.366,0,1,0,0-4.732Z" transform="translate(-233.792 -126.241)"/><path class="at" d="M519.643,249.29a6.009,6.009,0,0,0-6.95-2.366c-17.6,5.766-35.43,15.656-65.832,44.083a51.551,51.551,0,0,0,2.657-28.071,4.729,4.729,0,0,0-5.732-3.739c-4.119.994-6.571-.986-7.432-2.989s-.6-5.143,2.965-7.43a4.746,4.746,0,0,0,1.265-6.72,51.774,51.774,0,0,0-13.394-12.8,4.753,4.753,0,0,0-6.136.789,2.633,2.633,0,0,1-4.5-2.09,4.732,4.732,0,0,0-3.36-5.166,51.957,51.957,0,0,0-14.62-2.09,52.753,52.753,0,0,0-8.025.623,23.365,23.365,0,0,0,4.815-13.779l.656.26a4.735,4.735,0,0,0,6.389-3.116,51.555,51.555,0,0,0,1.882-10.467v-.039c3.471-20.586-.791-33.166-13.718-40.8a4.928,4.928,0,0,0-7.409,3.6,25.986,25.986,0,0,1-3.827,10.609c-7.559-.2-16.051,1.869-24.274,6.121q-.838-1.081-1.755-2.106c3.716-5.521,5.535-13.061,5.321-22.432a3.9,3.9,0,0,0-2.593-3.612,3.96,3.96,0,0,0-4.357,1.136,30.785,30.785,0,0,1-11.457,8.416,60.287,60.287,0,0,0-.957-14.986A3.956,3.956,0,0,0,332,138.764a35.981,35.981,0,0,1-16,14.473,14.378,14.378,0,0,0-3.432,2.193c-6.373.284-17.759,1.436-28.291,5.852a106.714,106.714,0,0,0-22.092,12.707,20.7,20.7,0,0,0-2.127,1.79,21.6,21.6,0,0,0-6.839,15.617,17.682,17.682,0,0,0,4.6,12.281,18.2,18.2,0,0,0,10.643,5.206,25.673,25.673,0,0,0-3.163,10.845,29.006,29.006,0,0,0,1.463,10.987,126.737,126.737,0,0,0-37.953,52.64,124.84,124.84,0,0,0-6.523,23.907c-.364,2.114-.68,4.314-.925,6.515a127.375,127.375,0,0,0-.838,14.607c0,.592,0,1.191,0,1.783a125.529,125.529,0,0,0,22.487,70.2,29.868,29.868,0,0,0,28.046,13.061,115.992,115.992,0,0,0,11.236,8.471,20.594,20.594,0,0,0,11.386,3.439,20.839,20.839,0,0,0,8.484-1.814,20.445,20.445,0,0,0,10.571-10.7,120.59,120.59,0,0,0,19.261,7.367l-.095.457a7.293,7.293,0,0,0,14.3,2.855v-.158a123,123,0,0,0,19.332,1.522,121.051,121.051,0,0,0,101.405-54.62l.055-.087c11.56-19.348,16.668-36.179,21.6-52.459,6.215-20.507,12.082-39.839,30.568-61.088A5.991,5.991,0,0,0,519.643,249.29Zm-74.016,23.023a46.615,46.615,0,0,1-2.546,15.309,10.048,10.048,0,1,1,2.546-16.564c-.016.394,0,.789,0,1.246ZM411.85,227.308a7.378,7.378,0,0,0,12.714,5.892,48.354,48.354,0,0,1,12.192,11.571c-5.661,3.628-6.468,9.276-4.744,13.267s6.373,7.312,12.857,5.726c.253,1.372.451,2.768.577,4.18a12.4,12.4,0,1,0-3.471,22.55,47.2,47.2,0,0,1-14.1,18.52,18.163,18.163,0,0,0-21.167-21.469,3.57,3.57,0,0,0-2.831,2.8.791.791,0,0,1-.917.6l-1.463-.3a3.644,3.644,0,0,0-3.06.789,18.112,18.112,0,0,0-.119,27.85c-7.116-.047-16.533-2.437-24.725-12.17a2.368,2.368,0,0,0-.4-.473,47.99,47.99,0,0,1-3.2-4.433,17.535,17.535,0,0,0-4.4-32.283c2.23-3.013,4.562-5.994,7.053-8.865a2.364,2.364,0,0,0-1.091-3.81,25.232,25.232,0,0,0-7.8-1.12,31.837,31.837,0,0,0,3.424-8.613,2.369,2.369,0,0,0-2.688-2.863,41.856,41.856,0,0,0-4.7,1.041,46.683,46.683,0,0,1,18.747-15.9l.166-.055c.688-.284,1.344-.584,1.993-.891a47.33,47.33,0,0,1,17.877-3.478,45.5,45.5,0,0,1,13.283,1.94ZM372.545,354a2.381,2.381,0,0,0-.285,0,93.785,93.785,0,0,1-27.634-3.715,2.368,2.368,0,1,0-1.313,4.551,98.778,98.778,0,0,0,27.065,3.9h1.653c9.14,2.279,14.643,7.887,15.347,15.3h0a1.4,1.4,0,0,0,.047.442,18.555,18.555,0,0,1-.079,3.3c-1.115,9.97-10.437,20.712-25.507,20.973a30.6,30.6,0,0,1-5.788-.5c-10.832-1.846-18.107-4.425-25.128-8.9a53.473,53.473,0,0,1-15.316-14.41c-10.057-14.426-7.828-26.549-6.4-31.092,4.222-13.409,23.539-19.214,47.061-14.142,6.057,5.1,14.738,8.376,25.3,9.315h.214a2.368,2.368,0,1,0,.206-4.732c-14.525-1.294-25.017-7.3-28.8-16.469a19.2,19.2,0,0,1-1.336-5.245,40.688,40.688,0,0,0,6.452.789,19.6,19.6,0,0,0,7.63,10.159,2.369,2.369,0,1,0,2.783-3.833,15.61,15.61,0,0,1-5.448-6.531,30.353,30.353,0,0,0,7.749-1.948c7.511,8.305,17.008,12.762,27.587,12.762h0a51.634,51.634,0,0,0,18.431-3.392c-.791,10.206-5.076,18.283-12.746,24.049C396.431,350.5,385.156,353.7,372.545,354Zm-27.508,64.353h-.324q-4.633-.836-9.18-2.043a2.368,2.368,0,0,0-.269-.079h-.087c-1.423-.387-2.839-.789-4.238-1.238L335.3,397.21a73.027,73.027,0,0,0,17.466,5.332l-4.04,16.469C347.456,418.766,346.231,418.553,345.037,418.356ZM359.886,261.5a15.415,15.415,0,0,1,6.658-.5q-1.581,1.98-3.163,4a19.894,19.894,0,0,1-3.527-3.494Zm1.534-11.342a27.009,27.009,0,0,1-4.1,7.02,27.909,27.909,0,0,1-1.645-4.9,35.29,35.29,0,0,1,5.709-2.122Zm2.672,21.864a15.156,15.156,0,0,1,4.744,28.118c-.324-.552-.648-1.12-.965-1.712a3.959,3.959,0,0,0-6.65-.489q-.53.718-.98,1.475a46.747,46.747,0,0,1-3.092-4.93l-.055-.11a46.346,46.346,0,0,1-3.234-7.643q1.929-2.753,3.859-5.568c2.016-3.005,4.135-6.089,6.333-9.141Zm-1.724,36.5a13.274,13.274,0,0,1,1.937-6.712,56.1,56.1,0,0,0,3.566,5.521,25.093,25.093,0,0,1-5.543,1.191Zm-4.246-4.015a17.44,17.44,0,0,0-.506,4.086,39.43,39.43,0,0,1-5.669-.789,20.805,20.805,0,0,1,2.839-7.951,52.254,52.254,0,0,0,3.3,4.654Zm44.152,14.576a15.753,15.753,0,0,1-2.261-25.871,1.252,1.252,0,0,1,1.067-.26l1.463.3a3.163,3.163,0,0,0,3.724-2.429,1.224,1.224,0,0,1,.941-.962,15.786,15.786,0,0,1,17.506,21.477,46.828,46.828,0,0,1-22.479,7.745ZM387.892,157.528a.189.189,0,0,1,.1-.158.182.182,0,0,1,.182,0c7.828,4.606,11.86,11.042,12.493,20.76a22.112,22.112,0,0,0-6.325-6.31,25.83,25.83,0,0,0-9.773-3.794A30.966,30.966,0,0,0,387.892,157.528Zm-67.951-.946a38.982,38.982,0,0,0,5.053-3.155,8.235,8.235,0,0,0,4.546,4.859,7.781,7.781,0,0,0,3.052.631,7.511,7.511,0,0,0,2.5-.434,26.661,26.661,0,0,1-2.767,8.171,9.506,9.506,0,0,1-10.089-1.514,8.284,8.284,0,0,1-2.293-8.566Zm11.623,18.93a27.489,27.489,0,0,0,6.325-9.544,37.479,37.479,0,0,1,13.568,10.7q-3.084,4.732-.743,12.249l.047.134c2.933,7.73,2.111,13.811-2.443,18.07a15.729,15.729,0,0,1-12.912,3.833c-6.476-.86-11.307-4.63-13.26-10.34-2.522-7.39.372-16.24,7.749-23.662a13.884,13.884,0,0,0,1.7-1.491Zm22.353-24.254a43.781,43.781,0,0,1-1.044,9.307,5.293,5.293,0,0,1-3.953-.56,4.236,4.236,0,0,1-2.087-2.958,36.257,36.257,0,0,0,7.077-5.829Zm-9.172,7a6.541,6.541,0,0,0,3,3.778,7.661,7.661,0,0,0,3.882,1.073h.546a23.968,23.968,0,0,1-2.3,5.1,46.221,46.221,0,0,0-10.587-6.783c.071-.316.15-.631.213-.947a33.735,33.735,0,0,0,5.25-2.272Zm-9.82-15.238a52.26,52.26,0,0,1,.53,12.738,5.23,5.23,0,0,1-4.989.426,5.982,5.982,0,0,1-3.471-4.267,42.506,42.506,0,0,0,7.931-8.944Zm-17.64,14.931a10.484,10.484,0,0,0,3.337,8.992,11.188,11.188,0,0,0,7.654,2.942,12.625,12.625,0,0,0,2.1-.181,23.038,23.038,0,0,1-2.135,2.421A9.4,9.4,0,0,1,320.1,174.7a8.973,8.973,0,0,1-6.65-4.732q-.166-.315-.316-.647a8.981,8.981,0,0,1,4.143-11.413Zm-41.543,95.571a1.185,1.185,0,0,0,1.186-1.183,4.563,4.563,0,0,1,3.953-4.5,26.064,26.064,0,0,0,4.341,1.853,4.558,4.558,0,0,1-7.251,5.521,1.185,1.185,0,0,0-1.842,1.491,6.933,6.933,0,0,0,12.058-6.247,24.743,24.743,0,0,0,4.744.434,11.6,11.6,0,0,1,.095,1.459,11.491,11.491,0,1,1-18.431-9.134,28.562,28.562,0,0,0,3.692,3.021,6.923,6.923,0,0,0-3.692,6.113,1.185,1.185,0,0,0,1.147,1.175Zm24.511,165.682a15.9,15.9,0,0,1-15.308-1.246,113.084,113.084,0,0,1-33.153-34.01c-1.676-2.634-3.266-5.379-4.744-8.163A2.371,2.371,0,1,0,242.857,378c1.534,2.887,3.163,5.742,4.926,8.479a120.177,120.177,0,0,0,18.186,22.3,25.764,25.764,0,0,1-18.976-11.113A120.82,120.82,0,0,1,225.351,330.1v-1.72a122.583,122.583,0,0,1,.791-14.071c.245-2.153.538-4.2.893-6.263a120.024,120.024,0,0,1,6.27-23.015,121.983,121.983,0,0,1,35.446-49.762,31.237,31.237,0,0,0,2.752,4.354A16.1,16.1,0,0,0,267.02,259.5a67,67,0,0,0,21.269,85.381,10.975,10.975,0,0,1,4.507,10.814,20.478,20.478,0,0,1-3.36,8.44c-10.279-9.039-18.787-19.719-23.57-29.838a2.371,2.371,0,0,0-4.294,2.011c5.322,11.263,14.944,23.094,26.536,32.906h0c2.427,2.051,4.942,4.015,7.519,5.86,9.9,7.1,15.292,18.654,14.05,30.224q-.095.923-.229,1.822a15.661,15.661,0,0,1-9.2,12.091Zm-1.866-47.979q-2.72-1.94-5.329-4.054a24.905,24.905,0,0,0,4.341-10.664,15.757,15.757,0,0,0-6.452-15.491,62.3,62.3,0,0,1-20.85-77.154,16.2,16.2,0,0,0,27.508-13.44,29.791,29.791,0,0,0,6.231-1.909c.229,5.387,2.554,9.733,6.673,12.257a15.051,15.051,0,0,0,7.844,2.161,16.046,16.046,0,0,0,9.2-2.918,14.851,14.851,0,0,0,6.325-11.255,9.793,9.793,0,0,0,4.436,1.01,9.079,9.079,0,0,0,7.749-4.819,2.372,2.372,0,0,0-4.112-2.366,4.341,4.341,0,0,1-3.716,2.445,6.114,6.114,0,0,1-5.092-3.108,2.372,2.372,0,0,0-4.333,1.735c1.147,5.45-.261,9.883-3.953,12.486a11.092,11.092,0,0,1-11.86.576c-3.519-2.153-5.021-6.349-4.222-11.831a2.371,2.371,0,0,0-3.534-2.366c-8.018,4.638-16.32,4.788-23.365.426a24.109,24.109,0,0,1-5.116-4.275l-.071-.079a25.651,25.651,0,0,1-6.618-18.559c.561-8.495,5.819-15.4,14.81-19.442a2.368,2.368,0,1,0-1.953-4.314,32.455,32.455,0,0,0-11.33,8.163c-4.278-.244-13.592-2.051-13.616-13.054a16.868,16.868,0,0,1,5.377-12.194,16.127,16.127,0,0,1,1.66-1.4,101.916,101.916,0,0,1,21.1-12.147,76.656,76.656,0,0,1,22.756-5.229,13.205,13.205,0,0,0-.055,10.814q.2.45.435.891a13.669,13.669,0,0,0,10.113,7.209,14.266,14.266,0,0,0,2.23.174h0c-4.91,7.367-6.42,15.443-3.953,22.582,2.514,7.359,8.911,12.415,17.118,13.5a22.6,22.6,0,0,0,2.989.2,20.072,20.072,0,0,0,13.8-5.269c4.183-3.944,8.215-11.09,3.669-23.126-1.581-5.19-.459-7.525.688-8.826,9.449-5.214,17.9-6.759,24.574-6.31h.142a23.358,23.358,0,0,1,11.07,3.455c6.618,4.393,8.278,10.829,8.018,17.131a2.662,2.662,0,0,1-.071.426,2.362,2.362,0,0,0,0,.71,49.582,49.582,0,0,1-1.779,9.339c-1.431-.592-2.791-1.1-4.048-1.5-13.536-5.726-26.883-2.871-35.581,7.635a8.291,8.291,0,0,0-1.819,6.586,8.509,8.509,0,0,0,8.4,7.233,8.312,8.312,0,0,0,7.512-4.583c4.072-8.171,12.105-12.446,18.36-12.407-.071,8.376-3.953,14.363-11.86,18.228a51.5,51.5,0,0,0-26.2,24c-5.867,2.942-10.516,6.925-15.4,11.137-10.137,8.739-20.621,17.77-43.875,17.77a2.366,2.366,0,1,0,0,4.732c25.017,0,36.688-10.056,46.974-18.93a92.111,92.111,0,0,1,11.07-8.6,25.738,25.738,0,0,0,9.2,14.2c-2.372,3.234-4.594,6.491-6.792,9.694-1.5,2.185-3,4.362-4.507,6.491-10.935,15.491-22.748,29.625-46.769,32.441a2.37,2.37,0,1,0,.277,4.732h.277c23.9-2.8,36.838-16.28,47.441-30.706q.791,1.94,1.7,3.8a25.547,25.547,0,0,0-5.147,14.087,2.355,2.355,0,0,0,0,.355,24.018,24.018,0,0,0,1.795,9.985,24.944,24.944,0,0,0,2.372,4.338c-23.207-3.3-41.835,3.865-46.421,18.456-1.637,5.206-4.23,19.064,7.029,35.209a58.2,58.2,0,0,0,16.66,15.7c.846.544,1.7,1.057,2.562,1.577L326.5,413.5a116.8,116.8,0,0,1-12.311-5.214,2.122,2.122,0,0,1,.071-.379q.142-.994.253-2A38.323,38.323,0,0,0,298.387,371.229Zm63.437-158.71c.522-.623,1.052-1.191,1.581-1.735l5.147,4.811c-.174.323-.348.647-.514.978a3.6,3.6,0,0,1-3.258,1.964,3.769,3.769,0,0,1-3.732-3.155,3.52,3.52,0,0,1,.783-2.855Zm7.986,1-4.673-4.362a22.884,22.884,0,0,1,5.954-3.691l2.285,3.691a27.884,27.884,0,0,0-3.558,4.37Zm5.345-5.987-1.787-2.887a23.464,23.464,0,0,1,6.7-.954h1.091a26.892,26.892,0,0,0-5.993,3.841Zm-33.58,215.033a2.551,2.551,0,0,1-5.005-.986v-.158q2.475.607,4.981,1.1Zm11.86-3.052,3.953-16.272a33.721,33.721,0,0,0,3.953.26h.506c14.074-.244,23.91-8.376,28.061-17.691,3.234,8.842,9.1,16.422,16.264,20.428a24.963,24.963,0,0,0,8.642,3,116.693,116.693,0,0,1-49.283,10.892,119.362,119.362,0,0,1-12.09-.615Zm162.145-166c-19.15,22.006-25.167,41.8-31.532,62.815-4.847,16-9.868,32.528-21.111,51.363a116.562,116.562,0,0,1-35.454,34.7h0a19.43,19.43,0,0,1-18.889-.284c-8.879-4.977-15.5-16.4-16.462-28.395v-.087a20.651,20.651,0,0,0-9.82-15.7c9.717-1.42,18.344-4.606,24.843-9.465,9.314-7,14.383-17.352,14.754-29.972a52.051,52.051,0,0,0,13.07-9.378,2.366,2.366,0,0,0,.269-.213c29.1-29.026,52.462-48.76,78.973-57.452a1.266,1.266,0,0,1,1.36,2.059Z" transform="translate(-220.52 -85.856)"/><path class="at" d="M428.952,320.412a2.366,2.366,0,1,0,0-4.732h0a2.366,2.366,0,1,0,0,4.732Z" transform="translate(-263.652 -123.63)"/><path class="at" d="M412.608,268.68h0a1.218,1.218,0,1,1-.008,0Z" transform="translate(-260.481 -113.701)"/><path class="at" d="M425.856,347.366a1.183,1.183,0,1,0,0-2.366h0a1.183,1.183,0,1,0,0,2.366Z" transform="translate(-263.252 -129.825)"/><path class="at" d="M476.608,297.93h0a1.218,1.218,0,1,1-.008,0Z" transform="translate(-273.877 -119.88)"/><path class="at" d="M488.082,342.162a2.366,2.366,0,1,0,0-4.732h0a2.366,2.366,0,1,0,0,4.732Z" transform="translate(-276.029 -128.225)"/><path class="at" d="M273.544,379.676a2.369,2.369,0,0,0-2.372-2.366h0a2.366,2.366,0,1,0,2.372,2.366Z" transform="translate(-230.626 -136.65)"/><path class="at" d="M425.748,191.295a7.636,7.636,0,0,1,3.052,1.577,2.369,2.369,0,1,0,3.234-3.463,12.194,12.194,0,0,0-4.918-2.642,2.367,2.367,0,0,0-1.376,4.527Z" transform="translate(-263.136 -96.378)"/><path class="at" d="M365.059,220.052a10.753,10.753,0,0,0,9.978-14.8,2.372,2.372,0,0,0-2.2-1.475H357.271a2.372,2.372,0,0,0-2.19,1.459,10.531,10.531,0,0,0-.791,4.062A10.78,10.78,0,0,0,365.059,220.052Zm-5.985-11.539h6.484a3.761,3.761,0,0,0,2.807,5.813,6.034,6.034,0,0,1-9.29-5.805Z" transform="translate(-248.52 -99.99)"/></g></g></g></svg>