<svg xmlns="http://www.w3.org/2000/svg" xmlns:xlink="http://www.w3.org/1999/xlink" width="378.694" height="513" viewBox="0 0 378.694 513"><defs><style>.a,.n,.t,.y{fill:#fff;}.b{opacity:0.03;fill:url(#a);}.c{fill:url(#b);}.d{fill:#e07070;}.e{fill:#ff906e;}.f{fill:#a36f6f;}.g{fill:#e6b8a1;}.h{fill:#f5efd0;}.i{fill:#00bfff;}.j{fill:#ffaf33;}.k{fill:#e6a88a;}.l{fill:#f2f7ff;}.m,.q,.s,.u{fill:#0047ff;}.m,.o{opacity:0.25;}.n,.r{opacity:0.4;}.o,.r{fill:#946a6a;}.p{fill:#f06c00;opacity:0.6;}.q{opacity:0.22;}.s{opacity:0.2;}.t,.w{opacity:0.3;}.u,.v{opacity:0.15;}.v{fill:#f08400;}.x{fill:#e89025;}.ac,.y{opacity:0.75;}.z{fill:#2d3f70;}.aa,.ab{fill:none;stroke:#2d3f70;stroke-linecap:round;stroke-linejoin:round;stroke-width:4px;}.ab{fill-rule:evenodd;}</style><linearGradient id="a" x1="0.566" y1="0.01" x2="0.486" y2="0.721" gradientUnits="objectBoundingBox"><stop offset="0" stop-color="#6a9325"/><stop offset="1" stop-color="#66c9d8"/></linearGradient><linearGradient id="b" x1="0.487" y1="1" x2="0.465" y2="0.03" xlink:href="#a"/></defs><g transform="translate(1.694)"><rect class="a" width="377" height="513"/><g transform="translate(13860 233)"><g transform="translate(-13861.694 -170.178)"><path class="b" d="M187.914,0C291.7,0,375.829,93.48,375.829,208.794V362.2H0v-153.4C0,93.48,84.132,0,187.914,0Z" transform="translate(362.198 0) rotate(90)"/><g transform="translate(1.037 20.297)"><path class="c" d="M0,335.325V0H135.915c49.37,0,94.25,17.28,127.586,45.492h35.745a3,3,0,1,1,0,6.009h-29c32.179,30.134,51.955,71.067,51.955,116.161,0,42.6-17.645,81.478-46.722,111.053h33.339a1.69,1.69,0,1,1,0,3.38H272.069q-2.587,2.492-5.276,4.882h48.6a3,3,0,0,1,0,6.009H259.668a186.531,186.531,0,0,1-23.084,15.773H275.4a3.568,3.568,0,1,1,0,7.136H223.04a202.154,202.154,0,0,1-87.124,19.428Z" transform="translate(0 0)"/></g><rect class="a" width="106" height="3" rx="1.5" transform="translate(313.694 321.178) rotate(180)"/><rect class="a" width="84" height="6" rx="3" transform="translate(319.694 85.178) rotate(180)"/></g><g transform="translate(-13771.43 -68.23)"><g transform="translate(0 0)"><g transform="translate(1.773 0.36)"><path class="d" d="M179.07,306.392c.311-.142.616-.295.922-.442C179.686,306.1,179.381,306.25,179.07,306.392Z" transform="translate(-81.756 -139.25)"/><path class="d" d="M171.707,316.84v.4C171.7,317.118,171.7,316.976,171.707,316.84Z" transform="translate(-78.407 -144.2)"/><path class="e" d="M133.1,184.773h-4.68l-3.6-7.866a.665.665,0,0,0-.6-.387H88.135a.665.665,0,0,0-.605.387l-3.595,7.866h-4.68a2.449,2.449,0,0,0-2.455,2.455v3.344a2.449,2.449,0,0,0,2.455,2.455H133.1a2.449,2.449,0,0,0,2.455-2.455v-3.344a2.449,2.449,0,0,0-2.455-2.455Z" transform="translate(-35.272 -80.422)"/><path class="f" d="M130.33,244.5a6.148,6.148,0,0,1,0,8.684l-5.318,5.318a6.143,6.143,0,0,1-8.69-8.684l5.318-5.318A6.148,6.148,0,0,1,130.33,244.5Z" transform="translate(-52.419 -110.504)"/><path class="g" d="M131.209,145.78v12.028H124.63V135.35h0a28.577,28.577,0,0,1,6.579,1.533Z" transform="translate(-57.012 -61.71)"/><path class="h" d="M172.5,56.656q-20.248-10.691-40.5,0h0A22.85,22.85,0,0,0,129.3,67.435c8.493,6.077,15.584,12.3,18.268,22.463A22.948,22.948,0,0,0,172.5,56.656Z" transform="translate(-59.134 -23.512)"/><path class="h" d="M47.89,56.661a22.943,22.943,0,1,0,40.513,0Q68.166,45.959,47.89,56.661Z" transform="translate(-20.911 -23.512)"/><path class="i" d="M130.66,21.324A28.943,28.943,0,0,1,158.48.35H183.3a52.628,52.628,0,0,1-15.066,14.439C154.694,8.778,139.257,10.256,130.66,21.324Z" transform="translate(-59.753 -0.35)"/><path class="i" d="M86.8,21.324C78.2,10.261,62.765,8.778,49.226,14.778A52.628,52.628,0,0,1,34.16.35H58.98A28.943,28.943,0,0,1,86.8,21.324Z" transform="translate(-15.892 -0.35)"/><path class="j" d="M138.016,110.37a35.643,35.643,0,0,0-1.091-7.037c-2.684-10.162-9.775-16.364-18.268-22.463a22.91,22.91,0,0,1-9.993,18.966c-2.82,2.3-4.364,5.548-4.364,10.55v.158a10.43,10.43,0,0,0,2.236,6.366,10.724,10.724,0,0,0,8.444,4.107h.442v-10.43h0A28.576,28.576,0,0,1,122,112.121v8.913h1.936a15.288,15.288,0,0,0,8.646-2.182,29.369,29.369,0,0,1,4.26,5.395,65.254,65.254,0,0,0,1.042-7.326A47.452,47.452,0,0,0,138.016,110.37Z" transform="translate(-47.772 -36.948)"/><path class="i" d="M155.838,38.81a22.91,22.91,0,0,1,20.248,12.164q-20.248-10.7-40.5,0h0A22.943,22.943,0,0,1,155.838,38.81Z" transform="translate(-61.993 -17.831)"/><path class="i" d="M71.714,38.81A22.938,22.938,0,0,1,91.973,50.98q-20.248-10.7-40.513,0A22.91,22.91,0,0,1,71.714,38.81Z" transform="translate(-23.755 -17.831)"/><path class="i" d="M161.364,267.131a5.869,5.869,0,0,1,3.3-4.135l.595-.284c.311-.142.616-.289.922-.442-.305.147-.611.3-.922.442a52.613,52.613,0,0,1-9.273,3.4,5.788,5.788,0,0,1-3.218-11.117c1.456-.458,2.875-.955,4.26-1.5s2.82-1.167,4.178-1.816a5.936,5.936,0,0,1-2.553.573A6.033,6.033,0,0,1,155.98,240.8c1.206-.595,2.422-1.227,3.638-1.9,2.286-1.266,4.566-2.662,6.764-4.146a30.547,30.547,0,0,0,13.473-24.9h0c0,35.075,23.729,34.605,28.687,13.233a71.033,71.033,0,0,1-38.822,50.632,5.761,5.761,0,0,1-2.531.584,5.94,5.94,0,0,1-5.553-3.862,6.033,6.033,0,0,1-.376-1.833v-.4a5.949,5.949,0,0,1,.1-1.069Z" transform="translate(-67.944 -95.571)"/><path class="i" d="M50.273,251.7c1.244.6,2.526,1.156,3.818,1.68h0c1.489.6,3.022,1.14,4.6,1.636A5.793,5.793,0,0,1,55.5,266.129a52.69,52.69,0,0,1-9.273-3.393l.595.278a5.87,5.87,0,0,1,3.273,4.135,5.951,5.951,0,0,1,.12,1.091v.4a6.034,6.034,0,0,1-.376,1.833,5.94,5.94,0,0,1-5.553,3.862,5.759,5.759,0,0,1-2.531-.584A71.109,71.109,0,0,1,2.93,223.123C7.888,244.5,31.617,244.943,31.617,209.89h0a30.547,30.547,0,0,0,13.473,24.9c2.029,1.375,4.135,2.673,6.246,3.857h0c1.386.78,2.777,1.511,4.157,2.182a6.033,6.033,0,0,1-2.678,11.455,5.929,5.929,0,0,1-2.542-.584Z" transform="translate(-1.697 -95.589)"/><path class="j" d="M164.438,316.348v5.035a4.364,4.364,0,0,1-8.728,0V314.87h8.728v1.091C164.432,316.081,164.432,316.223,164.438,316.348Z" transform="translate(-71.138 -143.305)"/><path class="j" d="M148.458,321.383v1.844a4.364,4.364,0,0,1-8.728,0V314.87h8.728Z" transform="translate(-63.875 -143.305)"/><path class="j" d="M114.288,314.87v8.357a4.364,4.364,0,0,1-8.728,0V314.87Z" transform="translate(-48.344 -143.305)"/><path class="j" d="M98.318,314.856v6.513a4.364,4.364,0,0,1-8.728,0V314.84h8.728Z" transform="translate(-41.086 -143.291)"/><path class="i" d="M37.352,88.642A26.941,26.941,0,0,1,22.8,79.974c-8.646-9.971-9.9-25.943-1.964-38.5A44.31,44.31,0,0,1,40.766,23.915c13.539-6,28.971-4.528,37.573,6.546,8.6-11.068,24.034-12.546,37.573-6.546a44.326,44.326,0,0,1,19.921,17.559c7.937,12.546,6.688,28.529-1.958,38.5a27.007,27.007,0,0,1-14.548,8.662,32.549,32.549,0,0,1-7.277.8H97.562a47.422,47.422,0,0,0,.115-6.546,35.643,35.643,0,0,0-1.091-7.037A22.951,22.951,0,1,0,78.317,53.388a22.91,22.91,0,1,0-9.993,18.977c-2.82,2.3-4.364,5.548-4.364,10.55v.158A10.43,10.43,0,0,0,66.2,89.439H44.623a32.532,32.532,0,0,1-7.271-.8Z" transform="translate(-7.432 -9.476)"/><path class="k" d="M131.586,260.541a6.033,6.033,0,0,1-2.673-11.455c1.206-.595,2.422-1.227,3.638-1.9l1.358-19.092H89.18l1.342,18.825h0c1.386.78,2.777,1.511,4.157,2.182A6.033,6.033,0,0,1,92,260.552a5.928,5.928,0,0,1-2.547-.573c1.244.6,2.526,1.156,3.818,1.68h36.6l.055.136q2.144-.84,4.178-1.816a5.935,5.935,0,0,1-2.515.562Zm-12.775-14-5.318,5.318a6.142,6.142,0,0,1-8.69-8.684l5.318-5.318a6.143,6.143,0,0,1,8.69,8.684Z" transform="translate(-40.899 -103.862)"/><path class="l" d="M87.71,206.78l.824,11.613h44.73l.829-11.613Z" transform="translate(-40.231 -94.176)"/><path class="l" d="M91.573,302.363A5.79,5.79,0,0,0,94.8,291.247c-1.576-.5-3.109-1.036-4.6-1.637H126.79l.055.136c-1.386.545-2.8,1.042-4.26,1.5a5.788,5.788,0,0,0,3.218,11.117,52.613,52.613,0,0,0,9.273-3.4l-.595.284a5.87,5.87,0,0,0-3.3,4.135H86.167a5.87,5.87,0,0,0-3.273-4.135l-.595-.278A52.69,52.69,0,0,0,91.573,302.363Z" transform="translate(-37.772 -131.823)"/><path class="d" d="M89.61,316.84v0Z" transform="translate(-41.095 -144.2)"/><path class="d" d="M89.39,314.86h45.024a5.952,5.952,0,0,0-.12,1.091V314.86H89.51v1.091a5.951,5.951,0,0,0-.12-1.091Z" transform="translate(-40.995 -143.3)"/><path class="i" d="M205.8,173.381h0V138.252a27.007,27.007,0,0,0,14.548-8.662,70.335,70.335,0,0,1,15.372,43.791,71.46,71.46,0,0,1-1.233,13.233C229.529,208.009,205.8,208.456,205.8,173.381Z" transform="translate(-93.905 -59.092)"/><path class="i" d="M30.59,173.381c0,35.075-23.729,34.605-28.687,13.233A71.458,71.458,0,0,1,.67,173.381,70.335,70.335,0,0,1,16.042,129.59a26.941,26.941,0,0,0,14.548,8.668v35.124Z" transform="translate(-0.67 -59.092)"/><path class="i" d="M155.5,190.527l.829-11.613h3.993a2.449,2.449,0,0,0,2.455-2.455v-3.344a2.449,2.449,0,0,0-2.455-2.455h-4.68l-3.6-7.866a.666.666,0,0,0-.6-.387H136.69V150.379h1.969a15.288,15.288,0,0,0,8.646-2.182,29.37,29.37,0,0,1,4.26,5.395,65.262,65.262,0,0,0,1.042-7.326H167.1a32.548,32.548,0,0,0,7.277-.8V180.6A30.547,30.547,0,0,1,160.9,205.5c-2.182,1.484-4.478,2.88-6.764,4.146Z" transform="translate(-62.493 -66.309)"/><path class="i" d="M93.237,150.384v12.028H78.481a.665.665,0,0,0-.605.387l-3.595,7.866H69.6a2.449,2.449,0,0,0-2.455,2.455v3.344a2.449,2.449,0,0,0,2.455,2.455h3.5l2.182,30.438c-2.111-1.184-4.217-2.482-6.246-3.857A30.547,30.547,0,0,1,55.56,180.6V145.48a32.535,32.535,0,0,0,7.271.8h21.5a10.724,10.724,0,0,0,8.444,4.107Z" transform="translate(-25.618 -66.314)"/></g><g transform="translate(5.389)"><path class="m" d="M56.982,39.736c-19.676-1.2-29.516,9.857-29.516,22.943-.273,7.566,2.651,15.17,10.806,22.828a25.337,25.337,0,0,0,13.4,5.046,35.16,35.16,0,0,0,13.85,1.636l1.866-8.52c-15.846,4.942-27.645,1.026-32.729-17.581C33.477,47.907,43.132,41.536,56.982,39.736Z" transform="translate(-12.639 -18.396)"/><path class="m" d="M158.262,92.217a30.716,30.716,0,0,0,8.94-1.664,25.422,25.422,0,0,0,13.4-5.046c8.155-7.637,11.079-15.274,10.806-22.828,0-13.092-9.819-24.138-29.516-22.943,13.85,1.795,23.5,8.182,22.327,26.347C179.749,82.42,170.11,87.433,157.1,85.071Z" transform="translate(-71.568 -18.397)"/><path class="n" d="M135.314,125.839l-4.44-5.291c.376-6.546-.251-13.419-2.76-17.079-4.631-6.475-12.268-7.151-18.814-3.557,4.326-4.1,7.091-9.633,8.133-16.692C136.438,94.277,138.172,109.507,135.314,125.839Z" transform="translate(-49.842 -38.201)"/><path class="o" d="M127.056,205.93H80.69l.464,6.546h31.731a5.608,5.608,0,0,1,5.6,5.9l-.627,12.033c-.753,14.352-15.41,23.9-28.725,18.481q-.425-.175-.791-.344a21.819,21.819,0,0,1-3.453,2.286l7.244,2.967c3.507,5.018,2.269,8.69-3.426,11.106h29.849c-5.8-3.818-6.12-8-.693-12.508l5-2c-3.818-.895-5.488-3.273-4.909-7.249,1.036-2.5,3.5-4.62,6.944-6.469l2.182-26.647h-.289Z" transform="translate(-36.839 -93.975)"/><path class="p" d="M97.24,135.98c.976,6.437,3.911,10.8,11.122,10.631v-10.43Z" transform="translate(-44.361 -62.182)"/><path class="p" d="M130.19,139.35c3.911,1.746,7.309,3.818,9.633,6.633a16.365,16.365,0,0,1-9.028,2.591Z" transform="translate(-59.337 -63.713)"/><path class="n" d="M55.853.69H28.47q1.538,2.356,3.224,4.462l1.135,1.566h.18a38.8,38.8,0,0,0,9.819,8.22A22.714,22.714,0,0,1,39.069,9.8a2.089,2.089,0,0,1,1.855-3.077H55.106c12.753.191,21.879,6.688,25.294,14.766C77.209,9.445,68,3.565,55.853.69Z" transform="translate(-13.104 -0.69)"/><path class="n" d="M148.2.69h27.383q-1.538,2.356-3.224,4.462l-1.135,1.566h-.18a38.8,38.8,0,0,1-9.819,8.22A22.714,22.714,0,0,0,164.98,9.8a2.089,2.089,0,0,0-1.844-3.082H148.954c-12.748.191-21.879,6.688-25.294,14.766C126.835,9.445,136.048,3.565,148.2.69Z" transform="translate(-56.369 -0.69)"/><path class="m" d="M162.457,147.285l-16.61.387-.736,6.219h.049l-.049.469-4.969-4.964a23.36,23.36,0,0,1-10.451,2.078V163.5h14.728l4.064,8.253h7.271v8.253h-6.42l-2.182,30.727c9.175-4.429,16.365-11.368,20.237-22.512V146.68Z" transform="translate(-59.11 -67.045)"/><path class="q" d="M58.368,147.363V179c0,8.275.993,14.434,9.039,19.828l.829,11.624Q49.689,200.9,48.5,182.89V153.636l.513-6.966Z" transform="translate(-22.208 -67.04)"/><path class="r" d="M116.91,142.571l7.244,1.216v-5.837L117.3,136.32Z" transform="translate(-53.301 -62.336)"/><path class="s" d="M226.088,194.88c-3.458,4.413-3.011,5.951-8.422,5.793,7.779-12.884,7.119-25.027,4.086-39.771a18.126,18.126,0,0,0-20.123-14.183h-.158v-6.982l.316-.682c6.328-1.025,10.222-4.326,14.379-8.095l4.135,6.355C227.653,152.823,233.288,171.244,226.088,194.88Z" transform="translate(-91.735 -59.9)"/><path class="t" d="M15.48,161.083v22.365a6.491,6.491,0,0,1-6.491,6.491h0A6.486,6.486,0,0,1,2.5,183.257a52.333,52.333,0,0,1,6-23.816A3.676,3.676,0,0,1,11.8,157.39h0a3.682,3.682,0,0,1,3.677,3.693Z" transform="translate(-1.297 -71.913)"/><path class="u" d="M209.336,253.66c-6.344,18.546-18.956,31.894-36.749,41.015-7.528,2.613-11.455-8.63-3.906-11.243,7.277-3.666,13.681-7.729,18.328-12.59a72.2,72.2,0,0,0,9.382-12C200.412,259.649,204.765,257.609,209.336,253.66Z" transform="translate(-74.984 -115.669)"/><path class="u" d="M.3,225.863c9.742,14,24.192.878,25.027-18.083.775,18.421,1.7,22.474-10.217,29.767C5.569,238.709,2.531,236.26.3,225.863Z" transform="translate(-0.3 -94.816)"/><path class="t" d="M212.719,200.257h0a5.738,5.738,0,0,1-5.738-5.738V181.776a4.746,4.746,0,0,1,4.746-4.746h0A4.718,4.718,0,0,1,216,179.708c1.751,3.7,2.3,8.6,2.455,14.663a5.738,5.738,0,0,1-5.738,5.886Z" transform="translate(-94.24 -80.839)"/><path class="v" d="M96.009,56.4l.545.431A28.83,28.83,0,0,1,97.765,59.6a20.756,20.756,0,0,1,1.2,13.9v.153h0C95.943,85.111,83.8,93.948,71.615,91.111L70.9,88.695c8.815,1.036,15.066-3.42,18.088-9.557,4.528-9.2.616-20.221-8.33-25.223a25.343,25.343,0,0,0-3.344-1.555Z" transform="translate(-32.389 -24.175)"/><path class="v" d="M179.943,56.335l.736.589a28.238,28.238,0,0,1,1.593,3.949,20.658,20.658,0,0,1,.971,11.242c-.065.507-.142,1.015-.24,1.527l-.071-.136c-2.973,11.5-15.154,20.423-27.378,17.586l-.715-2.416c9.181,1.091,15.579-3.818,18.443-10.331A19.78,19.78,0,0,0,169.1,56.738a50.925,50.925,0,0,0-4.942-4.418Z" transform="translate(-70.541 -24.157)"/><path class="u" d="M49.658,220.536q-.387-1.456-.638-3.006C49.249,218.55,49.467,219.554,49.658,220.536Z" transform="translate(-22.444 -99.247)"/><path class="s" d="M5.54,242.725c6.682,15.306,27.138,6,25.91-14.455-.682-1.636-3.382-4.189-3.382-4.189C29,236.179,19.313,250.5,5.54,242.725Z" transform="translate(-2.682 -102.224)"/><g class="w" transform="translate(27.357 120.366)"><path class="a" d="M124.442.35h0l2.127,7.566a30.591,30.591,0,0,1-11.8,15.344,88.616,88.616,0,0,1-10.4,6.049,6.028,6.028,0,0,0-2.995,7.484,1.638,1.638,0,0,0,.093.224,6,6,0,0,1-.371-10.981,88.612,88.612,0,0,0,10.4-6.049A30.547,30.547,0,0,0,124.442.35Z" transform="translate(-44.649 -0.35)"/><path class="a" d="M94.136,71.784a5.782,5.782,0,0,1,.344-10.91c1.555-.491,3.071-1.026,4.549-1.636,1.331-.545,2.624-1.091,3.889-1.7A58.122,58.122,0,0,0,119.866,45.35h0a4.549,4.549,0,0,1-.224,6.639,59.884,59.884,0,0,1-13.463,8.864,63.277,63.277,0,0,1-8.439,3.317,5.771,5.771,0,0,0-3.873,6.791A5.161,5.161,0,0,0,94.136,71.784Z" transform="translate(-41.35 -20.803)"/><path class="a" d="M27.79,70.992A5.771,5.771,0,0,0,23.917,64.2a63.277,63.277,0,0,1-8.439-3.317A59.883,59.883,0,0,1,2.005,52.059a4.549,4.549,0,0,1-.224-6.639h0A58.121,58.121,0,0,0,18.73,57.612c1.266.605,2.558,1.173,3.889,1.7,1.478.595,2.995,1.129,4.549,1.636a5.782,5.782,0,0,1,.344,10.91,5.16,5.16,0,0,0,.278-.862Z" transform="translate(-0.451 -20.835)"/><path class="a" d="M26.254,45.877a1.636,1.636,0,0,0,.093-.224,6,6,0,0,0-2.989-7.484,88.17,88.17,0,0,1-10.4-6.049q-.605-.409-1.189-.845A9.879,9.879,0,0,1,8.155,20.85h0a30.514,30.514,0,0,0,8.073,8,88.172,88.172,0,0,0,10.4,6.049,6.028,6.028,0,0,1-.376,10.981Z" transform="translate(-3.803 -9.668)"/></g><path class="x" d="M82.605,315.87h8.646v5.842a4.326,4.326,0,0,1-4.326,4.326h0a4.326,4.326,0,0,1-4.326-4.326V315.87Z" transform="translate(-37.707 -143.945)"/><path class="n" d="M126.1,192.576H92.067v-.546H76.935v.546h-4.68A2.455,2.455,0,0,0,69.8,195.03V198.3a2.449,2.449,0,0,1,2.455-2.455h2.471a2.182,2.182,0,0,1,2.182,2.182v2.226H92.039V198.39a2.569,2.569,0,0,1,2.569-2.569h31.469a2.449,2.449,0,0,1,2.455,2.455V195A2.455,2.455,0,0,0,126.1,192.576Z" transform="translate(-31.889 -87.657)"/><path class="n" d="M127.007,180.793l-1.32-2.886a.665.665,0,0,0-.6-.387H88.976a.665.665,0,0,0-.605.387l-1.32,2.886h2.913a1.516,1.516,0,0,1,1.424,2.051l-.862,2.307,11.935.829.469-3.4a2.062,2.062,0,0,1,2.04-1.778Z" transform="translate(-39.729 -81.062)"/><circle class="y" cx="2.253" cy="2.253" r="2.253" transform="translate(29.178 53.479)"/></g><g transform="translate(0 0.371)"><circle class="z" cx="9.197" cy="9.197" r="9.197" transform="translate(44.413 46.71)"/><circle class="aa" cx="22.943" cy="22.943" r="22.943" transform="translate(26.789 20.963)"/><path class="ab" d="M151.907,84.218A22.943,22.943,0,1,0,133.65,61.755" transform="translate(-60.975 -17.844)"/><path class="ab" d="M121.642,80.87c13.146,9.415,22.943,19.163,18.186,43.366h0a28.992,28.992,0,0,0-24.721-13.85H107.23c0-5,1.555-8.253,4.364-10.55" transform="translate(-48.967 -36.959)"/><path class="ab" d="M139.69,152.652h1.969a15.288,15.288,0,0,0,8.646-2.182" transform="translate(-63.721 -68.593)"/><path class="ab" d="M107.24,134.98v.158a10.642,10.642,0,0,0,10.681,10.468h.447" transform="translate(-48.971 -61.553)"/><path class="ab" d="M69.141,89.435H47.621c-26.02,0-36.264-28.207-23.783-47.964,13.288-22.065,43.922-28.5,57.5-11.013" transform="translate(-8.657 -9.483)"/><path class="ab" d="M89.8,21.344h0A28.943,28.943,0,0,0,61.98.37H37.16A52.628,52.628,0,0,0,52.226,14.809" transform="translate(-17.119 -0.37)"/><path class="ab" d="M133.66,30.457c13.577-17.488,44.184-11.051,57.494,11.013,12.486,19.757,2.242,47.964-23.783,47.964H152.877" transform="translate(-60.98 -9.483)"/><path class="ab" d="M133.66,21.344h0A28.943,28.943,0,0,1,161.48.37H186.3a52.628,52.628,0,0,1-15.066,14.439" transform="translate(-60.98 -0.37)"/><path class="ab" d="M92.866,237.213,90.7,206.77h46.361L134.873,237.5" transform="translate(-41.454 -94.182)"/><path class="ab" d="M98.39,314.86h37.971" transform="translate(-44.949 -143.311)"/><rect class="aa" width="58.759" height="8.253" rx="4.127" transform="translate(43.295 104.34)"/><path class="ab" d="M137.365,184.773l-3.6-7.866a.665.665,0,0,0-.605-.387H97.076a.665.665,0,0,0-.605.387l-3.6,7.866" transform="translate(-42.44 -80.433)"/><path class="ab" d="M134.2,136.853v20.941H127.63V135.32" transform="translate(-58.239 -61.707)"/><path class="ab" d="M58.52,145.47v34.687A30.58,30.58,0,0,0,72,205.5a88.885,88.885,0,0,0,10.4,6.049,6,6,0,0,1,2.989,7.5h0a6,6,0,0,1-8.215,3.387,58.122,58.122,0,0,1-16.948-12.2" transform="translate(-26.827 -66.32)"/><path class="ab" d="M155.77,125.35a13.091,13.091,0,0,1,1.135,4.217" transform="translate(-71.029 -57.176)"/><path class="ab" d="M34.108,209.87c0,36.88-26.227,34.464-29.3,9.775" transform="translate(-2.415 -95.591)"/><path class="ab" d="M7.571,314.85H.42" transform="translate(-0.42 -143.306)"/><path class="ab" d="M41.782,314.85H23.53" transform="translate(-10.924 -143.306)"/><path class="ab" d="M235.33,314.85H210.32" transform="translate(-95.823 -143.306)"/><path class="ab" d="M267.8,315h-.055" transform="translate(-121.926 -143.375)"/><path class="ab" d="M137.41,314.85H92.38" transform="translate(-42.217 -143.306)"/><path class="ab" d="M92.61,314.87h8.728v6.519a4.364,4.364,0,0,1-4.364,4.364h0a4.364,4.364,0,0,1-4.364-4.364Z" transform="translate(-42.322 -143.315)"/><path class="ab" d="M108.58,314.87h8.728v8.357a4.364,4.364,0,0,1-4.364,4.364h0a4.364,4.364,0,0,1-4.364-4.364Z" transform="translate(-49.581 -143.315)"/><path class="ab" d="M152,228.06H125.39" transform="translate(-57.221 -103.859)"/><path class="ab" d="M99.4,228.06H92.22" transform="translate(-42.145 -103.859)"/><path class="ab" d="M99.74,289.61h36.6" transform="translate(-45.563 -131.834)"/><rect class="aa" width="19.806" height="12.284" rx="6.142" transform="translate(61.336 143.637) rotate(-45.01)"/><path class="ab" d="M120.025,260a3.273,3.273,0,0,1,0-4.62l.109-.1.033-.033a7.909,7.909,0,0,1,5.242-2.182l1.636-.065,1.636-.065a7.91,7.91,0,0,0,5.242-2.182l.033-.033.115-.1a3.273,3.273,0,0,0,0-4.62" transform="translate(-54.349 -112.008)"/><path class="ab" d="M94.973,56.669q-20.254-10.708-40.513,0" transform="translate(-24.982 -23.525)"/><path class="ab" d="M138.59,56.669q20.254-10.708,40.513,0" transform="translate(-63.221 -23.525)"/><path class="ab" d="M74.058,285.23a63.563,63.563,0,0,0,8.439,3.316,5.771,5.771,0,0,1,3.873,6.786h0a5.8,5.8,0,0,1-7.091,4.331c-9.857-2.515-20.287-8.913-27.618-15.994" transform="translate(-23.709 -129.135)"/><path class="ab" d="M186.087,145.47v34.687A30.58,30.58,0,0,1,172.609,205.5a88.887,88.887,0,0,1-10.4,6.049,6,6,0,0,0-2.995,7.5h0a6,6,0,0,0,8.215,3.387,58.121,58.121,0,0,0,16.948-12.2" transform="translate(-72.42 -66.32)"/><path class="ab" d="M208.8,209.87c0,36.88,26.227,34.464,29.3,9.775" transform="translate(-95.132 -95.591)"/><path class="ab" d="M164.22,285.23a63.563,63.563,0,0,1-8.439,3.316,5.771,5.771,0,0,0-3.873,6.786h0A5.8,5.8,0,0,0,159,299.664c9.857-2.515,20.287-8.913,27.618-15.994" transform="translate(-69.207 -129.135)"/><path class="ab" d="M46.543,225.469c.72.365,1.446.715,2.182,1.058a5.935,5.935,0,0,1-2.509,11.313,5.761,5.761,0,0,1-2.531-.584A70.629,70.629,0,0,1,19,129.6" transform="translate(-1.879 -59.107)"/><path class="ab" d="M4.364,0h0A4.364,4.364,0,0,1,8.728,4.364v6.519H0V4.358A4.364,4.364,0,0,1,4.364,0Z" transform="translate(95.072 182.426) rotate(180)"/><path class="ab" d="M4.364.005h0A4.364,4.364,0,0,1,8.728,4.369v8.357H0V4.364A4.364,4.364,0,0,1,4.364,0Z" transform="translate(86.361 184.27) rotate(180)"/><path class="ab" d="M207.848,129.59a70.629,70.629,0,0,1-24.683,107.657,5.761,5.761,0,0,1-2.531.584,5.935,5.935,0,0,1-2.509-11.313c.747-.344,1.473-.693,2.182-1.058" transform="translate(-79.632 -59.103)"/><path class="ab" d="M81.85,131.96c4.8,1.636,7.091,1.636,13.85,1.636" transform="translate(-37.431 -60.18)"/><path class="ab" d="M169.1,133.586c3.322,0,5.455,0,8.919-1.636" transform="translate(-77.088 -60.175)"/><path class="ab" d="M42.39,103.41a29.6,29.6,0,0,0,8.128,10.528" transform="translate(-19.496 -47.203)"/><path class="ab" d="M37.48,80.87a29.554,29.554,0,0,0,1.091,7.91" transform="translate(-17.264 -36.959)"/><path class="ab" d="M225.19,92.822a29.4,29.4,0,0,0,2.52-11.952" transform="translate(-102.582 -36.959)"/><path class="ab" d="M209.99,116.993a29.669,29.669,0,0,0,6.131-6.873" transform="translate(-95.673 -50.253)"/><path class="ab" d="M19.81,221.84c0,4.528,6.911,4.528,6.911,0" transform="translate(-9.233 -101.032)"/><path class="ab" d="M32.66,198.7c0,4.527,6.911,4.527,6.911,0" transform="translate(-15.074 -90.514)"/><path class="ab" d="M28.721,175.55c0,4.528-6.911,4.528-6.911,0" transform="translate(-10.142 -79.992)"/><path class="ab" d="M241.731,221.84c0,4.528-6.911,4.528-6.911,0" transform="translate(-106.959 -101.032)"/><path class="ab" d="M228.891,198.7c0,4.527-6.911,4.527-6.911,0" transform="translate(-101.123 -90.514)"/><path class="ab" d="M232.82,175.55c0,4.528,6.911,4.528,6.911,0" transform="translate(-106.05 -79.992)"/></g><g class="ac" transform="translate(37.414 37.287)"><path class="a" d="M8.691,0c4.839.06,8.794,2.763,8.833,6.037s-3.851,5.88-8.691,5.82S.04,9.1,0,5.821,3.852-.059,8.691,0Z" transform="matrix(0.353, -0.936, 0.936, 0.353, 0, 16.396)"/></g><circle class="z" cx="9.197" cy="9.197" r="9.197" transform="translate(92.416 47.081)"/><g class="ac" transform="translate(85.416 37.287)"><path class="a" d="M8.691,0c4.839.06,8.794,2.763,8.833,6.037s-3.851,5.88-8.691,5.82S.04,9.1,0,5.821,3.852-.059,8.691,0Z" transform="matrix(0.353, -0.936, 0.936, 0.353, 0, 16.396)"/></g></g></g></g></g></svg>