<svg xmlns="http://www.w3.org/2000/svg" width="456" height="516.319" viewBox="0 0 456 516.319"><defs><style>.a,.k,.o,.s,.u{fill:#fff;}.a{opacity:0.01;}.b{fill:#e07070;}.c{fill:#ff906e;}.d{fill:#f5efd0;}.e{fill:#00bfff;}.f{fill:#ffaf33;}.g{fill:#e6a88a;}.h{fill:#f2f7ff;}.i{fill:#f06c00;opacity:0.6;}.j,.m,.n,.p{fill:#0047ff;}.j,.l{opacity:0.25;}.k{opacity:0.4;}.l{fill:#946a6a;}.m{opacity:0.22;}.n{opacity:0.2;}.o,.r{opacity:0.3;}.p,.q{opacity:0.15;}.q{fill:#f08400;}.t{fill:#e89025;}.u,.z{opacity:0.75;}.v{fill:#2d3f70;}.w,.x,.y{fill:none;stroke:#2d3f70;stroke-linecap:round;stroke-linejoin:round;}.w,.x{stroke-width:6px;}.x,.y{fill-rule:evenodd;}.y{stroke-width:4px;}.aa,.ab,.ac{fill:#00cfff;font-family:Avenir-Heavy, Avenir;font-weight:800;}.aa{font-size:44px;}.ab{font-size:56px;}.ac{font-size:70px;}</style></defs><g transform="translate(-44 -282.681)"><rect class="a" width="456" height="482" transform="translate(44 317)"/><g transform="translate(148.57 409.548)"><g transform="translate(2.58 0.31)"><path class="b" d="M179.07,306.76c.57-.26,1.13-.54,1.69-.81C180.2,306.23,179.64,306.5,179.07,306.76Z"/><path class="b" d="M171.71,316.84v.74C171.7,317.35,171.7,317.09,171.71,316.84Z"/><path class="c" d="M180.02,191.65h-8.58l-6.6-14.42a1.22,1.22,0,0,0-1.1-.71H97.58a1.22,1.22,0,0,0-1.11.71l-6.59,14.42H81.3a4.49,4.49,0,0,0-4.5,4.5v6.13a4.49,4.49,0,0,0,4.5,4.5h98.72a4.49,4.49,0,0,0,4.5-4.5v-6.13a4.49,4.49,0,0,0-4.5-4.5Z"/><path class="d" d="M208.5,61.11q-37.12-19.6-74.24,0h0a41.89,41.89,0,0,0-4.96,19.76c15.57,11.14,28.57,22.55,33.49,41.18a42.069,42.069,0,0,0,45.7-60.94Z"/><path class="d" d="M50.13,61.12a42.06,42.06,0,1,0,74.27,0Q87.3,41.5,50.13,61.12Z"/><path class="e" d="M130.66,38.8a53.06,53.06,0,0,1,51-38.45h45.5a96.48,96.48,0,0,1-27.62,26.47C174.72,15.8,146.42,18.51,130.66,38.8Z"/><path class="e" d="M130.66,38.8c-15.77-20.28-44.06-23-68.88-12A96.48,96.48,0,0,1,34.16.35h45.5A53.06,53.06,0,0,1,130.66,38.8Z"/><path class="f" d="M166.11,134.95a65.34,65.34,0,0,0-2-12.9c-4.92-18.63-17.92-30-33.49-41.18a42,42,0,0,1-18.32,34.77c-5.17,4.21-8,10.17-8,19.34v.29a19.12,19.12,0,0,0,4.1,11.67,19.66,19.66,0,0,0,15.48,7.53h.81V135.35c4.117.457-7.445,1.37,0,19.12,8.59,0,28.3-2.15,31.46-3.97a53.84,53.84,0,0,1,7.81,9.89,119.63,119.63,0,0,0,1.91-13.43A87,87,0,0,0,166.11,134.95Z"/><path class="e" d="M172.71,38.81c15.547-.01,25.756,2.665,33.048,16.4-34.548,2.663-51.945,3.685-70.168,5.9V57.917C144.126,45.093,157.167,38.813,172.71,38.81Z"/><path class="e" d="M88.59,38.81c15.553,0,23.228,1.237,30.529,14.969C91.05,49.543,76.227,48.04,51.46,61.12A42,42,0,0,1,88.59,38.81Z"/><path class="e" d="M171.93,314.86a10.76,10.76,0,0,1,6.05-7.58l1.09-.52c.57-.26,1.13-.53,1.69-.81-.56.27-1.12.55-1.69.81a96.45,96.45,0,0,1-17,6.23,10.61,10.61,0,0,1-5.9-20.38c2.67-.84,5.27-1.75,7.81-2.75s5.17-2.14,7.66-3.33a10.88,10.88,0,0,1-4.68,1.05,11.06,11.06,0,0,1-4.9-21c2.21-1.09,4.44-2.25,6.67-3.49,4.19-2.32,8.37-4.88,12.4-7.6a56,56,0,0,0,24.7-45.64h0c0,64.3,43.5,63.44,52.59,24.26a130.22,130.22,0,0,1-71.17,92.82,10.56,10.56,0,0,1-4.64,1.07,10.89,10.89,0,0,1-10.18-7.08,11.06,11.06,0,0,1-.69-3.36v-.74a10.91,10.91,0,0,1,.19-1.96Z"/><path class="e" d="M89.72,286.53c2.28,1.1,4.63,2.12,7,3.08h0c2.73,1.1,5.54,2.09,8.43,3a10.62,10.62,0,0,1-5.85,20.38,96.589,96.589,0,0,1-17-6.22l1.09.51a10.76,10.76,0,0,1,6,7.58,10.911,10.911,0,0,1,.22,2v.74a11.06,11.06,0,0,1-.69,3.36,10.89,10.89,0,0,1-10.18,7.08,10.56,10.56,0,0,1-4.64-1.07A130.36,130.36,0,0,1,2.93,234.15c9.09,39.18,52.59,40,52.59-24.26h0a56,56,0,0,0,24.7,45.64c3.72,2.52,7.58,4.9,11.45,7.07h0c2.54,1.43,5.09,2.77,7.62,4a11.06,11.06,0,0,1-4.91,21,10.87,10.87,0,0,1-4.66-1.07Z"/><path class="f" d="M171.71,317.58v9.23a8,8,0,0,1-16,0V314.87h16v2C171.7,317.09,171.7,317.35,171.71,317.58Z"/><path class="f" d="M155.73,326.81v3.38a8,8,0,0,1-16,0V314.87h16Z"/><path class="f" d="M121.56,314.87v15.32a8,8,0,0,1-16,0V314.87Z"/><path class="f" d="M105.59,314.87v11.94a8,8,0,1,1-16,0V314.84h16Z"/><path class="e" d="M55.52,145.48a49.39,49.39,0,0,1-26.67-15.89C13,111.31,10.71,82.03,25.25,59.01A81.23,81.23,0,0,1,61.78,26.82c24.82-11,53.11-8.3,68.88,12,15.76-20.29,44.06-23,68.88-12a81.26,81.26,0,0,1,36.52,32.19c14.55,23,12.26,52.3-3.59,70.58a49.51,49.51,0,0,1-26.67,15.88,59.67,59.67,0,0,1-13.34,1.46H165.9a86.939,86.939,0,0,0,.21-12,65.34,65.34,0,0,0-2-12.9,42.074,42.074,0,1,0-33.49-41.18,42,42,0,1,0-18.32,34.79c-5.17,4.21-8,10.17-8,19.34v.29a19.12,19.12,0,0,0,4.1,11.67H68.85a59.64,59.64,0,0,1-13.33-1.46Z"/><path class="g" d="M166.92,287.58a11.06,11.06,0,0,1-4.9-21c2.21-1.09,4.44-2.25,6.67-3.49l2.49-35h-82l2.46,34.51h0c2.54,1.43,5.09,2.77,7.62,4a11.06,11.06,0,0,1-4.91,21,10.87,10.87,0,0,1-4.67-1.05c2.28,1.1,4.63,2.12,7,3.08h67.09l.1.25q3.93-1.54,7.66-3.33a10.879,10.879,0,0,1-4.61,1.03Z"/><path class="h" d="M87.71,206.78l1.51,21.29h82l1.52-21.29Z"/><path class="h" d="M99.3,312.99a10.614,10.614,0,0,0,5.91-20.38c-2.89-.91-5.7-1.9-8.43-3h67.08l.1.25c-2.54,1-5.14,1.91-7.81,2.75a10.61,10.61,0,0,0,5.9,20.38,96.45,96.45,0,0,0,17-6.23l-1.09.52a10.76,10.76,0,0,0-6.05,7.58H89.39a10.76,10.76,0,0,0-6-7.58l-1.09-.51A96.589,96.589,0,0,0,99.3,312.99Z"/><path class="b" d="M89.61,316.84v0Z"/><path class="b" d="M89.39,314.86h82.54a10.91,10.91,0,0,0-.22,2v-2H89.61v2a10.911,10.911,0,0,0-.22-2Z"/><path class="e" d="M205.8,209.87h0v-64.4a49.51,49.51,0,0,0,26.67-15.88,128.94,128.94,0,0,1,28.18,80.28,131,131,0,0,1-2.26,24.26C249.3,273.35,205.8,274.17,205.8,209.87Z"/><path class="e" d="M55.52,209.87c0,64.3-43.5,63.44-52.59,24.26A131,131,0,0,1,.67,209.87a128.94,128.94,0,0,1,28.18-80.28,49.39,49.39,0,0,0,26.67,15.89v64.39Z"/><path class="e" d="M171.18,228.07l1.52-21.29h7.32a4.49,4.49,0,0,0,4.5-4.5v-6.13a4.49,4.49,0,0,0-4.5-4.5h-8.58l-6.6-14.42a1.22,1.22,0,0,0-1.1-.71H136.69V154.47h3.61c8.59,0,12.69-2.18,15.85-4a53.84,53.84,0,0,1,7.81,9.89,119.649,119.649,0,0,0,1.91-13.43h26.56a59.671,59.671,0,0,0,13.34-1.46v64.4a56,56,0,0,1-24.7,45.64c-4,2.72-8.21,5.28-12.4,7.6Z"/><path class="e" d="M137.069,154.47v22.05H97.58a1.22,1.22,0,0,0-1.11.71l-6.59,14.42H81.3a4.49,4.49,0,0,0-4.5,4.5v6.13a4.49,4.49,0,0,0,4.5,4.5h6.41l4,55.8c-3.87-2.17-7.73-4.55-11.45-7.07a56,56,0,0,1-24.7-45.64V145.48a59.64,59.64,0,0,0,13.33,1.46H108.3c3.728,4.756,22.088,7.533,28.131,7.53Z"/><path class="i" d="M97.24,135.98c5.061,16.257,16.478,19.79,46.861,19.49,0,0,2.574-10.315-9.142-15.187S97.24,135.98,97.24,135.98Z" transform="translate(7 -1)"/></g><g transform="translate(9.58 -0.69)"><path class="j" d="M81.59,39.81c-36.07-2.2-54.11,18.07-54.11,42.06-.5,13.87,4.86,27.81,19.81,41.85,7.48,5.25,15.51,8.8,24.56,9.25,6.79,2.45,15.13,3.55,25.39,3l3.42-15.62c-29.05,9.06-50.68,1.88-60-32.23C38.5,54.79,56.2,43.11,81.59,39.81Z"/><path class="j" d="M159.23,136.02a56.31,56.31,0,0,0,16.39-3.05c9-.45,17.08-4,24.56-9.25,14.95-14,20.31-28,19.81-41.85,0-24-18-44.25-54.11-42.06,25.39,3.29,43.09,15,40.93,48.3-8.19,29.95-25.86,39.14-49.71,34.81Z"/><path class="k" d="M156.99,161.35l-8.14-9.7c.69-12-.46-24.6-5.06-31.31-8.49-11.87-22.49-13.11-34.49-6.52,7.93-7.52,13-17.66,14.91-30.6C159.05,103.49,162.23,131.41,156.99,161.35Z"/><path class="l" d="M165.69,205.93h-85l.85,12h58.17a10.28,10.28,0,0,1,10.26,10.81l-1.15,22.06c-1.38,26.31-28.25,43.81-52.66,33.88q-.78-.32-1.45-.63a40,40,0,0,1-6.33,4.19l13.28,5.44c6.43,9.2,4.16,15.93-6.28,20.36H150.1c-10.64-7-11.22-14.67-1.27-22.93l9.16-3.67c-7-1.64-10.06-6-9-13.29,1.9-4.59,6.41-8.47,12.73-11.86l4-48.85h-.53Z"/><path class="k" d="M78.67.69H28.47q2.82,4.32,5.91,8.18l2.08,2.87h.33a71.13,71.13,0,0,0,18,15.07,41.64,41.64,0,0,1-6.89-9.42,3.83,3.83,0,0,1,3.4-5.64h26c23.38.35,40.11,12.26,46.37,27.07C117.82,16.74,100.94,5.96,78.67.69Z"/><path class="k" d="M168.64.69h50.2q-2.82,4.32-5.91,8.18l-2.08,2.87h-.33a71.13,71.13,0,0,1-18,15.07,41.64,41.64,0,0,0,6.89-9.42,3.83,3.83,0,0,0-3.38-5.65h-26c-23.37.35-40.11,12.26-46.37,27.07C129.48,16.74,146.37,5.96,168.64.69Z"/><path class="j" d="M189.76,147.79l-30.45.71-1.35,11.4h.09l-.09.86-9.11-9.1c-5.16,2.57-17.441,4.043-25.031,4.043V177.52H156.69l7.45,15.13h13.33v15.13H165.7l-4,56.33c16.82-8.12,30-20.84,37.1-41.27V146.68Z"/><path class="m" d="M66.59,147.94v58c0,15.17,1.82,26.46,16.57,36.35l1.52,21.31q-34-17.52-36.18-50.53V159.44l.94-12.77Z"/><path class="n" d="M246.6,248.14c-6.34,8.09-5.52,10.91-15.44,10.62,14.26-23.62,13.05-45.88,7.49-72.91a33.23,33.23,0,0,0-36.89-26h-.29v-12.8l.58-1.25c11.6-1.88,18.74-7.93,26.36-14.84l7.58,11.65C249.47,171.04,259.8,204.81,246.6,248.14Z"/><path class="o" d="M26.3,164.16v41a11.9,11.9,0,0,1-11.9,11.9h0A11.89,11.89,0,0,1,2.5,204.81c.6-17.79,3.86-29.13,11-43.66a6.74,6.74,0,0,1,6.06-3.76h0a6.75,6.75,0,0,1,6.74,6.77Z"/><path class="p" d="M246.6,253.66c-11.63,34-34.75,58.47-67.37,75.19-13.8,4.79-21-15.82-7.16-20.61,13.34-6.72,25.08-14.17,33.6-23.08a132.35,132.35,0,0,0,17.2-22C230.24,264.64,238.22,260.9,246.6,253.66Z"/><path class="p" d="M.3,240.93c17.86,25.67,44.35,1.61,45.88-33.15,1.42,33.77,3.12,41.2-18.73,54.57C9.96,264.48,4.39,259.99.3,240.93Z"/><path class="o" d="M217.5,219.61h0a10.52,10.52,0,0,1-10.52-10.52V185.73a8.7,8.7,0,0,1,8.7-8.7h0a8.65,8.65,0,0,1,7.84,4.91c3.21,6.79,4.21,15.76,4.5,26.88a10.52,10.52,0,0,1-10.52,10.79Z"/><path class="q" d="M116.93,59.76l1,.79a52.851,52.851,0,0,1,2.22,5.08,38.05,38.05,0,0,1,2.2,25.49v.28h0c-5.54,21-27.8,37.2-50.14,32l-1.31-4.43c16.16,1.9,27.62-6.27,33.16-17.52,8.3-16.86,3.367-32.52-13.033-41.69-1.971-1.1-10.864-6.9-12.974-7.7Z"/><path class="q" d="M200.86,59.68l1.35,1.08A51.763,51.763,0,0,1,205.13,68a37.87,37.87,0,0,1,1.78,20.61c-.12.93-.26,1.86-.44,2.8l-.13-.25c-5.45,21.09-27.78,37.44-50.19,32.24l-1.31-4.43c16.83,2,28.56-7,33.81-18.94,5.9-13.43,2.52-29.06-7.67-39.61a93.359,93.359,0,0,0-9.06-8.1Z"/><path class="p" d="M50.19,223.04q-.71-2.67-1.17-5.51C49.44,219.4,49.84,221.24,50.19,223.04Z"/><path class="n" d="M5.54,258.26c12.25,28.06,49.75,11,47.5-26.5-1.25-3-6.2-7.68-6.2-7.68C48.54,246.26,30.79,272.51,5.54,258.26Z"/><g class="r" transform="translate(50 221)"><path class="s" d="M146.73.35h0l3.9,13.87A56.08,56.08,0,0,1,129,42.35a162.45,162.45,0,0,1-19.07,11.09,11.05,11.05,0,0,0-5.49,13.72,3,3,0,0,0,.17.41,11,11,0,0,1-.68-20.13A162.45,162.45,0,0,0,123,36.35a56,56,0,0,0,23.73-36Z"/><path class="s" d="M97.22,93.81a10.6,10.6,0,0,1,.63-20c2.85-.9,5.63-1.88,8.34-3,2.44-1,4.81-2,7.13-3.11a106.55,106.55,0,0,0,31.07-22.35h0a8.34,8.34,0,0,1-.41,12.17A109.78,109.78,0,0,1,119.3,73.77a116,116,0,0,1-15.47,6.08,10.58,10.58,0,0,0-7.1,12.45A9.46,9.46,0,0,0,97.22,93.81Z"/><path class="s" d="M50.57,92.3a10.58,10.58,0,0,0-7.1-12.45A116,116,0,0,1,28,73.77,109.78,109.78,0,0,1,3.3,57.59a8.34,8.34,0,0,1-.41-12.17h0A106.55,106.55,0,0,0,33.96,67.77c2.32,1.11,4.69,2.15,7.13,3.11,2.71,1.09,5.49,2.07,8.34,3a10.6,10.6,0,0,1,.63,20,9.46,9.46,0,0,0,.51-1.58Z"/><path class="s" d="M41.61,66.73a3,3,0,0,0,.17-.41A11,11,0,0,0,36.3,52.6,161.64,161.64,0,0,1,17.23,41.51q-1.11-.75-2.18-1.55A18.11,18.11,0,0,1,8.43,20.85h0a55.94,55.94,0,0,0,14.8,14.66A161.64,161.64,0,0,0,42.3,46.6a11.05,11.05,0,0,1-.69,20.13Z"/></g><path class="t" d="M82.61,315.87H98.46v10.71a7.93,7.93,0,0,1-7.93,7.93h0a7.93,7.93,0,0,1-7.93-7.93V315.87Z"/><path class="k" d="M173.02,193.03h-62.4v-1H82.88v1H74.3a4.5,4.5,0,0,0-4.5,4.5v6a4.49,4.49,0,0,1,4.5-4.5h4.53a4,4,0,0,1,4,4v4.08h27.74v-3.42a4.71,4.71,0,0,1,4.71-4.71h57.69a4.49,4.49,0,0,1,4.5,4.5v-6A4.5,4.5,0,0,0,173.02,193.03Z"/><path class="k" d="M160.3,183.52l-2.42-5.29a1.22,1.22,0,0,0-1.1-.71H90.58a1.22,1.22,0,0,0-1.11.71l-2.42,5.29h5.34A2.78,2.78,0,0,1,95,187.28l-1.58,4.23,21.88,1.52.86-6.24a3.78,3.78,0,0,1,3.74-3.26Z"/><circle class="u" cx="4.13" cy="4.13" r="4.13" transform="translate(53.79 98.73)"/></g><g transform="translate(-0.42 0.31)"><circle class="v" cx="16.86" cy="16.86" r="16.86" transform="translate(74.84 65)"/><circle class="w" cx="42.06" cy="42.06" r="42.06" transform="translate(49.53 38.8)"/><circle class="v" cx="16.86" cy="16.86" r="16.86" transform="translate(158.84 64)"/><path class="x" d="M167.12,122.05a42.06,42.06,0,1,0-33.47-41.18"/><path class="x" d="M133.65,80.87c24.1,17.26,42.06,35.13,33.34,79.5h0a53.15,53.15,0,0,0-45.32-25.39H107.23c0-9.17,2.85-15.13,8-19.34"/><path class="x" d="M139.69,154.47h3.61c8.59,0,12.69-2.18,15.85-4"/><path class="x" d="M107.24,134.98v.29a19.51,19.51,0,0,0,19.58,19.19h13.7"/><path class="x" d="M111.3,146.94H71.85c-47.7,0-66.48-51.71-43.6-87.93C52.61,18.56,108.77,6.76,133.66,38.82"/><path class="x" d="M133.66,38.82h0A53.06,53.06,0,0,0,82.66.37H37.16A96.48,96.48,0,0,0,64.78,26.84"/><path class="x" d="M133.66,38.82c24.89-32.06,81-20.26,105.4,20.19,22.89,36.22,4.11,87.93-43.6,87.93H168.89"/><path class="x" d="M133.66,38.82h0a53.06,53.06,0,0,1,51-38.45h45.5a96.48,96.48,0,0,1-27.62,26.47"/><path class="x" d="M94.67,262.58,90.7,206.77h84.99l-4.01,56.33"/><path class="x" d="M98.39,314.86H168"/><rect class="w" width="107.72" height="15.13" rx="4.5" transform="translate(79.79 191.65)"/><path class="x" d="M174.44,191.65l-6.6-14.42a1.22,1.22,0,0,0-1.11-.71H100.58a1.22,1.22,0,0,0-1.11.71l-6.6,14.42"/><path class="x" d="M58.52,145.47v63.59a56.06,56.06,0,0,0,24.71,46.45A162.938,162.938,0,0,0,102.3,266.6a11,11,0,0,1,5.48,13.75h0a11,11,0,0,1-15.06,6.21A106.55,106.55,0,0,1,61.65,264.2"/><path class="x" d="M155.77,125.35a24,24,0,0,1,2.08,7.73"/><path class="x" d="M58.52,209.87c0,67.61-48.08,63.18-53.71,17.92"/><path class="x" d="M13.53,314.85H.42"/><path class="x" d="M56.99,314.85H23.53"/><path class="x" d="M256.17,314.85H210.32"/><path class="x" d="M267.85,315h-.1"/><path class="x" d="M174.93,314.85H92.38"/><path class="x" d="M92.61,314.87h16v11.95a8,8,0,0,1-8,8h0a8,8,0,0,1-8-8Z"/><path class="x" d="M108.58,314.87h16v15.32a8,8,0,0,1-8,8h0a8,8,0,0,1-8-8Z"/><path class="x" d="M174.18,228.06H125.39"/><path class="x" d="M105.39,228.06H92.22"/><path class="x" d="M99.74,289.61h67.09"/><path class="x" d="M128.73,61.13c-33.032-18.356-49.51-13.087-74.27,0"/><path class="x" d="M138.59,61.13a33.734,33.734,0,0,1,0,3.436c37.861-7.68,30.666-7.779,69.132-11.173.118-.01-3.45.031-3.095,0"/><path class="x" d="M92.72,286.53a116.507,116.507,0,0,0,15.47,6.08,10.58,10.58,0,0,1,7.1,12.44h0a10.63,10.63,0,0,1-13,7.94c-18.07-4.61-37.19-16.34-50.63-29.32"/><path class="x" d="M208.8,145.47v63.59a56.06,56.06,0,0,1-24.71,46.45,162.938,162.938,0,0,1-19.07,11.09,11,11,0,0,0-5.49,13.75h0a11,11,0,0,0,15.06,6.21,106.55,106.55,0,0,0,31.07-22.36"/><path class="x" d="M208.8,209.87c0,67.61,48.08,63.18,53.71,17.92"/><path class="x" d="M174.6,286.53a116.508,116.508,0,0,1-15.47,6.08,10.58,10.58,0,0,0-7.1,12.44h0a10.63,10.63,0,0,0,13,7.94c18.07-4.61,37.19-16.34,50.63-29.32"/><path class="x" d="M82.3,305.35c1.32.67,2.65,1.31,4,1.94a10.88,10.88,0,0,1-4.6,20.74,10.56,10.56,0,0,1-4.64-1.07A129.48,129.48,0,0,1,31.81,129.6"/><path class="x" d="M166.71,314.85h0a8,8,0,0,1,8,8V334.8h-16V322.84A8,8,0,0,1,166.71,314.85Z" transform="translate(333.42 649.65) rotate(180)"/><path class="x" d="M150.74,314.86h0a8,8,0,0,1,8,8v15.32h-16V322.85a8,8,0,0,1,8-8Z" transform="translate(301.48 653.03) rotate(180)"/><path class="x" d="M235.47,129.59a129.48,129.48,0,0,1-45.25,197.36,10.56,10.56,0,0,1-4.64,1.07,10.88,10.88,0,0,1-4.6-20.74c1.37-.63,2.7-1.27,4-1.94"/><path class="y" d="M81.85,131.96c8.8,3,13,3,25.39,3"/><path class="y" d="M169.1,134.95c6.09,0,10,0,16.35-3"/><path class="y" d="M42.39,103.41a54.27,54.27,0,0,0,14.9,19.3"/><path class="y" d="M37.48,80.87a54.18,54.18,0,0,0,2,14.5"/><path class="y" d="M225.19,102.78a53.9,53.9,0,0,0,4.62-21.91"/><path class="y" d="M209.99,122.72a54.39,54.39,0,0,0,11.24-12.6"/><path class="y" d="M19.81,221.84c0,8.3,12.67,8.3,12.67,0"/><path class="y" d="M32.66,198.7c0,8.3,12.67,8.3,12.67,0"/><path class="y" d="M34.48,175.55c0,8.3-12.67,8.3-12.67,0"/><path class="y" d="M247.49,221.84c0,8.3-12.67,8.3-12.67,0"/><path class="y" d="M234.65,198.7c0,8.3-12.67,8.3-12.67,0"/><path class="y" d="M232.82,175.55c0,8.3,12.67,8.3,12.67,0"/></g><g class="z" transform="translate(147.58 53.31)"><ellipse class="s" cx="15.56" cy="10.24" rx="15.56" ry="10.24" transform="matrix(0.353, -0.936, 0.936, 0.353, 0.778, 29.355)"/></g><g class="z" transform="translate(63.58 54.311)"><path class="s" d="M14.061.2c7.757.1,14.1,4.428,14.159,9.677S22.047,19.3,14.29,19.2.194,14.776.131,9.528,6.3.1,14.061.2Z" transform="matrix(0.353, -0.936, 0.936, 0.353, 3.333, 31.119)"/></g></g><text class="aa" transform="translate(142.769 440) rotate(-21)"><tspan x="0" y="0">?</tspan></text><text class="ab" transform="matrix(0.921, 0.391, -0.391, 0.921, 358.471, 370.148)"><tspan x="0" y="0">?</tspan></text><text class="ac" transform="translate(245 352) rotate(8)"><tspan x="0" y="0">?</tspan></text><text class="ab" transform="translate(174.779 371.972) rotate(-21)"><tspan x="0" y="0">?</tspan></text></g></svg>