<svg xmlns="http://www.w3.org/2000/svg" xmlns:xlink="http://www.w3.org/1999/xlink" width="435.447" height="866.592" viewBox="0 0 435.447 866.592"><defs><style>.a,.ad,.ag,.ah,.r,.s{fill:#fff;}.b{fill:#f8fcff;}.c{fill:url(#a);}.d{fill:#ff4760;}.e{fill:#fffcd9;}.f{fill:#9cbde5;}.g{fill:#f2f7ff;}.h{fill:#ffb94d;}.i{fill:#ffd47d;}.j{fill:#d94b8e;}.k{fill:#94504a;}.l{fill:#bf5f56;}.m{fill:#6a9325;}.n{fill:#628820;}.o{fill:#00bfff;}.p{fill:#a6d2ff;}.q{fill:#2a3d6b;}.r,.x,.y{opacity:0.3;}.s,.w,.z{opacity:0.2;}.t,.u{fill:#f08400;}.t{opacity:0.42;}.u{opacity:0.4;}.af,.v,.w,.y{fill:#0047ff;}.ac,.ad,.v{opacity:0.25;}.aa,.ab,.ac,.x{fill:#a32141;}.z{fill:#4c3131;}.aa{opacity:0.23;}.ab{opacity:0.22;}.ae{fill:#946a6a;}.ae,.af{opacity:0.15;}.ag{opacity:0.75;}.ah{opacity:0.5;}</style><linearGradient id="a" x1="0.969" y1="0.564" x2="0.353" y2="0.272" gradientUnits="objectBoundingBox"><stop offset="0" stop-color="#66c9d8"/><stop offset="1" stop-color="#d94b8e"/></linearGradient></defs><g transform="translate(5110 1112)"><g transform="translate(-5110 -1112)"><rect class="a" width="435" height="865"/><path class="b" d="M454.655,907.089C266.491,779.818,121.884,630.694,121.884,630.694c-20.343-19.824-97.971-172.213-4.212-312.9s239.592-94.971,239.592-94.971,76.867,27.19,97.021,50.494Z" transform="translate(-20.65 -40.497)"/><path class="c" d="M148.535,451.156a214.161,214.161,0,0,1-70.365-111.2L2.263,274.583a6.619,6.619,0,0,1-.78-9.158,6.221,6.221,0,0,1,8.922-.8l63.431,54.63a221.354,221.354,0,0,1-2.767-33.344L14.081,236.831a5.091,5.091,0,0,1-.6-7.044,4.785,4.785,0,0,1,6.863-.616l51,43.927a216.808,216.808,0,0,1,46.294-123.628c38.716-49.073,94.189-76.022,151.134-79.2L220.655,28.726a4.508,4.508,0,0,1-.258-6.241,4.237,4.237,0,0,1,6.035-.809l55.934,48.287a204.781,204.781,0,0,1,129.206,47.8l7.571,6.292,1.22,553.487Z" transform="translate(15.086 149.533)"/><rect class="a" width="238" height="13" rx="6.5" transform="matrix(0.777, 0.629, -0.629, 0.777, 210.281, 574.509)"/><rect class="a" width="238" height="13" rx="6.5" transform="matrix(0.766, 0.643, -0.643, 0.766, 177.121, 154.979)"/><rect class="a" width="205" height="10" rx="5" transform="matrix(0.766, 0.643, -0.643, 0.766, 22.136, 335.489)"/><g transform="translate(365.263 316.47) rotate(83)"><g transform="translate(0 0)"><g transform="translate(1.283 29.165)"><path class="d" d="M426.536,453.976a63.568,63.568,0,0,1-41.626,9.109l2.744-11.216h0a18.305,18.305,0,0,0,3.326.283c9.519-.165,15.425-7.733,14.888-14.433C406.844,448.767,416.245,459.139,426.536,453.976Z" transform="translate(-316.799 -312.584)"/><path class="e" d="M427.681,160.029c6.416,3.8,8.514,9.865,6.72,20.532h0c.367-6.011-2.237-8.962-4.787-10.659A13.648,13.648,0,0,0,423,167.847h0a15.366,15.366,0,0,0,2.638-6.813,1.359,1.359,0,0,1,2.043-1Z" transform="translate(-338.81 -152.005)"/><path class="f" d="M420.246,251c-.262.127-.528.245-.806.359C419.706,251.228,419.976,251.11,420.246,251Z" transform="translate(-336.753 -204.684)"/><path class="g" d="M401.787,219.474a13.54,13.54,0,0,0-4.5,2.866,16.228,16.228,0,0,0-1.342,1.431,3.234,3.234,0,0,0,.777,4.774,3.268,3.268,0,0,0,1.777.519,3.187,3.187,0,0,0,2.875-1.752c.131-.262.266-.515.422-.764a13.777,13.777,0,0,1,2.448-3.107c2.786-2.643,6.408-3.862,9.312-3.377A15.679,15.679,0,0,0,401.787,219.474Z" transform="translate(-322.756 -185.953)"/><path class="e" d="M390.859,283.145a10.506,10.506,0,0,1,6.649,0c-1.325,1.532-2.562,3.111-3.74,4.7l-.371-.274a13.075,13.075,0,0,1-5.437-8.865l-.059-.114q.393-.211.8-.422a20.3,20.3,0,0,1,5.618-1.752A15.825,15.825,0,0,1,390.859,283.145Z" transform="translate(-318.527 -219.374)"/><path class="e" d="M393,341.571c-.279-.46-.549-.933-.806-1.41a.844.844,0,0,0-1.414-.11,8.823,8.823,0,0,0-1.266,2.478A26.54,26.54,0,0,1,386.449,338a12.41,12.41,0,0,0-2.989,7.56,21.478,21.478,0,0,0,5.766.747,14.952,14.952,0,0,0,6.129-1.427A26.659,26.659,0,0,1,393,341.571Z" transform="translate(-315.961 -254.959)"/><path class="h" d="M370.406,475.05a2.626,2.626,0,1,1-2.626,2.626A2.626,2.626,0,0,1,370.406,475.05Z" transform="translate(-306.9 -334.156)"/><path class="h" d="M369.7,495.051l-.266,1.266a2.627,2.627,0,1,1-5.154-1.022l.279-1.406Q367.088,494.582,369.7,495.051Z" transform="translate(-304.849 -345.043)"/><path class="i" d="M283.984,267.84a12.735,12.735,0,0,0,10.612,4.407,7.4,7.4,0,1,1-10.612-4.407Z" transform="translate(-256.229 -214.415)"/><path class="j" d="M263.113,332.658c-1.313-.937-2.613-1.954-3.884-3.031a11.549,11.549,0,0,0,2.845-6.091,7.126,7.126,0,0,0-2.925-7.041,34.657,34.657,0,0,1-10.655-44.665,7.4,7.4,0,0,1,2.82-10.346,15.362,15.362,0,0,1-2.858-4.643,66.633,66.633,0,0,0-20.068,26.915q-.262.642-.507,1.292a65.467,65.467,0,0,0-3.415,12.558c-.194,1.131-.355,2.267-.485,3.419a66.728,66.728,0,0,0-.422,7.674v.937a66.118,66.118,0,0,0,11.782,36.86,14.977,14.977,0,0,0,14.251,6.408h.093a60.237,60.237,0,0,0,6.285,4.8,9.772,9.772,0,0,0,14.817-5.564,9.187,9.187,0,0,0,.236-1.093c.051-.338.093-.68.131-1.026A19.029,19.029,0,0,0,263.113,332.658Z" transform="translate(-223.559 -208.059)"/><path class="i" d="M371.265,466.2l-2.744,11.216q-1.646-.2-3.259-.494-2.613-.469-5.146-1.148-1.807-.481-3.567-1.068h0l2.984-12.191A37.6,37.6,0,0,0,371.265,466.2Zm-4.732,4.221a2.619,2.619,0,1,0,0,.013Z" transform="translate(-300.411 -326.91)"/><path class="k" d="M493.317,304.662v.207a26.314,26.314,0,0,1-1.266,8.1h0a5.939,5.939,0,0,1-3.6,1.207,6.007,6.007,0,1,1,4.871-9.511Z" transform="translate(-373.153 -234.247)"/><path class="k" d="M456.764,336.756a9.059,9.059,0,0,1-1.266,6.1,24.981,24.981,0,0,1-2.647,1.431,26,26,0,0,1-8.2,2.317A9.076,9.076,0,0,1,442,331.091a1.317,1.317,0,0,1,1.1-.274l.781.16a1.043,1.043,0,0,0,1.237-.806,1.266,1.266,0,0,1,1.009-1.009,9.072,9.072,0,0,1,10.629,7.6Z" transform="translate(-347.888 -249.764)"/><path class="k" d="M465.149,267a3.879,3.879,0,1,1-3.879,3.879A3.879,3.879,0,0,1,465.149,267Z" transform="translate(-360.926 -213.93)"/><path class="k" d="M454.806,304.72a3.44,3.44,0,1,1-3.436,3.44A3.44,3.44,0,0,1,454.806,304.72Z" transform="translate(-355.205 -235.727)"/><path class="k" d="M431.719,254.15a2.144,2.144,0,1,1-1.521.628A2.149,2.149,0,0,1,431.719,254.15Z" transform="translate(-342.607 -206.504)"/><path class="k" d="M399.92,315.141a8.755,8.755,0,0,1-5.576,8.16h0c-.279-.46-.549-.933-.806-1.41a.844.844,0,0,0-1.414-.11,8.824,8.824,0,0,0-1.266,2.478,26.539,26.539,0,0,1-3.073-4.525,26.106,26.106,0,0,1-2.014-4.9c1.933-2.744,3.829-5.606,5.863-8.443A8.755,8.755,0,0,1,399.92,315.141Z" transform="translate(-317.296 -236.692)"/><path class="l" d="M399.008,291.776a26.66,26.66,0,0,1-2.351-3.305h0a8.755,8.755,0,0,0-2.71-16.885c.3-.422.6-.823.9-1.233,1.178-1.591,2.415-3.17,3.74-4.7a10.506,10.506,0,0,0-6.649,0,15.825,15.825,0,0,0,3.457-6.7,20.3,20.3,0,0,0-5.619,1.752A26.468,26.468,0,0,1,402.3,248.55c.279-.114.545-.232.806-.359a26.484,26.484,0,0,1,18.928-.633,2.689,2.689,0,1,0,4.867,2.271,26.508,26.508,0,0,1,8.692,8.4c-6.56,2.807-3.111,10.866,3.449,8.058a26.054,26.054,0,0,1,.734,6,6.007,6.007,0,1,0-1.266,8.3,26.4,26.4,0,0,1-11.284,14.373,9.072,9.072,0,0,0-9.367-13.694,1.266,1.266,0,0,0-1.009,1.009,1.043,1.043,0,0,1-1.237.806l-.781-.16a1.317,1.317,0,0,0-1.1.274,9.076,9.076,0,0,0,2.651,15.513,25.88,25.88,0,0,1-2.989.169h0A18.449,18.449,0,0,1,399.008,291.776Zm28.7-32.977a1.609,1.609,0,1,0,.008,0Zm-5.066,15.492a1.427,1.427,0,1,0,.008,0Zm-11.786-22.639a.889.889,0,1,0,.008,0Z" transform="translate(-319.614 -201.858)"/><path class="m" d="M319.6,307.237h0a12.41,12.41,0,0,1,2.993-7.556,26.109,26.109,0,0,1-2.014-4.9c-6.919,9.823-14.382,18.173-30.887,18.173a10.843,10.843,0,1,1,0-21.687c18.527,0,22.567-10.5,31.786-15.393a12.609,12.609,0,0,1-4.745-3.867c-1.727,2.989-5.277,2.25-6.876-.317,2.444,11.609-14.935,12.871-13.175.739a14.867,14.867,0,0,1-6.21,2.051,7.4,7.4,0,0,1-13.432,5.935A34.657,34.657,0,0,0,287.7,325.081a7.126,7.126,0,0,1,2.925,7.041,11.55,11.55,0,0,1-2.845,6.091c1.266,1.076,2.571,2.111,3.884,3.031a18.964,18.964,0,0,1,8.02,17.341c-.038.346-.08.688-.131,1.026a9.187,9.187,0,0,1-.228,1.1h.038a62.566,62.566,0,0,0,8.865,3.719h0l2.984-12.191c-.726-.388-1.439-.8-2.149-1.266a29.971,29.971,0,0,1-8.535-8.054c-5.015-7.214-4.8-13.875-3.584-17.729,2.326-7.417,12.664-11.533,26.885-8.371h0A12.12,12.12,0,0,1,319.6,307.237Z" transform="translate(-252.108 -216.64)"/><path class="m" d="M335.037,290.578l.371.274c-.308.422-.608.819-.9,1.233-2.035,2.824-3.93,5.686-5.863,8.443-6.919,9.823-14.382,18.173-30.887,18.173a10.843,10.843,0,1,1,0-21.687c18.527,0,22.567-10.5,31.786-15.393l.059.114A13.078,13.078,0,0,0,335.037,290.578Z" transform="translate(-260.168 -222.379)"/><path class="m" d="M388.949,358.9h0c0,14.745-11.87,20.807-25.146,21.081,6.07,1.486,8.924,5.336,9.257,9.527.456,5.716-3.8,12.069-10.946,13.909a17.065,17.065,0,0,1-3.943.523,18.31,18.31,0,0,1-3.326-.283h0a45.867,45.867,0,0,1-7.6-1.883,29.329,29.329,0,0,1-4.133-1.807c-.726-.388-1.439-.8-2.149-1.266a29.972,29.972,0,0,1-8.535-8.054c-5.015-7.214-4.8-13.875-3.584-17.729,2.326-7.417,12.664-11.533,26.885-8.371h0a12.059,12.059,0,0,1-4.255-9.57h0a21.476,21.476,0,0,0,5.766.747,14.952,14.952,0,0,0,6.129-1.427c3.563,4.263,8.358,7.092,14.382,7.092h0a26.363,26.363,0,0,0,11.186-2.486Z" transform="translate(-283.983 -264.378)"/><path class="m" d="M490.047,282.265c-16.252,18.692-14.509,34.479-24.716,54.932-.975,1.959-2.064,3.964-3.288,6.02a63.85,63.85,0,0,1-19.477,19.046c-10.291,5.163-19.692-5.209-20.659-16.256-.334-4.192-3.187-8.042-9.257-9.527,13.276-.274,25.146-6.332,25.146-21.081h0a24.972,24.972,0,0,0,2.647-1.431,26.352,26.352,0,0,0,4.825-3.8l.76-.76c15.8-15.741,27.907-25.695,41.9-30.3a1.971,1.971,0,0,1,2.119,3.153Z" transform="translate(-332.83 -220.871)"/><path class="m" d="M343.088,182.25a23.211,23.211,0,0,1-.469,3.407,34.776,34.776,0,0,1-.929,3.491,30.575,30.575,0,0,0-3.377-1.342,15.66,15.66,0,0,0-11.76-.591,13.542,13.542,0,0,0-4.5,2.866,16.223,16.223,0,0,0-1.342,1.431,3.233,3.233,0,0,0,.777,4.774,3.267,3.267,0,0,0,1.777.519,3.187,3.187,0,0,0,2.875-1.752c.131-.262.266-.515.422-.764a13.778,13.778,0,0,1,2.448-3.107c2.786-2.643,6.408-3.862,9.312-3.377.312,5.015-1.511,9.485-7.3,12.2-.27.114-.54.232-.806.359A26.467,26.467,0,0,0,317.7,212.516q-.422.2-.8.422a12.61,12.61,0,0,1-4.745-3.867c-1.726,2.989-5.277,2.25-6.876-.317,2.444,11.609-14.935,12.871-13.175.739a14.867,14.867,0,0,1-6.209,2.052h0a12.735,12.735,0,0,1-10.612-4.407,15.36,15.36,0,0,1-2.858-4.643,13.122,13.122,0,0,1,1.689-13.183h0c-6.551,0-9.118-4.069-9.126-8.269a10.27,10.27,0,0,1,3.255-7.434,9.884,9.884,0,0,1,1.017-.844,55.585,55.585,0,0,1,11.478-6.695,39.912,39.912,0,0,1,15.538-3.309l-.422.249a6.7,6.7,0,0,0-.54,8.058,6.369,6.369,0,0,0,7.556,1.718c-2.955,3.643-4.437,7.51-4.086,11.647,1.093,4.4,3.487,7.78,9.24,8.531,6.383-.806,10.553-3.537,9.625-10.722-1.933-4.221-1.642-7.079,0-9.1a30.772,30.772,0,0,1,5.859-2.533,22.178,22.178,0,0,1,8.181-1.072,13.647,13.647,0,0,1,6.619,2.056C340.851,173.288,343.455,176.239,343.088,182.25Z" transform="translate(-247.501 -153.693)"/><circle class="n" cx="5.513" cy="5.513" r="5.513" transform="translate(38.389 41.157)"/><circle class="n" cx="3.998" cy="3.998" r="3.998" transform="translate(45.413 56.337)"/><circle class="n" cx="2.571" cy="2.571" r="2.571" transform="translate(39.102 34.129)"/><circle class="n" cx="2.085" cy="2.085" r="2.085" transform="translate(55.506 45.071)"/><circle class="n" cx="3.82" cy="3.82" r="3.82" transform="translate(33.762 86.097)"/><circle class="n" cx="2.571" cy="2.571" r="2.571" transform="translate(46.173 80.466)"/><circle class="n" cx="2.085" cy="2.085" r="2.085" transform="translate(44.573 87.832)"/><circle class="n" cx="1.414" cy="1.414" r="1.414" transform="translate(56.169 83.341)"/><circle class="n" cx="7.776" cy="7.776" r="7.776" transform="translate(98.039 122.455)"/><path class="n" d="M517.008,414.685c-.975,1.959-2.064,3.964-3.288,6.02a63.6,63.6,0,0,1-7.839,9.709,9.637,9.637,0,0,1,11.127-15.724Z" transform="translate(-384.505 -298.359)"/><circle class="n" cx="3.833" cy="3.833" r="3.833" transform="translate(98.643 112.772)"/><circle class="n" cx="2.503" cy="2.503" r="2.503" transform="translate(111.822 114.101)"/><circle class="n" cx="1.414" cy="1.414" r="1.414" transform="translate(108.352 108.103)"/><circle class="n" cx="3.82" cy="3.82" r="3.82" transform="translate(68.664 118.47)"/><path class="n" d="M388.72,452.879a7.692,7.692,0,0,1-.57,2.917,17.068,17.068,0,0,1-3.943.523,18.305,18.305,0,0,1-3.326-.283h0a45.868,45.868,0,0,1-7.6-1.883,7.469,7.469,0,0,1-.106-1.266,7.776,7.776,0,1,1,15.547,0Z" transform="translate(-310.018 -316.751)"/><circle class="n" cx="2.571" cy="2.571" r="2.571" transform="translate(79.052 126.111)"/><circle class="n" cx="2.085" cy="2.085" r="2.085" transform="translate(58.777 126.06)"/><path class="e" d="M342.93,160.373a6.365,6.365,0,0,1-7.56-1.718,6.7,6.7,0,0,1,.54-8.058l2.832-1.748a19.026,19.026,0,0,0,7.987-7.569l1.954.127a40.036,40.036,0,0,1,0,9.709,18.3,18.3,0,0,0,8.324-5.386l1.735.308a19.952,19.952,0,0,1-3.1,12.14,19.418,19.418,0,0,0-7.286-4.643,12.963,12.963,0,0,1-5.424,6.838Z" transform="translate(-287.538 -141.28)"/><path class="j" d="M363.934,177.515c-1.659,2.022-1.95,4.884,0,9.1.937,7.176-3.242,9.916-9.624,10.722-5.754-.751-8.147-4.133-9.24-8.531-.355-4.137,1.114-8.02,4.086-11.647a15.229,15.229,0,0,0,5.416-6.83A19.158,19.158,0,0,1,363.934,177.515Z" transform="translate(-293.746 -158.067)"/><path class="o" d="M360.2,170.33a12.942,12.942,0,0,1-5.416,6.83A15.172,15.172,0,0,0,360.2,170.33Z" transform="translate(-299.388 -158.067)"/><path class="g" d="M366.177,209.056a4.643,4.643,0,1,1-9.046-1.456h8.814A4.6,4.6,0,0,1,366.177,209.056Z" transform="translate(-300.607 -179.604)"/></g><path class="p" d="M681.268,152.1a1.266,1.266,0,0,1-.895-2.161l5.209-5.209a1.266,1.266,0,0,1,1.79,1.79l-5.209,5.209A1.266,1.266,0,0,1,681.268,152.1Z" transform="translate(-486.042 -113.909)"/><path class="p" d="M488.178,284.7a1.266,1.266,0,0,1-.895-2.161l49.423-49.419a1.266,1.266,0,0,1,1.79,1.79L489.06,284.333a1.266,1.266,0,0,1-.882.372Z" transform="translate(-374.461 -164.993)"/><path class="p" d="M612.328,196.526a1.266,1.266,0,0,1-.895-2.161l23.145-23.15a1.266,1.266,0,0,1,1.79,1.79l-23.145,23.149A1.266,1.266,0,0,1,612.328,196.526Z" transform="translate(-446.204 -129.217)"/><path class="p" d="M447.148,172.6a1.266,1.266,0,0,1-.895-2.161l32.124-32.124a1.266,1.266,0,0,1,1.79,1.79l-32.124,32.124A1.266,1.266,0,0,1,447.148,172.6Z" transform="translate(-350.751 -110.205)"/><path class="p" d="M537.4,96.492a1.266,1.266,0,0,1-.895-2.161l21.866-21.87a1.266,1.266,0,0,1,1.769,1.79L538.272,96.12A1.266,1.266,0,0,1,537.4,96.492Z" transform="translate(-402.904 -72.19)"/><path class="p" d="M500.958,152.836a1.266,1.266,0,0,1-.895-2.161l42.31-42.31a1.266,1.266,0,0,1,1.79,1.79l-42.31,42.31a1.266,1.266,0,0,1-.895.371Z" transform="translate(-381.846 -92.898)"/><path class="p" d="M476.588,225.129a1.266,1.266,0,0,1-.895-2.161l7.3-7.3a1.266,1.266,0,0,1,1.79,1.79l-7.3,7.3a1.266,1.266,0,0,1-.895.371Z" transform="translate(-367.763 -154.904)"/><path class="p" d="M557.658,146.636a1.266,1.266,0,0,1-.895-2.161l33.724-33.72a1.266,1.266,0,0,1,1.79,1.79l-33.724,33.72a1.266,1.266,0,0,1-.895.371Z" transform="translate(-414.611 -94.279)"/><path class="p" d="M644.618,89.979a1.266,1.266,0,0,1-.895-2.161l11.583-11.583a1.266,1.266,0,0,1,1.79,1.79L645.513,89.608a1.266,1.266,0,0,1-.895.371Z" transform="translate(-464.863 -74.331)"/><path class="p" d="M503.268,223.853a1.266,1.266,0,0,1-.895-2.161l17-17a1.266,1.266,0,1,1,1.79,1.79l-17,17a1.266,1.266,0,0,1-.895.372Z" transform="translate(-383.181 -148.524)"/><path class="p" d="M518.778,228.084a1.266,1.266,0,0,1-.895-2.161l40.782-40.778a1.266,1.266,0,0,1,1.79,1.79l-40.782,40.773A1.267,1.267,0,0,1,518.778,228.084Z" transform="translate(-392.144 -137.267)"/><path class="p" d="M622.448,157.613a1.266,1.266,0,0,1-.895-2.161l16.463-16.463a1.266,1.266,0,1,1,1.79,1.79l-16.463,16.463A1.266,1.266,0,0,1,622.448,157.613Z" transform="translate(-452.052 -110.558)"/><path class="p" d="M530.336,133.363a1.266,1.266,0,1,1,0-2.533h0a1.266,1.266,0,0,1,0,2.533Z" transform="translate(-398.822 -106.076)"/><path class="p" d="M674.266,166.263a1.266,1.266,0,0,1,0-2.533h0a1.266,1.266,0,1,1,0,2.533Z" transform="translate(-481.995 -125.088)"/><path class="p" d="M550.606,199.823a1.266,1.266,0,0,1,0-2.533h0a1.266,1.266,0,1,1,0,2.533Z" transform="translate(-410.536 -144.482)"/><path class="q" d="M453.934,311.357a4.074,4.074,0,1,0-4.074-4.074A4.074,4.074,0,0,0,453.934,311.357Zm0-6.876a2.807,2.807,0,1,1-2.807,2.8A2.807,2.807,0,0,1,453.934,304.481Z" transform="translate(-353.049 -205.69)"/><path class="q" d="M464.283,274.505a4.513,4.513,0,1,0-4.513-4.513A4.512,4.512,0,0,0,464.283,274.505Zm0-7.759a3.246,3.246,0,1,1-3.246,3.246,3.246,3.246,0,0,1,3.246-3.246Z" transform="translate(-358.776 -183.887)"/><path class="q" d="M430.842,258.214a2.782,2.782,0,1,0-2.782-2.782A2.782,2.782,0,0,0,430.842,258.214Zm0-4.3a1.515,1.515,0,1,1-1.515,1.515A1.515,1.515,0,0,1,430.842,253.916Z" transform="translate(-340.452 -176.473)"/><path class="q" d="M368.672,472a3.892,3.892,0,1,0,3.892,3.892A3.892,3.892,0,0,0,368.672,472Zm0,5.255a.565.565,0,1,1,0,.021Z" transform="translate(-303.884 -303.229)"/><path class="q" d="M296.026,344.245a9.578,9.578,0,0,1-8.295-14.352,1.266,1.266,0,0,0-2.191-1.266,12.111,12.111,0,0,0,10.486,18.151,1.266,1.266,0,1,0,0-2.533Z" transform="translate(-257.161 -220.038)"/><path class="q" d="M380.215,197.039a3.2,3.2,0,0,0-3.711-1.266c-9.4,3.086-18.916,8.379-35.146,23.593a27.654,27.654,0,0,0,1.418-15.024,2.533,2.533,0,0,0-1.119-1.667,2.5,2.5,0,0,0-1.942-.333c-2.2.532-3.508-.528-3.968-1.6s-.321-2.752,1.583-3.976a2.5,2.5,0,0,0,1.1-1.638,2.533,2.533,0,0,0-.422-1.959,27.67,27.67,0,0,0-7.151-6.851,2.533,2.533,0,0,0-3.276.422,1.406,1.406,0,0,1-2.4-1.119,2.533,2.533,0,0,0-1.794-2.765,27.674,27.674,0,0,0-7.805-1.119,28.1,28.1,0,0,0-4.285.333,12.525,12.525,0,0,0,2.571-7.375l.35.139a2.527,2.527,0,0,0,3.411-1.667,27.658,27.658,0,0,0,1-5.6v-.021c1.853-11.018-.422-17.75-7.324-21.837a2.63,2.63,0,0,0-3.955,1.929,13.931,13.931,0,0,1-2.043,5.678,27.158,27.158,0,0,0-12.959,3.276q-.447-.578-.937-1.127c1.984-2.955,2.955-6.99,2.841-12.005a2.085,2.085,0,0,0-1.385-1.933,2.111,2.111,0,0,0-2.326.608,16.438,16.438,0,0,1-6.117,4.5,32.343,32.343,0,0,0-.511-8.02,2.111,2.111,0,0,0-3.879-.73,19.226,19.226,0,0,1-8.544,7.746,7.676,7.676,0,0,0-1.832,1.174,45.826,45.826,0,0,0-15.1,3.132,56.937,56.937,0,0,0-11.794,6.8,11.058,11.058,0,0,0-1.135.958,11.57,11.57,0,0,0-3.651,8.358,9.477,9.477,0,0,0,2.457,6.573,9.709,9.709,0,0,0,5.682,2.786,13.765,13.765,0,0,0-1.689,5.8,15.56,15.56,0,0,0,.781,5.88,67.823,67.823,0,0,0-20.262,28.173,66.945,66.945,0,0,0-3.483,12.795c-.194,1.131-.363,2.309-.494,3.487a68.34,68.34,0,0,0-.447,7.818v.954a67.3,67.3,0,0,0,12.005,37.569,15.931,15.931,0,0,0,14.973,6.99,61.947,61.947,0,0,0,6,4.534,10.975,10.975,0,0,0,6.079,1.84,11.1,11.1,0,0,0,4.529-.971,10.929,10.929,0,0,0,5.644-5.728,64.284,64.284,0,0,0,10.283,3.943l-.051.245a3.894,3.894,0,0,0,7.636,1.528v-.084a65.51,65.51,0,0,0,10.321.815,64.586,64.586,0,0,0,54.138-29.232l.03-.046c6.171-10.355,8.9-19.363,11.533-28.076,3.318-10.975,6.45-21.322,16.319-32.694A3.213,3.213,0,0,0,380.215,197.039ZM340.7,209.361a25,25,0,0,1-1.359,8.193,5.374,5.374,0,1,1,1.359-8.865c-.008.211,0,.422,0,.667Zm-18.033-24.087a3.938,3.938,0,0,0,6.788,3.153,25.842,25.842,0,0,1,6.509,6.193,5.541,5.541,0,0,0,4.331,10.165c.135.734.241,1.482.308,2.237a6.632,6.632,0,1,0-1.853,12.069A25.252,25.252,0,0,1,331.223,229a9.709,9.709,0,0,0-11.3-11.49,1.908,1.908,0,0,0-1.511,1.5.422.422,0,0,1-.49.321l-.781-.16a1.942,1.942,0,0,0-1.634.422,9.709,9.709,0,0,0-.063,14.905,16.954,16.954,0,0,1-13.2-6.513,1.265,1.265,0,0,0-.211-.253,25.7,25.7,0,0,1-1.71-2.372,9.392,9.392,0,0,0-2.351-17.278c1.19-1.613,2.436-3.208,3.765-4.745a1.266,1.266,0,0,0-.583-2.039,13.443,13.443,0,0,0-4.166-.6,17.062,17.062,0,0,0,1.828-4.61,1.266,1.266,0,0,0-1.435-1.532,22.294,22.294,0,0,0-2.512.557,24.939,24.939,0,0,1,10.009-8.51l.089-.03c.367-.152.718-.312,1.064-.477a25.214,25.214,0,0,1,9.544-1.862A24.237,24.237,0,0,1,322.667,185.274Zm-20.984,67.806a1.262,1.262,0,0,0-.152,0,49.954,49.954,0,0,1-14.753-1.988,1.267,1.267,0,0,0-.7,2.436,52.615,52.615,0,0,0,14.449,2.085h.882c4.88,1.22,7.818,4.221,8.194,8.189h0a.754.754,0,0,0,.025.236,9.96,9.96,0,0,1-.042,1.764c-.6,5.336-5.572,11.085-13.618,11.224a16.3,16.3,0,0,1-3.09-.266c-5.783-.988-9.667-2.368-13.415-4.762a28.578,28.578,0,0,1-8.177-7.712c-5.369-7.721-4.179-14.209-3.415-16.64,2.254-7.176,12.567-10.283,25.125-7.569,3.234,2.731,7.868,4.483,13.508,4.985h.114a1.268,1.268,0,1,0,.11-2.533c-7.754-.692-13.356-3.9-15.378-8.814a10.3,10.3,0,0,1-.713-2.807,21.668,21.668,0,0,0,3.445.422,10.486,10.486,0,0,0,4.074,5.437,1.267,1.267,0,1,0,1.486-2.052,8.349,8.349,0,0,1-2.908-3.5,16.172,16.172,0,0,0,4.137-1.043,19.487,19.487,0,0,0,14.728,6.83h0a27.506,27.506,0,0,0,9.84-1.815,17.025,17.025,0,0,1-6.8,12.871C314.435,251.207,308.415,252.916,301.683,253.081ZM287,287.522h-.173q-2.474-.447-4.9-1.093a1.263,1.263,0,0,0-.144-.042h-.046c-.76-.207-1.515-.422-2.263-.663l2.33-9.519a38.917,38.917,0,0,0,9.325,2.854l-2.157,8.814C288.288,287.742,287.634,287.628,287,287.522Zm7.928-83.949a8.21,8.21,0,0,1,3.554-.27q-.844,1.06-1.689,2.14a10.632,10.632,0,0,1-1.883-1.87Zm.819-6.07a14.464,14.464,0,0,1-2.191,3.757,14.961,14.961,0,0,1-.878-2.621,18.813,18.813,0,0,1,3.048-1.135Zm1.427,11.7a8.117,8.117,0,0,1,2.533,15.049c-.173-.3-.346-.6-.515-.916a2.111,2.111,0,0,0-3.55-.262q-.283.384-.523.789a25.022,25.022,0,0,1-1.65-2.638l-.03-.059a24.838,24.838,0,0,1-1.727-4.09q1.03-1.473,2.06-2.98c1.076-1.608,2.208-3.259,3.381-4.892Zm-.92,19.536a7.117,7.117,0,0,1,1.034-3.592,30.031,30.031,0,0,0,1.9,2.955,13.37,13.37,0,0,1-2.959.637Zm-2.267-2.149a9.36,9.36,0,0,0-.27,2.187,21.007,21.007,0,0,1-3.027-.422A11.153,11.153,0,0,1,292.2,224.1a27.971,27.971,0,0,0,1.76,2.491Zm23.572,7.8a8.443,8.443,0,0,1-1.207-13.846.667.667,0,0,1,.57-.139l.781.16a1.689,1.689,0,0,0,1.988-1.3.654.654,0,0,1,.5-.515,8.443,8.443,0,0,1,9.346,11.495,24.96,24.96,0,0,1-12,4.145Zm-7.679-86.465a.1.1,0,0,1,.055-.084.1.1,0,0,1,.1,0c4.179,2.465,6.332,5.91,6.67,11.11a11.819,11.819,0,0,0-3.377-3.377,13.77,13.77,0,0,0-5.218-2.03,16.6,16.6,0,0,0,1.773-5.619Zm-36.278-.507a20.8,20.8,0,0,0,2.7-1.689,4.4,4.4,0,0,0,2.427,2.6,4.145,4.145,0,0,0,1.629.338,4,4,0,0,0,1.334-.232,14.294,14.294,0,0,1-1.477,4.373,5.065,5.065,0,0,1-5.386-.81,4.441,4.441,0,0,1-1.224-4.584Zm6.205,10.131a14.716,14.716,0,0,0,3.377-5.108,20.017,20.017,0,0,1,7.244,5.728q-1.646,2.533-.4,6.556l.025.072c1.566,4.137,1.127,7.391-1.3,9.671a8.384,8.384,0,0,1-6.893,2.052,8.277,8.277,0,0,1-7.079-5.534c-1.347-3.955.2-8.692,4.137-12.664a7.416,7.416,0,0,0,.908-.8Zm11.934-12.98a23.491,23.491,0,0,1-.557,4.981,2.82,2.82,0,0,1-2.111-.3,2.267,2.267,0,0,1-1.114-1.583,19.37,19.37,0,0,0,3.778-3.12Zm-4.9,3.749a3.5,3.5,0,0,0,1.6,2.022,4.082,4.082,0,0,0,2.073.574h.291a12.842,12.842,0,0,1-1.228,2.731,24.67,24.67,0,0,0-5.652-3.63c.038-.169.08-.338.114-.507a17.988,17.988,0,0,0,2.8-1.216Zm-5.243-8.156a28.038,28.038,0,0,1,.283,6.817,2.786,2.786,0,0,1-2.664.228,3.2,3.2,0,0,1-1.853-2.284,22.732,22.732,0,0,0,4.234-4.787Zm-9.418,7.991a5.618,5.618,0,0,0,1.781,4.812,5.965,5.965,0,0,0,4.086,1.575,6.726,6.726,0,0,0,1.119-.1,12.325,12.325,0,0,1-1.14,1.3,5.011,5.011,0,0,1-4.344,1.376,4.791,4.791,0,0,1-3.55-2.533q-.089-.169-.169-.346a4.812,4.812,0,0,1,2.212-6.108ZM250,199.306a.633.633,0,0,0,.633-.633,2.44,2.44,0,0,1,2.111-2.41,13.9,13.9,0,0,0,2.318.992,2.436,2.436,0,0,1-3.871,2.955.633.633,0,1,0-.984.8,3.7,3.7,0,0,0,6.437-3.343,13.179,13.179,0,0,0,2.533.232,6.227,6.227,0,0,1,.051.781,6.138,6.138,0,1,1-9.84-4.888,15.26,15.26,0,0,0,1.971,1.617,3.706,3.706,0,0,0-1.971,3.271A.633.633,0,0,0,250,199.306Zm13.086,88.672a8.472,8.472,0,0,1-8.172-.667,60.454,60.454,0,0,1-17.7-18.2c-.895-1.41-1.743-2.879-2.533-4.369a1.266,1.266,0,1,0-2.237,1.182c.819,1.545,1.689,3.073,2.63,4.538a64.289,64.289,0,0,0,9.709,11.934,13.749,13.749,0,0,1-10.131-5.948A64.772,64.772,0,0,1,223.1,240.286v-.92a65.767,65.767,0,0,1,.422-7.531c.131-1.152.287-2.246.477-3.352a64.363,64.363,0,0,1,3.347-12.318,65.282,65.282,0,0,1,18.924-26.632,16.722,16.722,0,0,0,1.469,2.33,8.628,8.628,0,0,0-2.393,10.638A35.91,35.91,0,0,0,256.7,248.2a5.88,5.88,0,0,1,2.406,5.787,10.975,10.975,0,0,1-1.794,4.517,52.127,52.127,0,0,1-12.584-15.969,1.266,1.266,0,1,0-2.292,1.077c2.841,6.028,7.978,12.36,14.167,17.611h0c1.3,1.1,2.638,2.149,4.014,3.136a17.75,17.75,0,0,1,7.5,16.176q-.051.494-.122.975a8.379,8.379,0,0,1-4.914,6.471Zm-1-25.678q-1.452-1.038-2.845-2.17a13.348,13.348,0,0,0,2.318-5.707,8.443,8.443,0,0,0-3.445-8.291,33.39,33.39,0,0,1-11.132-41.293,8.656,8.656,0,0,0,14.686-7.193A15.876,15.876,0,0,0,265,196.625a7.737,7.737,0,0,0,3.563,6.56,8.02,8.02,0,0,0,4.188,1.157,8.552,8.552,0,0,0,4.909-1.562,7.953,7.953,0,0,0,3.377-6.024,5.218,5.218,0,0,0,2.368.54,4.846,4.846,0,0,0,4.137-2.579,1.267,1.267,0,0,0-2.2-1.266,2.317,2.317,0,0,1-1.984,1.309,3.263,3.263,0,0,1-2.719-1.663,1.266,1.266,0,0,0-2.313.929c.612,2.917-.139,5.289-2.111,6.682a5.91,5.91,0,0,1-6.332.308c-1.878-1.152-2.68-3.4-2.254-6.332a1.266,1.266,0,0,0-1.887-1.266c-4.28,2.482-8.713,2.562-12.474.228a12.88,12.88,0,0,1-2.731-2.288l-.038-.042a13.749,13.749,0,0,1-3.533-9.933c.3-4.546,3.107-8.24,7.906-10.405a1.267,1.267,0,0,0-1.043-2.309,17.329,17.329,0,0,0-6.049,4.369c-2.284-.131-7.256-1.1-7.269-6.986a9.038,9.038,0,0,1,2.87-6.526,8.615,8.615,0,0,1,.887-.751,54.377,54.377,0,0,1,11.267-6.5,40.839,40.839,0,0,1,12.149-2.8,7.083,7.083,0,0,0-.03,5.787q.105.241.232.477a7.3,7.3,0,0,0,5.4,3.858,7.6,7.6,0,0,0,1.19.093h0c-2.621,3.943-3.428,8.265-2.111,12.086A10.86,10.86,0,0,0,281.509,179a12.048,12.048,0,0,0,1.6.106,10.7,10.7,0,0,0,7.366-2.82c2.233-2.111,4.386-5.935,1.959-12.377-.844-2.778-.245-4.027.367-4.724a23.988,23.988,0,0,1,13.12-3.377h.076a12.449,12.449,0,0,1,5.91,1.849c3.533,2.351,4.42,5.8,4.28,9.169a1.434,1.434,0,0,1-.038.228,1.265,1.265,0,0,0,0,.38,26.6,26.6,0,0,1-.95,5c-.764-.317-1.49-.587-2.161-.8-7.227-3.065-14.352-1.537-19,4.086a4.445,4.445,0,0,0-.971,3.525,4.546,4.546,0,0,0,4.483,3.871,4.437,4.437,0,0,0,4.01-2.453c2.174-4.373,6.463-6.661,9.8-6.64-.038,4.483-2.111,7.687-6.332,9.755a27.519,27.519,0,0,0-13.989,12.845,40.256,40.256,0,0,0-8.223,5.96c-5.412,4.677-11.009,9.511-23.424,9.511a1.266,1.266,0,0,0,0,2.533c13.356,0,19.587-5.382,25.079-10.131a49.19,49.19,0,0,1,5.91-4.6,13.778,13.778,0,0,0,4.909,7.6c-1.266,1.731-2.453,3.474-3.626,5.188-.8,1.169-1.6,2.334-2.406,3.474-5.838,8.291-12.145,15.855-24.969,17.362a1.269,1.269,0,1,0,.148,2.533h.148c12.761-1.5,19.667-8.713,25.328-16.433q.422,1.038.908,2.035a13.694,13.694,0,0,0-2.748,7.539,1.265,1.265,0,0,0,0,.19,12.884,12.884,0,0,0,.958,5.344,13.36,13.36,0,0,0,1.266,2.322c-12.389-1.769-22.335,2.068-24.783,9.878-.874,2.786-2.258,10.2,3.753,18.844a31.107,31.107,0,0,0,8.894,8.4c.452.291.908.566,1.368.844l-2.427,9.912a62.278,62.278,0,0,1-6.573-2.79,1.14,1.14,0,0,1,.038-.2q.076-.532.135-1.072A20.53,20.53,0,0,0,262.091,262.3Zm33.867-84.941c.279-.333.561-.637.844-.929l2.748,2.575c-.093.173-.186.346-.274.523a1.921,1.921,0,0,1-1.739,1.051,2.014,2.014,0,0,1-1.993-1.689,1.887,1.887,0,0,1,.418-1.528Zm4.263.536-2.495-2.334a12.213,12.213,0,0,1,3.179-1.976l1.22,1.976a14.915,14.915,0,0,0-1.9,2.339Zm2.854-3.2-.954-1.545a12.5,12.5,0,0,1,3.575-.511h.583a14.353,14.353,0,0,0-3.2,2.056ZM285.148,289.776a1.362,1.362,0,0,1-2.672-.528v-.085q1.321.325,2.659.587Zm6.332-1.634,2.111-8.709a17.957,17.957,0,0,0,2.111.139h.27a16.318,16.318,0,0,0,14.981-9.468c1.727,4.732,4.859,8.789,8.683,10.933a13.3,13.3,0,0,0,4.614,1.6,62.171,62.171,0,0,1-26.311,5.83,63.568,63.568,0,0,1-6.455-.329ZM378.045,199.3c-10.224,11.777-13.436,22.373-16.834,33.618-2.588,8.561-5.268,17.409-11.271,27.489a62.3,62.3,0,0,1-18.928,18.574h0a10.351,10.351,0,0,1-10.085-.152c-4.741-2.664-8.274-8.776-8.789-15.2v-.046a11.055,11.055,0,0,0-5.243-8.4,29.176,29.176,0,0,0,13.263-5.066c4.973-3.744,7.679-9.287,7.877-16.041a27.789,27.789,0,0,0,6.978-5.019,1.267,1.267,0,0,0,.144-.114c15.534-15.534,28.008-26.1,42.162-30.748a.667.667,0,0,1,.81.279A.675.675,0,0,1,378.045,199.3Z" transform="translate(-220.52 -109.57)"/><path class="q" d="M427.846,318.213a1.266,1.266,0,1,0,0-2.533h0a1.266,1.266,0,1,0,0,2.533Z" transform="translate(-339.596 -212.896)"/><path class="q" d="M412.059,268.68h0a.633.633,0,1,0,.449.182.633.633,0,0,0-.449-.182Z" transform="translate(-330.842 -185.736)"/><path class="q" d="M425.3,346.266a.633.633,0,1,0,0-1.266h0a.633.633,0,0,0,0,1.266Z" transform="translate(-338.493 -229.839)"/><path class="q" d="M476.059,297.93h0a.633.633,0,1,0,.449.182.633.633,0,0,0-.449-.182Z" transform="translate(-367.825 -202.639)"/><path class="q" d="M486.976,339.963a1.266,1.266,0,0,0,0-2.533h0a1.266,1.266,0,0,0,0,2.533Z" transform="translate(-373.766 -225.465)"/><path class="q" d="M271.333,378.576a1.266,1.266,0,0,0-1.266-1.266h0a1.266,1.266,0,1,0,1.266,1.266Z" transform="translate(-248.42 -248.51)"/><path class="q" d="M424.987,189.151a4.073,4.073,0,0,1,1.629.844,1.266,1.266,0,0,0,1.727-1.853,6.506,6.506,0,0,0-2.626-1.414,1.266,1.266,0,0,0-.734,2.423Z" transform="translate(-338.172 -138.352)"/><path class="q" d="M360.039,212.488a5.754,5.754,0,0,0,5.327-7.919,1.266,1.266,0,0,0-1.174-.789h-8.312a1.266,1.266,0,0,0-1.169.781,5.648,5.648,0,0,0-.422,2.174A5.762,5.762,0,0,0,360.039,212.488Zm-3.2-6.176h3.461a2.013,2.013,0,0,0,1.5,3.111,3.191,3.191,0,0,1-1.764.532,3.225,3.225,0,0,1-3.221-3.221,3.183,3.183,0,0,1,.025-.418Z" transform="translate(-297.822 -148.232)"/></g></g><g transform="translate(337.093 326.358) rotate(83)"><path class="r" d="M276.375,187.188c-7.294,6.872-16.864-6.708-7.083-14.352A45.379,45.379,0,0,1,295.468,163a5.7,5.7,0,0,0-1.393,4.905c-8.679.878-14.26,3.689-20.853,8.443C266.97,180.729,269.342,189.071,276.375,187.188Z" transform="translate(-252.68 -153.831)"/><ellipse class="r" cx="5.804" cy="4.69" rx="5.804" ry="4.69" transform="translate(19.644 41.452) rotate(-45)"/><path class="s" d="M424.27,270.919c-4.677,2.993-10.422,2.355-12.841-1.418s-.587-9.261,4.086-12.242a12.074,12.074,0,0,1,3.377-1.5,2.149,2.149,0,1,0,3.119-.38,7.572,7.572,0,0,1,6.357,3.3C430.775,262.442,428.943,267.926,424.27,270.919Z" transform="translate(-336.606 -207.215)"/><ellipse class="r" cx="6.311" cy="7.809" rx="6.311" ry="7.809" transform="translate(41.201 105.076)"/><circle class="r" cx="2.039" cy="2.039" r="2.039" transform="translate(26.169 48.11)"/><circle class="s" cx="3.276" cy="3.276" r="3.276" transform="translate(82.882 66.43)"/><circle class="r" cx="2.317" cy="2.317" r="2.317" transform="translate(51.505 101.577)"/><path class="t" d="M286.92,266.877c.684,3.4,4.534,9.211,10.608,9.793l1.558-5.171c-4.314-.393-8.671-1.625-10.714-5.64Z" transform="translate(-265.272 -213.271)"/><path class="u" d="M360.09,469.41l3.347,1.064c.891-3.174,5.948-1.756,5.065,1.418-1.127,1.79-2.816,2.153-4.859,1.621l3.761,3.761,3.466.946,2.377-10.933-11.82-3.377Z" transform="translate(-307.555 -327.719)"/><path class="r" d="M297.163,318.866c-8.582,1.013-10.313-13.664-1.735-14.677,10.705-1.8,20.368-5.8,28.316-13.432a77.476,77.476,0,0,1,6.007-5.42L328.7,281.93l-13.3,10.19c-5.652,3.8-11.988,3.635-18.375,3.829a12.055,12.055,0,0,0-9.983,5.665C283.938,310.3,287.049,317.106,297.163,318.866Z" transform="translate(-264.68 -222.558)"/><path class="v" d="M446.766,326c16.041,2.533,29.093-2.351,37.958-17.425-5.163,9.08-9.173,19.886-12.305,32.014-4.842,18.886-16.319,31.588-32.272,40.1-9.57-.249-14.525-6.5-16.716-16.357.16-5.12-3.014-8.367-8.181-10.486,14.53-1.486,23.728-7.569,24.061-21.322A11.683,11.683,0,0,0,446.766,326Z" transform="translate(-339.431 -237.952)"/><path class="w" d="M399.422,354.29c2.28,5.34,5.534,9.941,10.6,12.36a4.111,4.111,0,0,1,.844,6.923c-5.53,4.424-12.478,5.26-19.646,5.543,16.56.967,32.242.625,34.192-20.152C414.467,363.615,405.944,361.669,399.422,354.29Z" transform="translate(-325.544 -264.373)"/><path class="w" d="M366.341,412.389l-14.775-2.039c7.484,2.347,13.77,5.4,15.619,11.072a4.293,4.293,0,0,1,.165,1,8.985,8.985,0,0,1-9.734,9.443c-9.287-.7-18.417-5.813-24.365-12.47,5.91,10.3,14.926,16.184,27.54,17.008.6.055,1.2.084,1.8.084h.038c5.488,0,10.351-2.41,13.441-11.4C377.012,417.952,372.951,414.288,366.341,412.389Z" transform="translate(-292.045 -296.768)"/><path class="x" d="M414.323,456.821l.321-.177c-3.571-2.423-5.365-6.1-6.1-10.524-3.242,7.421-8.835,11.82-18.51,10.887l-1.549,4.854a50.11,50.11,0,0,0,17.489-1.494,2.161,2.161,0,0,1,1.629.156q6.222,3.377,14.61,1.807l2.469-2.136A12.453,12.453,0,0,1,414.323,456.821Z" transform="translate(-323.961 -317.438)"/><path class="y" d="M365.206,220.69c-5.239.756-9.422,2.955-11.49,8.113-1.689,1.473-3.314,1.638-4.888.211-.612,5.18-3.588,9.709-9.186,13.508-2.111,2.638-4.331,2.533-6.657,0,.511,11.566-13.208,12.17-13.723.608l-5.855,1.655L312.6,251.5a5.851,5.851,0,0,0,3.474-.561c3.938,9.312,12.778,9.017,21.064.958l7-5.365c4.28-6.754,9.57-11.461,16.075-13.7C364.919,229.525,366.324,225.418,365.206,220.69Z" transform="translate(-280.112 -187.169)"/><path class="r" d="M514.57,300.453c10.038-6.914,20.342-12.191,31.237-13.989l3.635-4.441c.388-2.491-1.347-2.71-3.757-2.2C533.794,284.467,523.616,291.622,514.57,300.453Z" transform="translate(-396.825 -221.211)"/><path class="z" d="M437.453,292.579l-1.87.367v.844c-.08,24.568-36.67,25.881-38.933,1.418q-.131-1.414-.19-2.879l-9.81,13.508,4.884,9.329,2.588-2.436a28.785,28.785,0,0,0,7.835,9.768l1.385-.076c9.641,5.665,19.6,1.752,29.752-7.843C437.787,306.758,438.88,299.468,437.453,292.579Z" transform="translate(-322.903 -228.568)"/><path class="r" d="M400.772,354.314c-1.477-3.183-1.494-6.176,1.026-8.835l-2.258-3.419C394.663,347.142,397.217,350.823,400.772,354.314Z" transform="translate(-328.794 -257.305)"/><path class="r" d="M391.2,358c-2.934-2.887-4.555-7.6-1.976-11.82l.3-3.065-3.3-4.112C381.082,347.953,384.13,353.774,391.2,358Z" transform="translate(-321.173 -255.537)"/><path class="aa" d="M285.43,452.046c7.543,6.99,26.932-2.955,8.358-21.056,14.036,7.987,14.774,18.5,11.925,23.85S294.063,464.372,285.43,452.046Z" transform="translate(-264.411 -308.695)"/><path class="ab" d="M244.09,453.41c3.8,7.6,8.822,5.593,5.34,0,5.986,6.914,10.638,12.347,10.638,12.347C254.183,467.868,246.669,461.853,244.09,453.41Z" transform="translate(-240.522 -321.651)"/><path class="ac" d="M266.612,333.131c-6.332-12.584-5.488-31.238,2.955-40.811-2.816,8.468-7.391,29.9,12.731,45.21,5.771,5.96-.6,12.588-.6,12.588C275.557,345.9,268.934,336.445,266.612,333.131Z" transform="translate(-251.136 -228.562)"/><ellipse class="ad" cx="3.516" cy="13.837" rx="3.516" ry="13.837" transform="translate(5.024 118.371) rotate(-34.52)"/><ellipse class="ad" cx="2.461" cy="6.623" rx="2.461" ry="6.623" transform="matrix(0.976, -0.219, 0.219, 0.976, 0, 96.913)"/><path class="ae" d="M436.557,170.9c1.414.785,2.271-3.613-1.317-6.649,7.071,2.8,7,8.92,6.269,14.724C438.765,174.09,436.557,170.9,436.557,170.9Z" transform="translate(-350.982 -154.554)"/><ellipse class="r" cx="5.193" cy="2.934" rx="5.193" ry="2.934" transform="translate(68.432 20.63) rotate(-15.005)"/><path class="af" d="M429.57,197.85c2.769.806,8.476-6.8,2.144-13.47,7.176,2.267,7.531,9.941,5.066,17.463C435.239,200.965,429.57,197.85,429.57,197.85Z" transform="translate(-347.706 -166.186)"/><ellipse class="ag" cx="2.275" cy="3.166" rx="2.275" ry="3.166" transform="translate(17.908 56.772)"/><circle class="ag" cx="1.241" cy="1.241" r="1.241" transform="translate(22.458 63.007)"/><path class="y" d="M301.33,344.736a20.944,20.944,0,0,0,18.916,3.5l18.916-.937c-6.209-7.121-.511-15.644-.511-15.644l-1.689-5.319c-4.023,8.139-20.992,18.726-25.847,19.148S303.474,345.686,301.33,344.736Z" transform="translate(-273.599 -248.221)"/><path class="v" d="M333.25,446.418c1.938,3.377,5.011.422,1.439-5.108a112.589,112.589,0,0,0,11.237,9.544l-2.837,11.592-9.055-3.255C334.681,455.481,333.25,446.418,333.25,446.418Z" transform="translate(-292.045 -314.659)"/><circle class="ah" cx="2.689" cy="2.689" r="2.689" transform="translate(56.144 140.83)"/><path class="a" d="M333.72,155.345c6.632-1.727,11.984-5.188,13.322-14.065a21.049,21.049,0,0,1-10.84,8.789C334.682,151.116,333.813,152.838,333.72,155.345Z" transform="translate(-292.317 -141.28)"/><path class="ae" d="M367.952,160.044c5.488,1.325,8.362-1.507,10.372-5.754a26.918,26.918,0,0,1-3.428,11.4,19.713,19.713,0,0,0-7.286-4.643Z" transform="translate(-311.901 -148.798)"/><path class="ae" d="M349.928,153.34c-1.553,10.7-11.1,13.086-13.508,12.064,4.643,3.8,8.565,3.862,11.326-2C349.27,159.769,351.064,153.458,349.928,153.34Z" transform="translate(-293.877 -148.249)"/><path class="ab" d="M354.78,177.434c5.12,1.081,8.654,3.575,9.709,8.282.443,4.825-1.9,6.134-5.264,6.176,2.955,1.055,1.224,5.872-1.727,4.816,6.965,1.009,11.946-.844,12.132-9.561-1.047-2.2-2.136-7.391-.291-10.452a22.372,22.372,0,0,0-9.131-6.366A12.942,12.942,0,0,1,354.78,177.434Z" transform="translate(-304.487 -158.067)"/><path class="ad" d="M349.878,194.472h0a2.389,2.389,0,0,1,.992,2.756c-.8,2.368-.954,4.42-.156,6.011a2.613,2.613,0,0,1-.338,2.93h0a2.571,2.571,0,0,1-4.175-.473,9.953,9.953,0,0,1,.346-10.465,2.377,2.377,0,0,1,3.331-.76Z" transform="translate(-298.765 -171.795)"/></g></g></g></svg>