<svg xmlns="http://www.w3.org/2000/svg" width="480" height="380" viewBox="0 0 480 380"><defs><style>.a{fill:none;}.b{fill:#e07070;}.c{fill:#ff906e;}.d{fill:#f5efd0;}.e{fill:#00bfff;}.f{fill:#ffaf33;}.g{fill:#e6a88a;}.h{fill:#f2f7ff;}.i,.m,.n,.p{fill:#0047ff;}.i,.k{opacity:0.25;}.j,.o,.s,.u{fill:#fff;}.j{opacity:0.4;}.k{fill:#946a6a;}.l{fill:#f06c00;opacity:0.6;}.m{opacity:0.22;}.n{opacity:0.2;}.o,.r{opacity:0.3;}.p,.q{opacity:0.15;}.q{fill:#f08400;}.t{fill:#e89025;}.u,.z{opacity:0.75;}.v,.x,.y{fill:rgba(0,0,0,0);stroke:#2d3f70;stroke-linecap:round;stroke-linejoin:round;}.v,.x{stroke-width:6px;}.w{fill:#2d3f70;}.x,.y{fill-rule:evenodd;}.y{stroke-width:4px;}</style></defs><g transform="translate(9938 -4214)"><rect class="a" width="480" height="380" transform="translate(-9938 4214)"/><g transform="translate(111 10)"><g transform="translate(-9900.176 4226)"><g transform="translate(2.719 0.552)"><path class="b" d="M179.07,306.628c.477-.218.945-.452,1.414-.678C180.015,306.184,179.547,306.41,179.07,306.628Z" transform="translate(-29.801 -50.251)"/><path class="b" d="M171.709,316.84v.619C171.7,317.267,171.7,317.049,171.709,316.84Z" transform="translate(-28.597 -52.029)"/><path class="c" d="M163.165,189.179h-7.179l-5.522-12.065a1.021,1.021,0,0,0-.92-.594H94.187a1.021,1.021,0,0,0-.929.594l-5.514,12.065H80.565a3.757,3.757,0,0,0-3.765,3.765v5.129a3.757,3.757,0,0,0,3.765,3.765h82.6a3.757,3.757,0,0,0,3.765-3.765v-5.129a3.757,3.757,0,0,0-3.765-3.765Z" transform="translate(-13.101 -29.116)"/><path class="d" d="M195.568,59.51q-31.059-16.4-62.118,0h0a35.05,35.05,0,0,0-4.15,16.533c13.028,9.321,23.9,18.868,28.021,34.456A35.2,35.2,0,0,0,195.559,59.51Z" transform="translate(-21.674 -8.671)"/><path class="d" d="M49.325,59.518a35.192,35.192,0,1,0,62.143,0Q80.426,43.1,49.325,59.518Z" transform="translate(-7.942 -8.671)"/><path class="e" d="M130.66,32.522A44.4,44.4,0,0,1,173.332.35H211.4A80.726,80.726,0,0,1,188.293,22.5C167.526,13.277,143.847,15.545,130.66,32.522Z" transform="translate(-21.896 -0.35)"/><path class="e" d="M114.9,32.522C101.708,15.553,78.037,13.277,57.27,22.481A80.726,80.726,0,0,1,34.16.35H72.23A44.4,44.4,0,0,1,114.9,32.522Z" transform="translate(-6.139 -0.35)"/><path class="f" d="M156.017,126.119a54.671,54.671,0,0,0-1.673-10.794c-4.117-15.588-14.994-25.1-28.021-34.456a35.142,35.142,0,0,1-15.329,29.092c-4.326,3.523-6.694,8.509-6.694,16.182v.243a16,16,0,0,0,3.431,9.764,16.45,16.45,0,0,0,12.952,6.3l10.768.025-10.091-16.023h0c3.445.382-3.259-.731,0,.449l10.091,15.574h2.97c7.187,0,10.618-1.824,13.262-3.347a45.049,45.049,0,0,1,6.535,8.275,100.1,100.1,0,0,0,1.6-11.237A72.8,72.8,0,0,0,156.017,126.119Z" transform="translate(-17.591 -13.498)"/><path class="e" d="M166.649,38.81a35.142,35.142,0,0,1,31.059,18.659q-31.059-16.408-62.118,0h0A35.192,35.192,0,0,1,166.649,38.81Z" transform="translate(-22.701 -6.63)"/><path class="e" d="M82.527,38.81A35.184,35.184,0,0,1,113.6,57.477q-31.059-16.416-62.143,0A35.142,35.142,0,0,1,82.527,38.81Z" transform="translate(-8.963 -6.63)"/><path class="e" d="M168.134,297.713a9,9,0,0,1,5.062-6.342l.912-.435c.477-.218.945-.443,1.414-.678-.469.226-.937.46-1.414.678a80.7,80.7,0,0,1-14.224,5.213,8.878,8.878,0,0,1-4.937-17.052c2.234-.7,4.409-1.464,6.535-2.3s4.326-1.791,6.409-2.786a9.1,9.1,0,0,1-3.916.879,9.254,9.254,0,0,1-4.1-17.571c1.849-.912,3.715-1.883,5.581-2.92,3.506-1.941,7-4.083,10.375-6.359A46.856,46.856,0,0,0,196.5,209.85h0c0,53.8,36.4,53.081,44,20.3a108.957,108.957,0,0,1-59.549,77.664,8.835,8.835,0,0,1-3.882.9,9.112,9.112,0,0,1-8.518-5.924,9.254,9.254,0,0,1-.577-2.811v-.619a9.128,9.128,0,0,1,.159-1.64Z" transform="translate(-24.839 -34.559)"/><path class="e" d="M75.548,274.016c1.908.92,3.874,1.774,5.857,2.577h0c2.284.92,4.635,1.749,7.053,2.51a8.886,8.886,0,0,1-4.895,17.052,80.812,80.812,0,0,1-14.224-5.2l.912.427a9,9,0,0,1,5.02,6.342,9.13,9.13,0,0,1,.184,1.673v.619a9.254,9.254,0,0,1-.577,2.811,9.112,9.112,0,0,1-8.518,5.924,8.835,8.835,0,0,1-3.882-.9A109.074,109.074,0,0,1,2.93,230.189c7.606,32.782,44,33.468,44-20.3h0A46.856,46.856,0,0,0,67.6,248.078c3.113,2.109,6.342,4.1,9.58,5.916h0c2.125,1.2,4.259,2.318,6.376,3.347a9.254,9.254,0,0,1-4.108,17.571,9.1,9.1,0,0,1-3.9-.9Z" transform="translate(-1.039 -34.565)"/><path class="f" d="M169.1,317.138v7.723a6.694,6.694,0,0,1-13.387,0v-9.99H169.1v1.673C169.089,316.728,169.089,316.945,169.1,317.138Z" transform="translate(-25.986 -51.707)"/><path class="f" d="M153.117,324.86v2.828a6.694,6.694,0,0,1-13.387,0V314.87h13.387Z" transform="translate(-23.377 -51.707)"/><path class="f" d="M118.947,314.87v12.818a6.694,6.694,0,0,1-13.387,0V314.87Z" transform="translate(-17.797 -51.707)"/><path class="f" d="M102.977,314.865v9.99a6.694,6.694,0,0,1-13.387,0V314.84h13.387Z" transform="translate(-15.19 -51.702)"/><path class="e" d="M48.993,125.061a41.325,41.325,0,0,1-22.315-13.3C13.416,96.47,11.5,71.971,23.666,52.71A67.966,67.966,0,0,1,54.231,25.776c20.767-9.2,44.438-6.945,57.633,10.041C125.05,18.84,148.729,16.573,169.5,25.776A67.991,67.991,0,0,1,200.053,52.71c12.174,19.244,10.258,43.76-3,59.055a41.426,41.426,0,0,1-22.315,13.287,49.927,49.927,0,0,1-11.162,1.222H141.349a72.742,72.742,0,0,0,.176-10.041,54.671,54.671,0,0,0-1.673-10.794A35.2,35.2,0,1,0,111.83,70.984,35.142,35.142,0,1,0,96.5,100.093c-4.326,3.523-6.694,8.509-6.694,16.182v.243a16,16,0,0,0,3.431,9.764H60.146a49.9,49.9,0,0,1-11.153-1.222Z" transform="translate(-3.099 -3.629)"/><path class="g" d="M154.226,277.866a9.254,9.254,0,0,1-4.1-17.571c1.849-.912,3.715-1.883,5.581-2.92l2.083-29.285H89.18l2.058,28.875h0c2.125,1.2,4.259,2.318,6.376,3.347a9.254,9.254,0,0,1-4.108,17.571A9.1,9.1,0,0,1,89.6,277c1.908.92,3.874,1.774,5.857,2.577H151.59l.084.209q3.288-1.289,6.409-2.786a9.1,9.1,0,0,1-3.857.862Z" transform="translate(-15.123 -37.537)"/><path class="h" d="M87.71,206.78l1.263,17.814h68.61l1.272-17.814Z" transform="translate(-14.883 -34.057)"/><path class="h" d="M96.524,309.172a8.881,8.881,0,0,0,4.945-17.052c-2.418-.761-4.769-1.59-7.053-2.51h56.127l.084.209c-2.125.837-4.3,1.6-6.535,2.3a8.878,8.878,0,0,0,4.937,17.052,80.7,80.7,0,0,0,14.224-5.213l-.912.435a9,9,0,0,0-5.062,6.342H88.232a9,9,0,0,0-5.02-6.342l-.912-.427A80.817,80.817,0,0,0,96.524,309.172Z" transform="translate(-13.999 -47.583)"/><path class="b" d="M89.61,316.84v0Z" transform="translate(-15.193 -52.029)"/><path class="b" d="M89.39,314.86h69.062a9.128,9.128,0,0,0-.184,1.673V314.86H89.574v1.673a9.13,9.13,0,0,0-.184-1.673Z" transform="translate(-15.157 -51.706)"/><path class="e" d="M205.8,196.761h0V142.877a41.426,41.426,0,0,0,22.315-13.287,107.886,107.886,0,0,1,23.579,67.171,109.609,109.609,0,0,1-1.891,20.3C242.2,249.876,205.8,250.562,205.8,196.761Z" transform="translate(-34.165 -21.453)"/><path class="e" d="M46.564,196.761c0,53.8-36.4,53.081-44,20.3a109.609,109.609,0,0,1-1.891-20.3A107.886,107.886,0,0,1,24.249,129.59a41.325,41.325,0,0,0,22.315,13.3v53.876Z" transform="translate(-0.67 -21.453)"/><path class="e" d="M168.067,214.582l1.383-17.814h6.659a4.273,4.273,0,0,0,2.9-1.1A3.61,3.61,0,0,0,180.2,193v-5.129a3.61,3.61,0,0,0-1.2-2.665,4.273,4.273,0,0,0-2.9-1.1H168.3l-6-12.065a1.119,1.119,0,0,0-1-.594H136.69V153h3.284c7.815,0,11.545-1.824,14.42-3.347a45.861,45.861,0,0,1,7.105,8.275,92.583,92.583,0,0,0,1.738-11.237H187.4a58.834,58.834,0,0,0,12.136-1.222v53.884c-.238,15.346-8.633,29.611-22.471,38.188-3.639,2.276-7.469,4.418-11.281,6.359Z" transform="translate(-27.926 -24.046)"/><path class="e" d="M118.4,153v18.45H93.788a1.12,1.12,0,0,0-1.01.594l-6,12.065H78.977a4.273,4.273,0,0,0-2.9,1.1,3.61,3.61,0,0,0-1.2,2.665v5.129a3.61,3.61,0,0,0,1.2,2.665,4.273,4.273,0,0,0,2.9,1.1h5.832l3.639,46.689c-3.521-1.816-7.032-3.807-10.417-5.916C64.193,228.967,55.8,214.7,55.56,199.356V145.48A58.8,58.8,0,0,0,67.687,146.7h35.854a18.494,18.494,0,0,0,14.083,6.3Z" transform="translate(-9.633 -24.048)"/></g><g transform="translate(8.267)"><path class="i" d="M72.749,39.783C42.569,37.942,27.475,54.9,27.475,74.975c-.418,11.605,4.066,23.269,16.575,35.016,6.259,4.393,12.977,7.363,20.55,7.74,5.681,2.05,12.659,2.97,21.244,2.51l2.862-13.069C64.4,114.753,46.3,108.745,38.5,80.2,36.7,52.317,51.505,42.544,72.749,39.783Z" transform="translate(-4.733 -7.051)"/><path class="i" d="M158.882,120.284a47.115,47.115,0,0,0,13.714-2.552c7.53-.377,14.291-3.347,20.55-7.74,12.509-11.714,16.994-23.428,16.575-35.016,0-20.081-15.061-37.025-45.275-35.192C185.69,42.536,200.5,52.334,198.693,80.2c-6.853,25.06-21.637,32.749-41.593,29.126Z" transform="translate(-25.904 -7.051)"/><path class="j" d="M149.2,148.592l-6.811-8.116c.577-10.041-.385-20.583-4.234-26.2-7.1-9.932-18.818-10.969-28.858-5.455,6.635-6.292,10.877-14.776,12.475-25.6C150.926,100.18,153.587,123.541,149.2,148.592Z" transform="translate(-18.098 -14.166)"/><path class="k" d="M151.811,205.93H80.69l.711,10.041h48.672a8.6,8.6,0,0,1,8.585,9.045l-.962,18.458c-1.155,22.014-23.637,36.656-44.061,28.348q-.653-.268-1.213-.527a33.47,33.47,0,0,1-5.3,3.506l11.112,4.552c5.38,7.7,3.481,13.329-5.255,17.035h45.785c-8.9-5.857-9.388-12.275-1.063-19.186l7.664-3.071c-5.857-1.372-8.417-5.02-7.53-11.12,1.59-3.841,5.363-7.087,10.651-9.923l3.347-40.873h-.443Z" transform="translate(-13.427 -34.203)"/><path class="l" d="M97.24,135.98c1.942,9.873,7.778,16.559,22.118,16.308v-16Z" transform="translate(-16.129 -22.781)"/><path class="l" d="M130.19,139.35c8.239,2.677,15.4,5.857,20.292,10.174a50.417,50.417,0,0,1-20.292,4.121Z" transform="translate(-27.025 -23.331)"/><path class="j" d="M70.473.69h-42Q30.83,4.3,33.415,7.534l1.74,2.4h.276A59.515,59.515,0,0,0,50.492,22.545a34.841,34.841,0,0,1-5.765-7.882,3.2,3.2,0,0,1,2.845-4.719H69.327c19.562.293,33.561,10.258,38.8,22.65C103.23,14.119,89.107,5.1,70.473.69Z" transform="translate(-4.9 -0.69)"/><path class="j" d="M161.3.69h42q-2.359,3.615-4.945,6.844l-1.74,2.4h-.276a59.516,59.516,0,0,1-15.061,12.609,34.841,34.841,0,0,0,5.765-7.882,3.2,3.2,0,0,0-2.828-4.727H162.458c-19.554.293-33.561,10.258-38.8,22.65C128.53,14.119,142.662,5.1,161.3.69Z" transform="translate(-20.443 -0.69)"/><path class="i" d="M184.326,147.609l-27.7.594-1.228,9.539h.082l-.082.72-8.286-7.614c-4.693,2.15-10.523,3.188-17.427,3.188v18.45h24.558l6.776,12.659h12.124V197.8H162.442L158.8,244.935c15.3-6.794,27.286-17.437,33.744-34.531V146.68Z" transform="translate(-26.461 -24.528)"/><path class="m" d="M63.636,147.733v48.529c0,12.693,1.523,22.139,13.864,30.414l1.272,17.83Q50.324,229.848,48.5,202.228V157.355l.787-10.685Z" transform="translate(-8.17 -24.527)"/><path class="n" d="M239.231,229.006c-5.3,6.769-4.619,9.129-12.919,8.886,11.932-19.763,10.919-38.388,6.267-61a27.8,27.8,0,0,0-30.866-21.755h-.243v-10.71l.485-1.046c9.706-1.573,15.68-6.635,22.056-12.417l6.342,9.748C241.632,164.5,250.275,192.751,239.231,229.006Z" transform="translate(-33.149 -21.961)"/><path class="o" d="M22.413,163.055V197.36a9.957,9.957,0,0,1-9.957,9.957h0A9.948,9.948,0,0,1,2.5,197.067c.5-14.885,3.23-24.373,9.2-36.531a5.639,5.639,0,0,1,5.07-3.146h0a5.648,5.648,0,0,1,5.639,5.665Z" transform="translate(-0.658 -26.277)"/><path class="p" d="M233.213,253.66c-9.731,28.448-29.076,48.923-56.369,62.912-11.547,4.008-17.571-13.237-5.991-17.245,11.162-5.623,20.985-11.856,28.114-19.311a110.738,110.738,0,0,0,14.391-18.408C219.524,262.847,226.2,259.718,233.213,253.66Z" transform="translate(-27.131 -41.997)"/><path class="p" d="M.3,235.517C15.244,257,37.408,236.864,38.688,207.78c1.188,28.256,2.611,34.473-15.672,45.659C8.383,255.222,3.722,251.465.3,235.517Z" transform="translate(-0.3 -34.505)"/><path class="o" d="M215.782,212.657h0a8.8,8.8,0,0,1-8.8-8.8V184.309a7.279,7.279,0,0,1,7.279-7.279h0a7.238,7.238,0,0,1,6.56,4.108c2.686,5.681,3.523,13.187,3.765,22.491a8.8,8.8,0,0,1-8.8,9.028Z" transform="translate(-34.048 -29.484)"/><path class="q" d="M109.414,58.552l.837.661a44.222,44.222,0,0,1,1.857,4.25,31.837,31.837,0,0,1,1.841,21.328v.234h0C109.313,102.6,90.688,116.151,72,111.8l-1.1-3.707c13.521,1.59,23.11-5.246,27.745-14.659,6.945-14.107.945-31.017-12.777-38.69A38.875,38.875,0,0,0,80.74,52.36Z" transform="translate(-11.828 -9.127)"/><path class="q" d="M193.346,58.478l1.13.9a43.31,43.31,0,0,1,2.443,6.058,31.686,31.686,0,0,1,1.489,17.245c-.1.778-.218,1.556-.368,2.343l-.109-.209c-4.56,17.646-23.244,31.327-41.995,26.976l-1.1-3.707c14.082,1.673,23.9-5.857,28.289-15.847C188.066,81,185.238,67.925,176.712,59.1a78.112,78.112,0,0,0-7.581-6.777Z" transform="translate(-25.534 -9.121)"/><path class="p" d="M50,222.14q-.594-2.234-.979-4.61C49.371,219.095,49.706,220.634,50,222.14Z" transform="translate(-8.255 -36.097)"/><path class="n" d="M5.54,252.679c10.25,23.478,41.626,9.2,39.744-22.173C44.238,228,40.1,224.08,40.1,224.08,41.519,242.638,26.667,264.6,5.54,252.679Z" transform="translate(-1.156 -37.167)"/><g class="r" transform="translate(41.962 184.629)"><path class="s" d="M138.723.35h0l3.263,11.605a46.923,46.923,0,0,1-18.1,23.537,135.925,135.925,0,0,1-15.956,9.279,9.246,9.246,0,0,0-4.594,11.48,2.511,2.511,0,0,0,.142.343,9.2,9.2,0,0,1-.569-16.843,135.924,135.924,0,0,0,15.956-9.279A46.856,46.856,0,0,0,138.723.35Z" transform="translate(-16.33 -0.35)"/><path class="s" d="M96.112,85.9a8.869,8.869,0,0,1,.527-16.734c2.385-.753,4.711-1.573,6.978-2.51,2.042-.837,4.025-1.673,5.966-2.6a89.152,89.152,0,0,0,26-18.7h0a6.978,6.978,0,0,1-.343,10.183,91.854,91.854,0,0,1-20.65,13.6,97.058,97.058,0,0,1-12.944,5.087A8.852,8.852,0,0,0,95.7,84.634,7.915,7.915,0,0,0,96.112,85.9Z" transform="translate(-15.145 -7.698)"/><path class="s" d="M42.386,84.645a8.852,8.852,0,0,0-5.941-10.417A97.058,97.058,0,0,1,23.5,69.141,91.854,91.854,0,0,1,2.835,55.6,6.978,6.978,0,0,1,2.492,45.42h0a89.152,89.152,0,0,0,26,18.7c1.941.929,3.924,1.8,5.966,2.6,2.267.912,4.594,1.732,6.978,2.51a8.869,8.869,0,0,1,.527,16.734,7.915,7.915,0,0,0,.427-1.322Z" transform="translate(-0.451 -7.709)"/><path class="s" d="M36.093,59.238a2.51,2.51,0,0,0,.142-.343,9.2,9.2,0,0,0-4.585-11.48,135.246,135.246,0,0,1-15.956-9.279q-.929-.628-1.824-1.3A15.153,15.153,0,0,1,8.331,20.85h0A46.806,46.806,0,0,0,20.715,33.116,135.246,135.246,0,0,0,36.671,42.4a9.246,9.246,0,0,1-.577,16.843Z" transform="translate(-1.656 -3.697)"/></g><path class="t" d="M82.608,315.87H95.87v8.961a6.635,6.635,0,0,1-6.635,6.635h0a6.635,6.635,0,0,1-6.635-6.635V315.87Z" transform="translate(-13.739 -52.155)"/><path class="j" d="M156.165,192.867H103.955v-.837H80.744v.837H73.565a3.765,3.765,0,0,0-3.765,3.765v5.02a3.757,3.757,0,0,1,3.765-3.765h3.79a3.347,3.347,0,0,1,3.347,3.347v3.414h23.21v-2.862a3.941,3.941,0,0,1,3.941-3.941h48.27a3.757,3.757,0,0,1,3.765,3.765v-5.02A3.765,3.765,0,0,0,156.165,192.867Z" transform="translate(-11.648 -31.933)"/><path class="j" d="M148.339,182.54l-2.025-4.426a1.021,1.021,0,0,0-.92-.594H90a1.021,1.021,0,0,0-.929.594L87.05,182.54h4.468a2.326,2.326,0,0,1,2.184,3.146l-1.322,3.539,18.307,1.272.72-5.221a3.163,3.163,0,0,1,3.129-2.728Z" transform="translate(-14.465 -29.564)"/><circle class="u" cx="3.456" cy="3.456" r="3.456" transform="translate(44.756 82.031)"/></g><g transform="translate(0 0.569)"><circle class="v" cx="35.192" cy="35.192" r="35.192" transform="translate(41.091 32.155)"/><circle class="w" cx="14.107" cy="14.107" r="14.107" transform="translate(126.695 53.24)"/><path class="x" d="M161.655,108.459A35.192,35.192,0,1,0,133.65,74" transform="translate(-22.175 -6.647)"/><path class="x" d="M129.336,80.87c20.165,14.442,35.192,29.394,27.9,66.519h0a44.471,44.471,0,0,0-37.92-21.244H107.23c0-7.673,2.385-12.659,6.694-16.182" transform="translate(-17.861 -13.515)"/><path class="x" d="M139.69,153.817h4.295c10.219,0,15.1-1.824,18.856-3.347" transform="translate(-30.029 -24.879)"/><path class="x" d="M107.24,134.98v.243c.186,8.938,9.476,16.1,20.844,16.065h.873" transform="translate(-17.862 -22.35)"/><path class="x" d="M96.154,126.281H63.146c-39.911,0-55.625-43.266-36.481-73.572,20.382-33.845,67.372-43.718,88.2-16.893" transform="translate(-3.379 -3.644)"/><path class="x" d="M117.9,32.542h0A44.4,44.4,0,0,0,75.23.37H37.16A80.726,80.726,0,0,0,60.27,22.518" transform="translate(-6.419 -0.37)"/><path class="x" d="M133.66,35.816c20.826-26.825,67.774-16.952,88.189,16.893,19.152,30.306,3.439,73.572-36.481,73.572H163.137" transform="translate(-22.176 -3.644)"/><path class="x" d="M133.66,32.542h0A44.4,44.4,0,0,1,176.332.37H214.4a80.726,80.726,0,0,1-23.11,22.148" transform="translate(-22.176 -0.37)"/><path class="x" d="M94.022,253.467,90.7,206.77h71.112L158.457,253.9" transform="translate(-15.162 -34.073)"/><path class="x" d="M98.39,314.86h58.244" transform="translate(-16.417 -51.722)"/><rect class="v" width="90.131" height="12.659" rx="4.5" transform="translate(66.41 160.046)"/><path class="x" d="M161.121,189.179,155.6,177.114a1.021,1.021,0,0,0-.929-.594H99.321a1.021,1.021,0,0,0-.929.594L92.87,189.179" transform="translate(-15.516 -29.133)"/><path class="x" d="M58.52,145.47v53.207A46.906,46.906,0,0,0,79.2,237.542a136.338,136.338,0,0,0,15.956,9.279,9.2,9.2,0,0,1,4.585,11.5h0a9.2,9.2,0,0,1-12.6,5.2,89.151,89.151,0,0,1-26-18.709" transform="translate(-9.907 -24.063)"/><path class="x" d="M155.77,125.35a20.081,20.081,0,0,1,1.74,6.468" transform="translate(-25.787 -20.778)"/><path class="x" d="M49.75,209.87c0,56.57-40.229,52.863-44.94,14.994" transform="translate(-1.137 -34.579)"/><path class="x" d="M11.389,314.85H.42" transform="translate(-0.42 -51.721)"/><path class="x" d="M51.526,314.85h-28" transform="translate(-4.194 -51.721)"/><path class="x" d="M248.683,314.85H210.32" transform="translate(-34.694 -51.721)"/><path class="x" d="M267.834,315h-.084" transform="translate(-44.072 -51.745)"/><path class="x" d="M161.451,314.85H92.38" transform="translate(-15.436 -51.721)"/><path class="x" d="M92.61,314.87H106v10a6.694,6.694,0,0,1-6.694,6.694h0a6.694,6.694,0,0,1-6.694-6.694Z" transform="translate(-15.473 -51.724)"/><path class="x" d="M108.58,314.87h13.387v12.818a6.694,6.694,0,0,1-6.694,6.694h0a6.694,6.694,0,0,1-6.694-6.694Z" transform="translate(-18.081 -51.724)"/><path class="x" d="M186.947,228.064H125.39" transform="translate(-41.56 -37.549)"/><path class="x" d="M103.24,228.06H92.22" transform="translate(-15.41 -37.549)"/><path class="x" d="M99.74,289.61h56.135" transform="translate(-16.638 -47.599)"/><path class="x" d="M116.6,59.527q-31.067-16.425-62.143,0" transform="translate(-9.244 -8.689)"/><path class="x" d="M138.59,59.527q31.067-16.425,62.143,0" transform="translate(-22.981 -8.689)"/><path class="x" d="M86.015,286.063a97.485,97.485,0,0,0,12.944,5.087,8.852,8.852,0,0,1,5.941,10.409h0A8.894,8.894,0,0,1,94.023,308.2C78.9,304.345,62.905,294.531,51.66,283.67" transform="translate(-8.787 -46.629)"/><path class="x" d="M200.64,145.47v53.207a46.906,46.906,0,0,1-20.675,38.865,136.338,136.338,0,0,1-15.956,9.279,9.2,9.2,0,0,0-4.594,11.5h0a9.2,9.2,0,0,0,12.6,5.2,89.151,89.151,0,0,0,26-18.709" transform="translate(-26.286 -24.063)"/><path class="x" d="M208.8,209.87c0,56.57,40.229,52.863,44.94,14.994" transform="translate(-34.446 -34.579)"/><path class="x" d="M170.871,286.063a97.486,97.486,0,0,1-12.944,5.087,8.852,8.852,0,0,0-5.941,10.409h0a8.894,8.894,0,0,0,10.877,6.644c15.119-3.857,31.117-13.672,42.363-24.532" transform="translate(-25.132 -46.629)"/><path class="x" d="M69.454,276.652c1.1.561,2.217,1.1,3.347,1.623a9.1,9.1,0,0,1-3.849,17.353,8.836,8.836,0,0,1-3.882-.9A108.338,108.338,0,0,1,27.209,129.6" transform="translate(-0.944 -21.472)"/><path class="x" d="M6.694,0h0a6.694,6.694,0,0,1,6.694,6.694v10H0V6.685A6.694,6.694,0,0,1,6.694,0Z" transform="translate(145.831 279.822) rotate(180)"/><path class="x" d="M6.694.008h0A6.694,6.694,0,0,1,13.387,6.7V19.52H0V6.694A6.694,6.694,0,0,1,6.694,0Z" transform="translate(132.468 282.65) rotate(180)"/><path class="x" d="M225.547,129.59a108.338,108.338,0,0,1-37.861,165.134,8.836,8.836,0,0,1-3.882.9,9.1,9.1,0,0,1-3.849-17.353c1.146-.527,2.259-1.063,3.347-1.623" transform="translate(-28.878 -21.47)"/><path class="y" d="M81.85,131.96c7.363,2.51,10.877,2.51,21.244,2.51" transform="translate(-13.717 -21.857)"/><path class="y" d="M169.1,134.46c5.1,0,8.367,0,13.68-2.51" transform="translate(-27.963 -21.855)"/><path class="y" d="M42.39,103.41a45.408,45.408,0,0,0,12.467,16.149" transform="translate(-7.273 -17.195)"/><path class="y" d="M37.48,80.87A45.333,45.333,0,0,0,39.153,93" transform="translate(-6.471 -13.515)"/><path class="y" d="M225.19,99.2a45.1,45.1,0,0,0,3.866-18.332" transform="translate(-37.122 -13.515)"/><path class="y" d="M209.99,120.663a45.509,45.509,0,0,0,9.4-10.543" transform="translate(-34.64 -18.291)"/><path class="y" d="M19.81,221.84c0,6.945,10.6,6.945,10.6,0" transform="translate(-3.586 -36.533)"/><path class="y" d="M32.66,198.7c0,6.945,10.6,6.945,10.6,0" transform="translate(-5.684 -32.755)"/><path class="y" d="M32.411,175.55c0,6.945-10.6,6.945-10.6,0" transform="translate(-3.913 -28.975)"/><path class="y" d="M245.421,221.84c0,6.945-10.6,6.945-10.6,0" transform="translate(-38.695 -36.533)"/><path class="y" d="M232.581,198.7c0,6.945-10.6,6.945-10.6,0" transform="translate(-36.598 -32.755)"/><path class="y" d="M232.82,175.55c0,6.945,10.6,6.945,10.6,0" transform="translate(-38.368 -28.975)"/></g><g class="z" transform="translate(130.462 60.686) rotate(-45)"><ellipse class="s" cx="13.019" cy="8.568" rx="13.019" ry="8.568" transform="matrix(0.353, -0.936, 0.936, 0.353, 0, 24.362)"/></g><circle class="w" cx="14.107" cy="14.107" r="14.107" transform="translate(55.574 53.809)"/><g class="z" transform="translate(59.342 60.686) rotate(-45)"><ellipse class="s" cx="13.019" cy="8.568" rx="13.019" ry="8.568" transform="matrix(0.353, -0.936, 0.936, 0.353, 0, 24.362)"/></g></g></g></g></svg>