<svg xmlns="http://www.w3.org/2000/svg" xmlns:xlink="http://www.w3.org/1999/xlink" width="1281.694" height="801" viewBox="0 0 1281.694 801"><defs><style>.a,.n,.t,.y{fill:#fff;}.b{opacity:0.03;fill:url(#a);}.c{fill:url(#b);}.d{fill:#e07070;}.e{fill:#ff906e;}.f{fill:#a36f6f;}.g{fill:#e6b8a1;}.h{fill:#f5efd0;}.i{fill:#00bfff;}.j{fill:#ffaf33;}.k{fill:#e6a88a;}.l{fill:#f2f7ff;}.m,.q,.s,.u{fill:#0047ff;}.m,.o{opacity:0.25;}.n,.r{opacity:0.4;}.o,.r{fill:#946a6a;}.p{fill:#f06c00;opacity:0.6;}.q{opacity:0.22;}.s{opacity:0.2;}.t,.w{opacity:0.3;}.u,.v{opacity:0.15;}.v{fill:#f08400;}.x{fill:#e89025;}.ad,.y{opacity:0.75;}.z{fill:#2d3f70;}.aa,.ab,.ac{fill:none;stroke:#2d3f70;stroke-linecap:round;stroke-linejoin:round;}.aa,.ab{stroke-width:6px;}.ab,.ac{fill-rule:evenodd;}.ac{stroke-width:4px;}</style><linearGradient id="a" x1="0.566" y1="0.01" x2="0.486" y2="0.721" gradientUnits="objectBoundingBox"><stop offset="0" stop-color="#6a9325"/><stop offset="1" stop-color="#66c9d8"/></linearGradient><linearGradient id="b" x1="0.487" y1="1" x2="0.465" y2="0.03" xlink:href="#a"/></defs><g transform="translate(14526.694 2462)"><g transform="translate(-14526 -2462)"><rect class="a" width="1280" height="801" transform="translate(1)"/><g transform="translate(170 -2605)"><path class="b" d="M321.657,0C499.3,0,643.314,160.012,643.314,357.4V619.982H0V357.4C0,160.012,144.011,0,321.657,0Z" transform="translate(449.288 2669.822) rotate(90)"/><path class="c" d="M268.447,573.98V0H501.1C585.6,0,662.424,29.577,719.487,77.868h61.187a5.143,5.143,0,0,1,0,10.286H731.041c55.081,51.581,88.934,121.646,88.934,198.835,0,72.914-30.2,139.468-79.976,190.094h57.067a2.892,2.892,0,1,1,0,5.784H734.154q-4.427,4.266-9.033,8.357h83.2a5.143,5.143,0,0,1,0,10.286H712.925a319.29,319.29,0,0,1-39.513,27h66.44a6.107,6.107,0,0,1,0,12.215H650.228A346.029,346.029,0,0,1,501.1,573.98Z" transform="translate(-437.365 2704.567)"/><g transform="translate(44.168 2882.96)"><g transform="translate(2.089 0.424)"><path class="d" d="M179.07,306.471c.366-.167.726-.347,1.086-.521C179.8,306.13,179.436,306.3,179.07,306.471Z" transform="translate(-64.385 -109.493)"/><path class="d" d="M171.707,316.84v.476C171.7,317.168,171.7,317,171.707,316.84Z" transform="translate(-61.753 -113.383)"/><path class="e" d="M143.156,186.246H137.64l-4.243-9.27a.784.784,0,0,0-.707-.456H90.159a.784.784,0,0,0-.714.456l-4.236,9.27H79.693a2.886,2.886,0,0,0-2.893,2.893v3.941a2.886,2.886,0,0,0,2.893,2.893h63.463a2.886,2.886,0,0,0,2.893-2.893v-3.941a2.886,2.886,0,0,0-2.893-2.893Z" transform="translate(-27.859 -63.268)"/><path class="f" d="M133.152,244.823a7.245,7.245,0,0,1,0,10.234l-6.268,6.268a7.239,7.239,0,0,1-10.241-10.234l6.268-6.268A7.245,7.245,0,0,1,133.152,244.823Z" transform="translate(-41.332 -86.905)"/><path class="g" d="M132.383,147.641v14.175H124.63V135.35h0a33.679,33.679,0,0,1,7.753,1.806Z" transform="translate(-44.942 -48.564)"/><path class="h" d="M180.214,57.61q-23.863-12.6-47.726,0h0a26.929,26.929,0,0,0-3.189,12.7c10.009,7.161,18.366,14.5,21.529,26.473A27.044,27.044,0,0,0,180.208,57.61Z" transform="translate(-46.609 -18.55)"/><path class="h" d="M48.37,57.616a27.039,27.039,0,1,0,47.745,0Q72.265,45,48.37,57.616Z" transform="translate(-16.575 -18.55)"/><path class="i" d="M130.66,25.068A34.11,34.11,0,0,1,163.446.35H192.7A62.023,62.023,0,0,1,174.94,17.366C158.984,10.282,140.791,12.024,130.66,25.068Z" transform="translate(-47.095 -0.35)"/><path class="i" d="M96.2,25.068c-10.138-13.037-28.324-14.786-44.28-7.714A62.023,62.023,0,0,1,34.16.35H63.41A34.11,34.11,0,0,1,96.2,25.068Z" transform="translate(-12.631 -0.35)"/><path class="j" d="M144.035,115.636a42,42,0,0,0-1.286-8.293c-3.163-11.976-11.52-19.286-21.529-26.473a27,27,0,0,1-11.777,22.352c-3.324,2.706-5.143,6.538-5.143,12.433v.186a12.291,12.291,0,0,0,2.636,7.5,12.638,12.638,0,0,0,9.951,4.841h.521V115.893h0a33.679,33.679,0,0,1,7.753,1.806v10.5h2.282c5.522,0,8.158-1.4,10.189-2.571a34.611,34.611,0,0,1,5.021,6.358,76.9,76.9,0,0,0,1.228-8.634A55.925,55.925,0,0,0,144.035,115.636Z" transform="translate(-37.681 -29.107)"/><path class="i" d="M159.453,38.81a27,27,0,0,1,23.863,14.336q-23.863-12.606-47.726,0h0A27.039,27.039,0,0,1,159.453,38.81Z" transform="translate(-48.856 -14.086)"/><path class="i" d="M75.329,38.81A27.032,27.032,0,0,1,99.2,53.152q-23.863-12.613-47.745,0A27,27,0,0,1,75.329,38.81Z" transform="translate(-18.809 -14.086)"/><path class="i" d="M163.628,277.356a6.917,6.917,0,0,1,3.889-4.873l.7-.334c.366-.167.726-.341,1.086-.521-.36.174-.72.354-1.086.521a62,62,0,0,1-10.929,4,6.821,6.821,0,0,1-3.793-13.1c1.716-.54,3.388-1.125,5.021-1.768s3.324-1.376,4.924-2.141a6.994,6.994,0,0,1-3.009.675,7.11,7.11,0,0,1-3.15-13.5c1.421-.7,2.854-1.446,4.288-2.244,2.694-1.491,5.381-3.137,7.971-4.886a36,36,0,0,0,15.879-29.34h0c0,41.336,27.964,40.783,33.808,15.6a83.713,83.713,0,0,1-45.752,59.67,6.789,6.789,0,0,1-2.983.688,7,7,0,0,1-6.544-4.551,7.11,7.11,0,0,1-.444-2.16v-.476a7.013,7.013,0,0,1,.122-1.26Z" transform="translate(-53.532 -75.172)"/><path class="i" d="M58.723,259.158c1.466.707,2.976,1.363,4.5,1.98h0c1.755.707,3.561,1.344,5.419,1.929a6.827,6.827,0,0,1-3.761,13.1,62.092,62.092,0,0,1-10.929-4l.7.328a6.917,6.917,0,0,1,3.857,4.873,7.014,7.014,0,0,1,.141,1.286v.476a7.11,7.11,0,0,1-.444,2.16,7,7,0,0,1-6.544,4.551,6.788,6.788,0,0,1-2.983-.688A83.8,83.8,0,0,1,2.93,225.486c5.844,25.187,33.808,25.714,33.808-15.6h0a36,36,0,0,0,15.879,29.34c2.391,1.62,4.873,3.15,7.361,4.545h0c1.633.919,3.272,1.781,4.9,2.571a7.11,7.11,0,0,1-3.156,13.5,6.988,6.988,0,0,1-3-.688Z" transform="translate(-1.477 -75.186)"/><path class="j" d="M166,316.612v5.934a5.143,5.143,0,0,1-10.286,0V314.87H166v1.286C165.989,316.3,165.989,316.464,166,316.612Z" transform="translate(-56.042 -112.679)"/><path class="j" d="M150.016,322.546v2.173a5.143,5.143,0,0,1-10.286,0V314.87h10.286Z" transform="translate(-50.334 -112.679)"/><path class="j" d="M115.846,314.87v9.849a5.143,5.143,0,0,1-10.286,0V314.87Z" transform="translate(-38.131 -112.679)"/><path class="j" d="M99.876,314.859v7.676a5.143,5.143,0,1,1-10.286,0V314.84H99.876Z" transform="translate(-32.427 -112.668)"/><path class="i" d="M41.244,100.819A31.751,31.751,0,0,1,24.1,90.6C13.91,78.852,12.438,60.029,21.785,45.231A52.219,52.219,0,0,1,45.268,24.537c15.956-7.071,34.142-5.336,44.28,7.714,10.131-13.044,28.324-14.786,44.28-7.714a52.238,52.238,0,0,1,23.477,20.694C166.659,60.017,165.186,78.852,155,90.6a31.828,31.828,0,0,1-17.145,10.209,38.359,38.359,0,0,1-8.576.939H112.2a55.889,55.889,0,0,0,.135-7.714,42,42,0,0,0-1.286-8.293A27.048,27.048,0,1,0,89.522,59.271,27,27,0,1,0,77.745,81.636C74.422,84.342,72.6,88.174,72.6,94.069v.186a12.291,12.291,0,0,0,2.636,7.5H49.813a38.34,38.34,0,0,1-8.569-.939Z" transform="translate(-5.983 -7.521)"/><path class="k" d="M139.156,266.333a7.11,7.11,0,0,1-3.15-13.5c1.421-.7,2.854-1.446,4.288-2.244l1.6-22.5H89.18l1.581,22.185h0c1.633.919,3.272,1.781,4.9,2.571a7.11,7.11,0,0,1-3.156,13.5,6.987,6.987,0,0,1-3-.675c1.466.707,2.976,1.363,4.5,1.98h43.129l.064.161q2.526-.99,4.924-2.141a6.994,6.994,0,0,1-2.964.662Zm-15.056-16.5-6.268,6.268a7.239,7.239,0,0,1-10.241-10.234l6.268-6.268A7.239,7.239,0,1,1,124.1,249.838Z" transform="translate(-32.281 -81.686)"/><path class="l" d="M87.71,206.78l.971,13.686h52.714l.977-13.686Z" transform="translate(-31.756 -74.075)"/><path class="l" d="M93.229,304.64a6.824,6.824,0,0,0,3.8-13.1c-1.858-.585-3.664-1.221-5.419-1.929h43.123l.064.161c-1.633.643-3.3,1.228-5.021,1.768a6.821,6.821,0,0,0,3.793,13.1,62,62,0,0,0,10.929-4l-.7.334a6.917,6.917,0,0,0-3.889,4.873H86.858A6.917,6.917,0,0,0,83,300.969l-.7-.328A62.092,62.092,0,0,0,93.229,304.64Z" transform="translate(-29.824 -103.658)"/><path class="d" d="M89.61,316.84v0Z" transform="translate(-32.434 -113.383)"/><path class="d" d="M89.39,314.86h53.061a7.012,7.012,0,0,0-.141,1.286V314.86H89.531v1.286a7.014,7.014,0,0,0-.141-1.286Z" transform="translate(-32.356 -112.675)"/><path class="i" d="M205.8,181.2h0V139.8a31.828,31.828,0,0,0,17.145-10.209A82.89,82.89,0,0,1,241.061,181.2a84.214,84.214,0,0,1-1.453,15.6C233.764,222.007,205.8,222.534,205.8,181.2Z" transform="translate(-73.931 -46.507)"/><path class="i" d="M35.931,181.2c0,41.336-27.964,40.783-33.808,15.6A84.214,84.214,0,0,1,.67,181.2,82.89,82.89,0,0,1,18.786,129.59,31.751,31.751,0,0,0,35.931,139.8V181.2Z" transform="translate(-0.67 -46.507)"/><path class="i" d="M158.862,198.57l.977-13.686h4.706a2.886,2.886,0,0,0,2.893-2.893V178.05a2.886,2.886,0,0,0-2.893-2.893h-5.516l-4.243-9.27a.784.784,0,0,0-.707-.456H136.69V151.256h2.321c5.522,0,8.158-1.4,10.189-2.571a34.612,34.612,0,0,1,5.021,6.358,76.91,76.91,0,0,0,1.228-8.634h17.074a38.36,38.36,0,0,0,8.576-.939v41.4a36,36,0,0,1-15.879,29.34c-2.571,1.749-5.278,3.394-7.971,4.886Z" transform="translate(-49.249 -52.179)"/><path class="i" d="M99.962,151.259v14.175H82.573a.784.784,0,0,0-.714.456l-4.236,9.27H72.107a2.886,2.886,0,0,0-2.893,2.893v3.941a2.886,2.886,0,0,0,2.893,2.893h4.121L78.8,220.758c-2.488-1.395-4.969-2.925-7.361-4.545a36,36,0,0,1-15.879-29.34V145.48a38.34,38.34,0,0,0,8.569.939H89.464a12.639,12.639,0,0,0,9.951,4.841Z" transform="translate(-20.274 -52.182)"/></g><g transform="translate(6.351)"><path class="m" d="M62.254,39.751C39.066,38.337,27.469,51.368,27.469,66.79c-.321,8.916,3.124,17.878,12.735,26.9,4.809,3.375,9.971,5.657,15.789,5.946,4.365,1.575,9.726,2.282,16.322,1.929l2.2-10.041c-18.675,5.824-32.58,1.209-38.571-20.719C34.553,49.381,45.931,41.873,62.254,39.751Z" transform="translate(-9.996 -14.603)"/><path class="m" d="M158.469,101.6a36.2,36.2,0,0,0,10.536-1.961c5.786-.289,10.98-2.571,15.789-5.946,9.611-9,13.056-18,12.735-26.9,0-15.429-11.571-28.446-34.785-27.039,16.322,2.115,27.7,9.643,26.312,31.05C183.791,90.055,172.432,95.963,157.1,93.18Z" transform="translate(-56.3 -14.603)"/><path class="n" d="M139.958,133.446l-5.233-6.236c.444-7.714-.3-15.814-3.253-20.128-5.458-7.631-14.458-8.428-22.172-4.191,5.1-4.834,8.357-11.353,9.585-19.671C141.282,96.251,143.326,114.2,139.958,133.446Z" transform="translate(-39.229 -30.165)"/><path class="o" d="M135.333,205.93H80.69l.546,7.714h37.395a6.609,6.609,0,0,1,6.6,6.949l-.739,14.181c-.887,16.914-18.161,28.163-33.853,21.78q-.5-.206-.932-.4a25.716,25.716,0,0,1-4.069,2.694l8.537,3.5c4.134,5.914,2.674,10.241-4.037,13.089h35.177c-6.84-4.5-7.213-9.431-.816-14.741l5.889-2.359c-4.5-1.054-6.467-3.857-5.786-8.544,1.221-2.951,4.121-5.445,8.184-7.624l2.571-31.4h-.341Z" transform="translate(-29.011 -73.99)"/><path class="p" d="M97.24,135.98c1.151,7.586,4.609,12.722,13.108,12.529V136.218Z" transform="translate(-34.922 -49.008)"/><path class="p" d="M130.19,139.35c4.609,2.057,8.614,4.5,11.353,7.817a19.285,19.285,0,0,1-10.639,3.054Z" transform="translate(-46.689 -50.212)"/><path class="n" d="M60.741.69H28.47q1.813,2.777,3.8,5.259l1.337,1.845h.212A45.726,45.726,0,0,0,45.39,17.481a26.769,26.769,0,0,1-4.429-6.056A2.462,2.462,0,0,1,43.146,7.8H59.861c15.03.225,25.785,7.881,29.809,17.4C85.909,11.008,75.058,4.078,60.741.69Z" transform="translate(-10.361 -0.69)"/><path class="n" d="M152.576.69h32.271q-1.813,2.777-3.8,5.259l-1.337,1.845H179.5a45.726,45.726,0,0,1-11.571,9.688,26.768,26.768,0,0,0,4.429-6.056,2.462,2.462,0,0,0-2.173-3.632H153.469c-15.024.225-25.785,7.881-29.809,17.4C127.4,11.008,138.259,4.078,152.576.69Z" transform="translate(-44.357 -0.69)"/><path class="m" d="M168.306,147.394l-19.575.456-.868,7.329h.058l-.058.553-5.856-5.85a27.53,27.53,0,0,1-12.317,2.449v14.175h17.357l4.789,9.726h8.569v9.726h-7.566l-2.571,36.212c10.813-5.22,19.286-13.4,23.85-26.531V146.68Z" transform="translate(-46.511 -52.829)"/><path class="q" d="M60.129,147.486v37.286c0,9.752,1.17,17.01,10.652,23.368l.977,13.7Q49.9,210.576,48.5,189.356V154.879l.6-8.209Z" transform="translate(-17.514 -52.826)"/><path class="r" d="M116.91,143.687l8.537,1.434v-6.879l-8.074-1.922Z" transform="translate(-41.947 -49.129)"/><path class="s" d="M230.482,206.29c-4.076,5.2-3.549,7.014-9.926,6.827,9.167-15.184,8.389-29.494,4.815-46.871a21.362,21.362,0,0,0-23.715-16.714h-.186V141.3l.373-.8c7.457-1.209,12.047-5.1,16.946-9.54l4.873,7.489C232.327,156.726,238.968,178.435,230.482,206.29Z" transform="translate(-72.147 -47.215)"/><path class="t" d="M17.8,161.742V188.1a7.65,7.65,0,0,1-7.65,7.65h0a7.644,7.644,0,0,1-7.65-7.875c.386-11.436,2.481-18.726,7.071-28.067a4.333,4.333,0,0,1,3.9-2.417h0a4.339,4.339,0,0,1,4.333,4.352Z" transform="translate(-1.084 -56.655)"/><path class="u" d="M217.319,253.66C209.843,275.517,194.98,291.248,174.01,302c-8.871,3.079-13.5-10.17-4.6-13.249,8.576-4.32,16.123-9.109,21.6-14.837a85.082,85.082,0,0,0,11.057-14.143C206.8,260.719,211.932,258.314,217.319,253.66Z" transform="translate(-58.984 -91.037)"/><path class="u" d="M.3,229.091c11.481,16.5,28.511,1.035,29.494-21.311.913,21.709,2.006,26.486-12.041,35.081C6.51,244.23,2.929,241.343.3,229.091Z" transform="translate(-0.3 -74.651)"/><path class="t" d="M213.743,204.4h0a6.763,6.763,0,0,1-6.763-6.763V182.623a5.593,5.593,0,0,1,5.593-5.593h0a5.561,5.561,0,0,1,5.04,3.156c2.064,4.365,2.706,10.131,2.893,17.28a6.763,6.763,0,0,1-6.763,6.936Z" transform="translate(-74.115 -63.669)"/><path class="v" d="M100.491,57.117l.643.508a33.974,33.974,0,0,1,1.427,3.266,24.461,24.461,0,0,1,1.414,16.386v.18h0c-3.561,13.5-17.871,23.914-32.233,20.571L70.9,95.181C81.289,96.4,88.656,91.15,92.217,83.918c5.336-10.839.726-23.831-9.816-29.726A29.867,29.867,0,0,0,78.46,52.36Z" transform="translate(-25.514 -19.144)"/><path class="v" d="M184.424,57.051l.868.694a33.274,33.274,0,0,1,1.877,4.654,24.345,24.345,0,0,1,1.144,13.249c-.077.6-.167,1.2-.283,1.8l-.084-.161c-3.5,13.558-17.859,24.069-32.265,20.726l-.842-2.848c10.819,1.286,18.36-4.5,21.735-12.176a23.311,23.311,0,0,0-4.931-25.464,60.016,60.016,0,0,0-5.824-5.207Z" transform="translate(-55.493 -19.129)"/><path class="u" d="M49.772,221.072q-.456-1.716-.752-3.542C49.29,218.732,49.547,219.915,49.772,221.072Z" transform="translate(-17.7 -78.133)"/><path class="s" d="M5.54,246.053c7.875,18.039,31.982,7.071,30.536-17.036-.8-1.929-3.986-4.937-3.986-4.937C33.183,238.339,21.772,255.214,5.54,246.053Z" transform="translate(-2.171 -80.472)"/><g class="w" transform="translate(32.24 141.853)"><path class="a" d="M129.216.35h0l2.507,8.916a36.051,36.051,0,0,1-13.9,18.084,104.431,104.431,0,0,1-12.259,7.129,7.1,7.1,0,0,0-3.529,8.82,1.929,1.929,0,0,0,.109.264,7.071,7.071,0,0,1-.437-12.941,104.433,104.433,0,0,0,12.259-7.129A36,36,0,0,0,129.216.35Z" transform="translate(-35.181 -0.35)"/><path class="a" d="M94.8,76.5a6.814,6.814,0,0,1,.4-12.857c1.832-.579,3.619-1.209,5.361-1.929,1.569-.643,3.092-1.286,4.584-2A68.5,68.5,0,0,0,125.12,45.35h0a5.361,5.361,0,0,1-.264,7.824A70.573,70.573,0,0,1,108.991,63.62a74.572,74.572,0,0,1-9.945,3.909,6.8,6.8,0,0,0-4.564,8A6.082,6.082,0,0,0,94.8,76.5Z" transform="translate(-32.588 -16.421)"/><path class="a" d="M32.67,75.557a6.8,6.8,0,0,0-4.564-8,74.571,74.571,0,0,1-9.945-3.909,70.573,70.573,0,0,1-15.879-10.4,5.361,5.361,0,0,1-.264-7.824h0A68.5,68.5,0,0,0,21.993,59.788c1.491.714,3.015,1.382,4.584,2,1.742.7,3.529,1.331,5.361,1.929a6.814,6.814,0,0,1,.4,12.857,6.082,6.082,0,0,0,.328-1.016Z" transform="translate(-0.451 -16.446)"/><path class="a" d="M29.544,50.344a1.929,1.929,0,0,0,.109-.264,7.071,7.071,0,0,0-3.523-8.82,103.911,103.911,0,0,1-12.259-7.129q-.714-.482-1.4-1A11.642,11.642,0,0,1,8.214,20.85h0a35.961,35.961,0,0,0,9.514,9.424A103.911,103.911,0,0,0,29.988,37.4a7.1,7.1,0,0,1-.444,12.941Z" transform="translate(-3.085 -7.671)"/></g><path class="x" d="M82.606,315.87H92.8v6.885a5.1,5.1,0,0,1-5.1,5.1h0a5.1,5.1,0,0,1-5.1-5.1V315.87Z" transform="translate(-29.693 -113.255)"/><path class="n" d="M136.156,192.673H96.041v-.643H78.209v.643H72.693a2.893,2.893,0,0,0-2.893,2.893v3.857a2.886,2.886,0,0,1,2.893-2.893H75.6a2.571,2.571,0,0,1,2.571,2.571v2.623H96.009v-2.2a3.028,3.028,0,0,1,3.028-3.028h37.086a2.886,2.886,0,0,1,2.893,2.893v-3.857A2.893,2.893,0,0,0,136.156,192.673Z" transform="translate(-25.122 -69.026)"/><path class="n" d="M134.139,181.377l-1.556-3.4a.784.784,0,0,0-.707-.456H89.319a.784.784,0,0,0-.714.456l-1.556,3.4h3.433a1.787,1.787,0,0,1,1.678,2.417l-1.016,2.719,14.066.977.553-4.011a2.43,2.43,0,0,1,2.4-2.1Z" transform="translate(-31.282 -63.844)"/><circle class="y" cx="2.655" cy="2.655" r="2.655" transform="translate(34.386 63.026)"/></g><g transform="translate(0 0.437)"><circle class="z" cx="10.839" cy="10.839" r="10.839" transform="translate(63.27 42.191)"/><circle class="aa" cx="27.039" cy="27.039" r="27.039" transform="translate(31.571 24.705)"/><circle class="z" cx="10.839" cy="10.839" r="10.839" transform="translate(117.913 40.905)"/><path class="ab" d="M155.166,92.323A27.039,27.039,0,1,0,133.65,65.85" transform="translate(-48.002 -14.1)"/><path class="ab" d="M124.214,80.87c15.493,11.1,27.039,22.584,21.433,51.107h0a34.168,34.168,0,0,0-29.134-16.322H107.23c0-5.895,1.832-9.726,5.143-12.433" transform="translate(-38.567 -29.12)"/><path class="ab" d="M139.69,153.041h2.321c5.522,0,8.158-1.4,10.189-2.571" transform="translate(-50.159 -53.977)"/><path class="ab" d="M107.24,134.98v.186A12.542,12.542,0,0,0,119.827,147.5h.527" transform="translate(-38.57 -48.445)"/><path class="ab" d="M78.173,101.754H52.812c-30.664,0-42.737-33.242-28.029-56.526,15.66-26,51.763-33.589,67.763-12.979" transform="translate(-6.893 -7.531)"/><path class="ab" d="M99.2,25.088h0A34.11,34.11,0,0,0,66.41.37H37.16A62.023,62.023,0,0,0,54.916,17.386" transform="translate(-13.541 -0.37)"/><path class="ab" d="M133.66,32.249c16-20.61,52.071-13.024,67.757,12.979,14.715,23.284,2.642,56.526-28.029,56.526H156.308" transform="translate(-48.006 -7.531)"/><path class="ab" d="M133.66,25.088h0A34.11,34.11,0,0,1,166.446.37H195.7A62.023,62.023,0,0,1,177.94,17.386" transform="translate(-48.006 -0.37)"/><path class="ab" d="M93.252,242.648,90.7,206.77h54.636l-2.578,36.212" transform="translate(-32.663 -74.085)"/><path class="ab" d="M98.39,314.86h44.749" transform="translate(-35.409 -112.688)"/><rect class="aa" width="69.248" height="9.726" rx="4.5" transform="translate(51.023 122.965)"/><path class="ab" d="M145.308,186.246l-4.243-9.27a.784.784,0,0,0-.714-.456H97.826a.784.784,0,0,0-.714.456l-4.243,9.27" transform="translate(-33.438 -63.281)"/><path class="ab" d="M135.376,137.126v24.679H127.63V135.32" transform="translate(-45.852 -48.567)"/><path class="ab" d="M58.52,145.47v40.879A36.038,36.038,0,0,0,74.4,216.21a104.746,104.746,0,0,0,12.259,7.129,7.071,7.071,0,0,1,3.523,8.839h0a7.071,7.071,0,0,1-9.681,3.992A68.5,68.5,0,0,1,60.532,221.8" transform="translate(-21.17 -52.192)"/><path class="ab" d="M155.77,125.35a15.428,15.428,0,0,1,1.337,4.969" transform="translate(-55.902 -45.006)"/><path class="ab" d="M39.338,209.87c0,43.463-30.909,40.616-34.528,11.52" transform="translate(-1.988 -75.192)"/><path class="ab" d="M8.848,314.85H.42" transform="translate(-0.42 -112.685)"/><path class="ab" d="M45.04,314.85H23.53" transform="translate(-8.674 -112.685)"/><path class="ab" d="M239.795,314.85H210.32" transform="translate(-75.385 -112.685)"/><path class="ab" d="M267.814,315h-.064" transform="translate(-95.895 -112.738)"/><path class="ab" d="M145.448,314.85H92.38" transform="translate(-33.263 -112.685)"/><path class="ab" d="M92.61,314.87H102.9v7.682a5.143,5.143,0,0,1-5.143,5.143h0a5.143,5.143,0,0,1-5.143-5.143Z" transform="translate(-33.345 -112.692)"/><path class="ab" d="M108.58,314.87h10.286v9.849a5.143,5.143,0,0,1-5.143,5.143h0a5.143,5.143,0,0,1-5.143-5.143Z" transform="translate(-39.049 -112.692)"/><path class="ab" d="M156.755,228.06H125.39" transform="translate(-45.052 -81.688)"/><path class="ab" d="M100.686,228.06H92.22" transform="translate(-33.206 -81.688)"/><path class="ab" d="M99.74,289.61h43.129" transform="translate(-35.892 -103.67)"/><rect class="aa" width="23.342" height="14.477" rx="7.239" transform="translate(72.285 169.277) rotate(-45.01)"/><path class="ab" d="M120.2,262.5a3.857,3.857,0,0,1,0-5.445l.129-.122.039-.039a9.321,9.321,0,0,1,6.178-2.571l1.929-.077,1.929-.077a9.321,9.321,0,0,0,6.178-2.571l.039-.039.135-.122a3.857,3.857,0,0,0,0-5.445" transform="translate(-42.795 -88.092)"/><path class="ab" d="M102.2,57.625q-23.869-12.619-47.745,0" transform="translate(-19.72 -18.565)"/><path class="ab" d="M138.59,57.625q23.869-12.619,47.745,0" transform="translate(-49.767 -18.565)"/><path class="ab" d="M78.056,285.509A74.894,74.894,0,0,0,88,289.417a6.8,6.8,0,0,1,4.564,8h0a6.834,6.834,0,0,1-8.357,5.1c-11.616-2.964-23.908-10.5-32.548-18.849" transform="translate(-18.72 -101.549)"/><path class="ab" d="M190.953,145.47v40.879a36.038,36.038,0,0,1-15.885,29.861,104.746,104.746,0,0,1-12.259,7.129,7.071,7.071,0,0,0-3.529,8.839h0a7.071,7.071,0,0,0,9.681,3.992A68.5,68.5,0,0,0,188.935,221.8" transform="translate(-56.995 -52.192)"/><path class="ab" d="M208.8,209.87c0,43.463,30.909,40.616,34.528,11.52" transform="translate(-74.842 -75.192)"/><path class="ab" d="M166.443,285.509a74.894,74.894,0,0,1-9.945,3.909,6.8,6.8,0,0,0-4.564,8h0a6.834,6.834,0,0,0,8.357,5.1c11.616-2.964,23.908-10.5,32.548-18.849" transform="translate(-54.471 -101.549)"/><path class="ab" d="M54.2,242.582c.849.431,1.7.842,2.571,1.247a6.994,6.994,0,0,1-2.957,13.333,6.789,6.789,0,0,1-2.983-.688A83.237,83.237,0,0,1,21.746,129.6" transform="translate(-1.567 -46.524)"/><path class="ab" d="M5.143,0h0a5.143,5.143,0,0,1,5.143,5.143v7.682H0V5.136A5.143,5.143,0,0,1,5.143,0Z" transform="translate(112.043 214.99) rotate(180)"/><path class="ab" d="M5.143.006h0a5.143,5.143,0,0,1,5.143,5.143V15H0V5.143A5.143,5.143,0,0,1,5.143,0Z" transform="translate(101.777 217.163) rotate(180)"/><path class="ab" d="M213.766,129.59a83.237,83.237,0,0,1-29.089,126.874,6.789,6.789,0,0,1-2.983.688,6.994,6.994,0,0,1-2.957-13.333c.881-.4,1.736-.816,2.571-1.247" transform="translate(-62.663 -46.52)"/><path class="ac" d="M81.85,131.96c5.657,1.929,8.357,1.929,16.322,1.929" transform="translate(-29.502 -47.367)"/><path class="ac" d="M169.1,133.879c3.915,0,6.429,0,10.511-1.929" transform="translate(-60.663 -47.363)"/><path class="ac" d="M42.39,103.41a34.888,34.888,0,0,0,9.579,12.407" transform="translate(-15.409 -37.17)"/><path class="ac" d="M37.48,80.87a34.83,34.83,0,0,0,1.286,9.321" transform="translate(-13.656 -29.12)"/><path class="ac" d="M225.19,94.955a34.65,34.65,0,0,0,2.97-14.085" transform="translate(-80.695 -29.12)"/><path class="ac" d="M209.99,118.22a34.965,34.965,0,0,0,7.226-8.1" transform="translate(-75.267 -39.567)"/><path class="ac" d="M19.81,221.84c0,5.336,8.145,5.336,8.145,0" transform="translate(-7.345 -79.467)"/><path class="ac" d="M32.66,198.7c0,5.336,8.145,5.336,8.145,0" transform="translate(-11.934 -71.202)"/><path class="ac" d="M29.955,175.55c0,5.336-8.145,5.336-8.145,0" transform="translate(-8.059 -62.935)"/><path class="ac" d="M242.965,221.84c0,5.336-8.145,5.336-8.145,0" transform="translate(-84.135 -79.467)"/><path class="ac" d="M230.125,198.7c0,5.336-8.145,5.336-8.145,0" transform="translate(-79.549 -71.202)"/><path class="ac" d="M232.82,175.55c0,5.336,8.145,5.336,8.145,0" transform="translate(-83.42 -62.935)"/></g><g class="ad" transform="translate(107.587 36.352)"><ellipse class="a" cx="10.003" cy="6.583" rx="10.003" ry="6.583" transform="matrix(0.353, -0.936, 0.936, 0.353, 0, 18.718)"/></g><g class="ad" transform="translate(50.521 38.8)"><path class="a" d="M10.242,0c5.7.071,10.364,3.256,10.41,7.114s-4.539,6.929-10.242,6.859S.047,10.719,0,6.86,4.539-.069,10.242,0Z" transform="matrix(0.353, -0.936, 0.936, 0.353, 0, 19.323)"/></g></g><rect class="a" width="180" height="6" rx="3" transform="translate(365 3220) rotate(180)"/><rect class="a" width="145" height="9" rx="4.5" transform="translate(376 2815) rotate(180)"/></g></g><path class="a" d="M5.5,0,221.432-.194v11L5.5,11a5.5,5.5,0,0,1,0-11Z" transform="translate(-14304 -2320) rotate(180)"/></g></svg>